{"glyphs":{"0":{"ha":731,"x_min":39,"x_max":690,"o":"m 375 3 q 296 14 338 3 q 76 215 140 57 q 39 425 39 307 q 46 521 39 472 q 85 681 57 604 q 153 819 113 758 q 251 924 199 889 q 383 968 315 968 q 447 958 418 968 q 654 717 588 915 q 690 479 690 606 q 589 117 690 251 q 375 3 504 3 m 375 114 q 500 182 449 114 q 544 267 526 218 q 571 374 561 315 q 579 489 579 431 q 576 562 579 511 q 549 682 572 613 q 492 795 526 751 q 414 851 457 839 q 383 857 401 857 q 339 847 360 857 q 300 822 318 836 q 268 790 282 807 q 246 758 254 772 q 189 642 213 708 q 156 506 165 576 q 150 424 150 463 q 154 351 150 396 q 179 257 158 307 q 325 121 224 147 q 375 114 353 114 z "},"1":{"ha":203,"x_min":40,"x_max":160,"o":"m 96 3 l 94 3 q 56 19 71 3 q 40 58 40 35 l 49 913 q 65 952 50 936 q 104 968 81 968 l 106 968 q 144 951 129 968 q 160 911 160 935 l 151 57 q 135 18 151 33 q 96 3 119 3 z "},"2":{"ha":689,"x_min":38,"x_max":664,"o":"m 243 3 q 90 7 169 3 q 42 42 56 10 q 38 63 38 53 q 53 100 38 83 l 71 119 q 117 172 89 139 q 183 251 146 206 q 258 349 219 296 q 413 587 358 482 q 475 764 468 692 l 476 781 q 469 813 476 800 q 454 832 463 825 q 354 858 424 858 q 271 851 318 858 q 217 842 243 847 q 172 832 192 838 q 131 821 149 826 q 113 818 121 818 q 84 826 100 818 q 61 856 68 833 q 58 874 58 865 q 66 903 58 886 q 96 926 74 919 q 144 940 99 926 q 254 961 190 953 q 351 969 307 969 q 525 919 463 969 q 588 781 588 869 l 586 753 q 517 547 576 665 q 347 281 458 428 q 276 190 311 232 q 214 114 242 147 q 300 115 258 114 q 382 117 342 115 l 500 118 q 613 115 557 118 q 650 97 636 113 q 664 63 664 82 q 647 19 664 33 q 610 4 631 4 l 606 4 q 499 7 554 7 l 385 6 q 316 3 351 4 q 243 3 281 3 z "},"3":{"ha":633,"x_min":33,"x_max":600,"o":"m 285 1 q 93 26 194 1 q 58 51 69 32 q 50 79 50 65 l 51 93 q 104 136 61 136 l 118 135 q 276 113 213 113 q 320 114 283 113 q 394 126 357 115 q 458 156 433 138 q 488 199 482 175 q 489 214 489 206 q 476 258 489 232 q 428 314 464 283 q 334 372 392 344 q 197 421 276 400 q 167 442 178 426 q 156 474 156 457 l 156 478 q 169 512 157 497 q 201 531 182 526 q 371 586 304 547 q 456 678 438 625 q 461 713 461 696 q 429 788 461 753 q 381 824 411 807 q 311 849 351 840 q 232 856 275 856 q 196 855 225 856 q 104 838 167 854 l 90 836 q 58 846 75 836 q 36 878 42 856 q 33 893 33 886 q 43 923 33 907 q 75 946 53 939 q 233 967 158 967 q 333 957 286 967 q 433 922 388 946 q 510 864 478 899 q 572 711 572 794 q 561 643 572 678 q 388 469 524 531 q 600 213 600 361 q 535 78 600 136 q 485 44 513 58 q 425 19 458 31 q 358 6 393 11 q 285 1 324 1 z "},"4":{"ha":663,"x_min":18,"x_max":640,"o":"m 467 3 l 465 3 q 427 19 443 3 q 410 58 411 35 l 410 413 q 377 411 393 411 q 346 411 361 411 q 186 425 250 411 q 81 483 122 439 q 18 703 18 549 q 19 778 18 731 q 31 918 21 826 q 51 957 33 942 q 83 968 65 968 l 92 968 q 128 949 115 965 q 142 915 142 933 l 142 907 q 129 706 129 794 q 161 560 129 593 q 250 526 186 532 q 350 522 293 522 l 411 524 q 417 708 414 613 q 426 907 419 803 q 444 945 428 931 q 481 960 460 960 l 485 960 q 523 941 508 957 q 538 904 538 925 l 538 900 q 528 707 531 800 q 522 526 525 614 l 583 528 q 623 513 607 528 q 640 474 639 497 q 625 433 640 450 q 586 417 610 417 l 521 415 l 519 228 q 521 60 519 139 l 521 56 q 506 19 521 35 q 467 3 490 3 z "},"5":{"ha":607,"x_min":42,"x_max":579,"o":"m 224 -1 q 85 18 160 -1 q 51 43 63 24 q 43 71 43 57 l 44 85 q 96 128 57 128 q 113 125 104 128 q 224 111 172 111 q 310 122 257 111 q 408 185 364 132 q 447 292 447 231 q 432 364 447 329 q 318 473 400 435 q 118 514 236 511 q 71 536 89 517 q 42 679 42 568 l 42 701 q 44 790 42 746 q 50 865 47 833 q 60 897 51 878 q 100 932 69 917 q 128 944 113 939 q 164 953 144 949 q 317 964 224 964 q 393 963 356 964 q 460 961 431 963 q 508 958 489 960 q 528 957 526 957 q 565 939 551 954 q 579 904 579 924 q 562 861 579 876 q 524 846 544 846 l 519 846 l 506 847 q 466 849 490 849 q 411 851 442 850 q 347 853 381 853 l 313 853 q 211 847 249 853 q 160 838 174 842 q 156 778 157 811 q 153 714 154 746 l 153 683 q 153 653 153 669 q 156 624 154 636 q 386 563 289 615 q 474 496 436 535 q 532 410 511 457 q 560 290 560 351 q 553 224 560 272 q 493 114 546 176 q 420 51 463 78 q 328 13 378 25 q 277 2 303 6 q 224 -1 251 -1 z "},"6":{"ha":615,"x_min":38,"x_max":582,"o":"m 318 1 l 278 4 q 167 42 215 13 q 89 122 119 72 q 43 276 49 189 q 38 421 38 297 q 175 897 38 778 q 382 967 256 967 q 413 966 389 967 q 488 956 438 965 q 524 933 510 951 q 532 904 532 919 l 531 890 q 510 856 526 867 q 478 844 494 844 l 467 846 q 379 856 419 856 q 249 814 297 856 q 160 600 181 754 q 319 671 231 671 q 337 670 328 671 q 354 668 346 669 q 536 522 472 649 q 582 319 582 433 q 510 92 582 183 q 318 1 438 1 m 318 113 q 394 135 365 113 q 440 188 424 157 q 462 248 456 218 q 469 294 468 278 l 471 321 q 464 395 471 356 q 438 472 457 435 q 399 525 424 499 q 336 558 375 551 q 319 560 331 560 q 284 553 300 560 q 254 535 268 546 q 230 513 240 525 q 213 492 219 501 q 174 411 189 456 q 156 319 158 367 l 156 304 q 157 261 156 288 q 172 203 158 235 q 213 146 185 171 q 293 114 242 121 q 306 113 300 113 q 318 113 311 113 z "},"7":{"ha":607,"x_min":19,"x_max":588,"o":"m 244 3 q 221 8 232 3 q 189 60 189 24 q 194 82 189 71 l 207 110 q 240 183 219 138 q 285 286 260 228 q 338 408 311 344 q 412 597 385 522 q 453 719 439 672 q 472 788 468 765 q 476 819 476 811 q 463 829 475 822 q 421 843 450 836 q 279 857 369 854 q 206 856 242 857 q 142 852 169 854 q 99 849 115 850 l 81 846 l 72 846 q 38 858 54 846 q 19 894 22 871 l 19 903 q 32 938 19 921 q 68 957 44 954 q 85 958 69 957 q 126 962 100 960 q 187 966 153 964 q 258 968 221 968 q 342 966 303 968 q 414 958 382 964 q 588 819 588 928 q 586 796 588 810 q 580 759 585 782 q 566 703 575 736 q 540 624 557 671 q 497 506 521 571 q 440 365 472 442 q 387 241 413 300 q 341 136 361 182 q 308 63 321 90 l 296 35 q 274 11 289 19 q 244 3 260 3 z "},"8":{"ha":569,"x_min":38,"x_max":533,"o":"m 303 0 q 286 0 294 0 q 269 1 278 0 q 89 100 151 17 q 38 263 38 169 l 38 276 q 143 483 46 406 q 50 693 50 557 l 50 713 q 69 805 53 761 q 114 882 86 849 q 190 944 146 922 q 285 965 235 965 q 465 865 399 965 q 515 689 515 788 l 515 679 q 501 589 514 632 q 464 514 488 546 q 433 481 447 493 q 457 459 446 471 q 478 435 468 447 q 533 258 533 357 l 533 249 q 518 157 532 200 q 476 81 504 114 q 443 47 461 61 q 403 22 425 32 q 303 0 360 0 m 303 111 q 368 129 344 111 q 404 172 392 147 q 419 219 417 196 q 422 250 422 242 q 416 304 422 275 q 394 359 410 333 q 355 402 379 385 q 294 421 331 419 l 289 421 q 231 408 257 421 q 188 374 206 394 q 160 326 171 353 q 149 271 150 299 l 149 260 q 153 215 149 239 q 174 169 158 192 q 217 132 190 147 q 282 113 243 117 q 303 111 289 111 m 299 542 q 375 580 346 542 q 404 682 404 618 q 397 743 404 713 q 376 798 390 774 q 341 838 363 822 q 290 854 319 853 l 285 854 q 235 841 257 854 q 197 807 213 828 q 172 760 181 786 q 161 706 163 733 l 161 693 q 162 666 161 685 q 174 621 163 647 q 210 572 185 594 q 281 543 235 549 l 299 542 z "},"9":{"ha":615,"x_min":33,"x_max":578,"o":"m 235 4 q 203 5 228 4 q 128 15 178 6 q 93 39 106 19 q 83 68 83 51 q 108 117 83 100 q 138 126 122 126 l 149 125 q 236 115 196 115 q 367 157 318 115 q 456 371 435 217 q 296 300 385 300 q 278 301 288 300 q 261 303 269 301 q 79 449 143 322 q 33 653 33 538 q 106 878 33 788 q 297 969 178 969 l 338 967 q 448 928 400 958 q 526 849 496 899 q 572 694 565 782 q 578 550 578 674 q 440 74 578 193 q 235 4 360 4 m 296 411 q 331 418 314 411 q 361 435 347 425 q 385 458 375 446 q 403 479 396 469 q 442 560 426 515 q 460 651 457 604 l 461 675 q 459 713 461 689 q 444 768 457 736 q 402 825 431 800 q 322 857 374 850 q 310 858 315 858 q 297 858 304 858 q 221 836 250 858 q 176 783 192 814 q 153 723 160 753 q 146 676 147 693 l 146 653 q 152 577 146 618 q 178 499 158 536 q 216 446 192 472 q 279 413 240 419 q 296 411 285 411 z "}," ":{"ha":356,"x_min":0,"x_max":0,"o":""},"C":{"ha":663,"x_min":35,"x_max":633,"o":"m 318 1 q 83 140 151 1 q 35 390 35 236 l 35 399 q 40 496 35 439 q 59 615 44 553 q 100 743 74 678 q 171 865 126 808 q 213 910 190 890 q 260 940 235 929 q 340 960 300 960 q 469 911 411 960 q 510 867 493 892 q 542 811 528 842 q 547 789 547 800 q 541 763 547 779 q 514 738 535 747 q 492 732 503 732 q 466 738 482 732 q 440 767 450 744 q 401 824 425 803 q 351 849 378 846 l 342 850 q 258 797 299 850 q 176 624 206 726 q 146 399 146 521 q 149 328 146 371 q 163 244 151 286 q 197 167 175 201 q 258 121 219 132 q 314 113 286 113 q 350 115 325 113 q 411 132 375 117 q 478 174 447 147 q 531 238 510 201 q 578 265 547 265 q 606 258 593 265 q 633 210 633 242 q 626 182 633 194 q 554 93 599 132 q 457 31 510 54 q 318 1 390 1 z "},"S":{"ha":600,"x_min":35,"x_max":569,"o":"m 310 3 l 301 3 q 211 14 254 3 q 135 47 168 25 q 65 116 92 74 q 35 213 39 158 l 35 219 q 48 254 35 239 q 85 272 61 269 l 92 272 q 127 258 111 272 q 144 221 143 244 q 163 169 147 190 q 202 136 179 149 q 253 119 225 124 q 307 114 281 114 q 362 120 335 114 q 410 138 389 126 q 444 166 431 150 q 458 203 458 182 l 458 207 q 444 249 458 226 q 406 298 431 272 q 351 350 382 324 q 290 403 321 376 q 206 476 249 438 q 128 556 164 514 q 69 644 93 597 q 42 743 46 690 l 40 765 q 94 903 40 847 q 238 967 149 958 l 268 968 q 346 957 303 968 q 432 917 389 946 q 505 842 475 888 q 542 736 535 796 l 542 728 q 529 694 542 710 q 494 675 517 678 l 486 675 q 451 687 468 675 q 432 722 435 699 q 407 788 426 761 q 360 831 388 815 q 304 853 333 846 q 265 857 283 857 l 249 856 q 219 850 236 854 q 186 834 201 846 q 161 805 171 822 q 151 764 151 788 l 151 751 q 174 682 154 715 q 222 615 193 649 q 288 550 251 582 q 361 488 324 518 q 437 424 401 456 q 500 360 472 393 q 569 206 569 281 l 569 197 q 544 115 567 153 q 478 50 521 78 q 310 3 407 6 z "},"r":{"ha":507,"x_min":42,"x_max":496,"o":"m 133 4 l 129 4 q 92 19 107 4 q 75 57 76 35 l 42 633 q 56 670 42 654 q 94 688 71 686 l 101 688 q 136 674 121 688 q 153 636 151 660 l 156 582 q 167 602 161 593 q 179 619 172 611 q 307 692 233 692 q 493 500 417 692 q 496 481 496 490 q 489 452 496 468 q 460 429 482 436 q 440 425 451 425 q 410 435 424 425 q 389 461 396 444 q 356 531 372 507 q 329 567 340 556 q 306 581 315 581 l 301 581 q 267 551 290 578 q 222 454 244 525 q 182 156 182 328 q 185 63 182 111 l 185 58 q 171 22 185 38 q 133 4 157 6 z "},"d":{"ha":710,"x_min":13,"x_max":676,"o":"m 379 1 q 72 138 174 1 q 13 318 13 218 q 26 401 13 360 q 65 479 39 443 q 142 550 97 522 q 244 589 188 578 q 322 596 282 596 q 446 581 381 596 q 443 785 443 683 q 446 989 443 888 q 463 1028 447 1013 q 499 1043 478 1043 q 541 1027 525 1043 q 557 990 557 1011 l 557 986 q 554 810 554 897 q 555 706 554 779 q 558 514 556 632 q 559 507 558 511 q 558 500 560 503 l 569 146 l 603 157 q 622 161 613 161 q 649 153 633 161 q 674 124 665 146 q 676 104 676 114 q 669 77 676 93 q 640 53 663 61 q 379 1 500 1 m 378 113 q 460 119 417 113 q 458 125 458 121 q 456 226 457 175 q 453 326 456 278 l 449 465 q 329 486 379 486 q 156 413 208 486 q 124 315 124 369 q 124 283 124 314 q 161 204 125 253 q 378 113 228 113 z "},"e":{"ha":661,"x_min":31,"x_max":626,"o":"m 333 4 q 89 154 144 4 q 68 274 68 207 q 72 333 68 303 l 63 338 q 31 389 31 353 q 36 411 31 400 q 88 443 53 443 l 101 442 q 138 517 117 481 q 185 582 158 553 q 415 692 281 692 l 426 692 q 581 551 581 663 q 563 483 581 524 q 494 397 546 442 q 430 353 465 374 q 354 321 394 333 q 271 303 314 308 q 226 300 249 300 q 181 303 204 300 l 179 275 q 181 240 179 261 q 191 195 182 219 q 217 153 200 171 q 260 128 233 136 q 335 115 299 115 q 410 132 375 115 q 458 164 438 144 q 492 201 478 183 q 513 232 506 218 l 518 244 q 568 279 535 279 q 592 274 579 279 q 626 224 626 260 q 621 201 626 213 q 611 180 621 199 q 581 135 601 161 q 531 80 561 108 q 457 32 500 51 q 333 4 397 4 m 229 413 q 332 431 281 413 q 422 482 383 449 q 469 551 469 522 l 469 556 q 456 567 468 560 q 414 581 444 575 l 408 581 q 327 558 363 581 q 268 508 292 535 q 208 413 232 468 l 229 413 z "},"s":{"ha":450,"x_min":32,"x_max":422,"o":"m 172 4 q 107 8 133 4 q 79 13 81 11 q 43 35 56 15 q 32 65 32 49 q 57 113 32 97 q 88 122 71 122 l 99 121 q 178 115 132 115 l 204 117 q 267 130 235 119 q 310 167 299 140 l 311 172 q 306 190 311 178 q 289 219 301 201 q 244 273 271 244 q 189 329 217 301 q 137 381 163 354 q 92 432 111 407 q 46 539 46 493 q 118 664 46 621 q 239 692 163 692 q 279 690 254 692 q 331 681 304 688 q 363 672 357 674 q 401 622 401 660 q 399 604 401 614 q 347 564 386 564 q 328 567 339 564 q 297 575 318 571 q 254 581 276 579 l 239 581 q 207 578 225 581 q 175 568 189 576 q 165 559 169 565 q 157 540 160 553 q 160 529 157 539 q 182 496 164 519 q 221 453 199 475 q 267 407 243 431 q 327 346 297 376 q 379 283 357 315 q 422 172 422 225 q 413 126 422 147 q 390 86 404 106 q 352 50 376 67 q 293 22 328 33 q 210 6 258 10 q 190 4 200 4 q 172 4 181 4 z "},"i":{"ha":239,"x_min":35,"x_max":203,"o":"m 144 1 q 94 34 110 1 q 66 109 78 67 q 48 197 54 151 q 38 288 42 243 q 35 374 35 333 l 35 418 q 35 473 35 440 q 39 543 36 506 q 46 610 42 581 q 57 658 50 640 q 108 697 69 697 q 126 694 117 697 q 165 642 165 682 q 163 624 165 633 q 149 538 156 604 q 143 428 143 490 l 144 376 q 160 200 147 276 q 194 81 172 124 q 200 57 200 69 q 194 33 200 49 q 168 7 189 18 q 144 1 158 1 m 124 804 l 119 804 q 63 827 88 804 q 38 885 39 850 l 38 889 q 60 945 38 921 q 118 971 83 969 l 122 971 q 178 948 154 971 q 203 890 201 925 l 203 886 q 181 830 203 854 q 124 804 158 806 z "},"v":{"ha":513,"x_min":31,"x_max":479,"o":"m 263 3 l 256 3 q 174 50 208 7 q 151 85 161 65 q 129 131 140 106 q 72 339 97 208 q 54 444 61 393 q 42 536 47 496 q 33 602 36 576 q 31 631 31 628 l 31 635 q 44 672 31 656 q 82 690 58 688 l 90 690 q 124 677 108 690 q 142 640 139 664 l 144 618 q 150 560 146 596 q 161 477 154 524 q 178 382 168 431 q 203 263 190 311 q 228 185 217 215 q 247 140 239 156 q 261 118 256 124 q 276 143 267 125 q 297 197 286 161 q 339 379 319 265 q 353 472 347 426 q 362 553 358 518 q 368 611 365 589 l 369 632 q 387 669 371 656 q 424 683 403 683 l 428 683 q 465 665 451 681 q 479 631 479 650 l 479 624 q 477 595 479 621 q 471 529 475 569 q 460 437 467 489 q 443 331 453 385 q 389 124 419 199 q 367 79 378 99 q 344 44 357 60 q 301 11 322 19 q 263 3 279 3 z "},"u":{"ha":617,"x_min":40,"x_max":579,"o":"m 524 4 q 494 13 508 4 q 472 38 479 22 q 436 160 447 94 q 257 13 374 13 q 40 424 51 13 q 42 506 40 467 q 45 576 43 546 q 49 624 47 606 q 51 643 51 642 q 70 679 54 667 q 104 692 86 692 l 113 692 q 149 672 136 689 q 161 638 161 656 l 161 629 l 160 613 q 156 567 158 594 q 153 502 154 539 q 151 424 151 465 q 169 252 154 324 q 211 147 183 181 q 260 124 232 124 q 294 139 279 124 q 315 165 303 147 q 338 214 326 182 q 360 294 350 246 q 378 413 371 343 q 383 493 382 454 q 385 561 385 532 l 385 631 q 399 667 385 651 q 435 685 413 682 l 443 685 q 476 672 461 685 q 494 636 492 658 q 506 540 501 589 q 514 442 510 490 q 534 244 522 340 q 574 83 546 147 q 579 61 579 72 q 573 35 579 51 q 546 10 567 19 q 524 4 532 4 z "},"t":{"ha":685,"x_min":17,"x_max":668,"o":"m 386 -1 q 345 2 367 -1 q 296 21 324 6 q 242 72 268 36 q 167 465 167 183 l 167 529 l 72 522 q 35 537 51 522 q 17 574 19 551 l 17 578 q 31 615 17 599 q 68 633 44 631 l 171 642 q 178 747 174 697 q 186 833 182 796 q 193 892 190 869 q 196 917 196 914 q 218 954 199 940 q 250 964 233 964 l 258 964 q 294 944 282 961 q 307 910 307 928 l 307 901 l 304 882 q 298 827 301 861 q 290 747 294 793 q 282 650 286 701 l 563 672 q 597 659 581 672 q 614 622 613 646 l 614 614 q 601 580 614 596 q 564 563 588 564 l 278 539 l 278 476 q 301 218 278 317 q 363 113 325 119 l 386 111 q 451 131 424 111 q 497 183 478 151 q 528 247 515 214 q 547 311 540 281 q 557 358 554 342 q 576 394 560 382 q 611 407 593 407 l 619 407 q 656 388 643 404 q 668 353 668 371 l 668 344 q 661 310 667 343 q 640 231 656 276 q 518 43 596 100 q 386 -1 458 -1 z "},"a":{"ha":675,"x_min":40,"x_max":650,"o":"m 594 1 q 563 13 575 1 q 435 200 476 72 l 435 203 q 404 136 421 168 q 362 75 383 99 q 319 38 340 51 q 279 19 299 25 q 244 14 260 14 l 239 14 q 115 81 168 14 q 40 328 40 174 q 42 377 40 339 q 61 476 43 415 q 113 585 81 539 q 186 658 144 631 q 288 689 235 689 q 326 687 293 689 q 415 642 360 685 q 438 599 438 624 q 424 563 438 581 q 389 543 411 546 l 379 542 q 349 554 363 542 q 288 578 317 578 q 246 565 267 578 q 168 444 194 531 q 151 333 151 392 q 162 238 151 286 q 197 158 172 190 q 240 125 221 125 l 242 125 q 273 142 256 125 q 307 190 290 160 q 397 504 364 293 q 453 551 406 551 l 457 551 q 494 533 479 549 q 508 496 508 518 q 626 101 508 193 q 650 57 650 85 q 641 27 650 40 q 619 8 632 14 q 594 1 607 1 z "},"h":{"ha":554,"x_min":44,"x_max":540,"o":"m 486 1 l 485 1 q 447 17 463 1 q 429 56 431 32 l 428 79 q 424 140 426 103 q 416 226 421 178 q 404 325 411 274 q 363 513 388 442 q 335 573 347 558 q 319 590 322 588 q 305 578 317 589 q 275 529 293 568 q 217 344 244 465 q 196 243 204 293 q 181 154 188 193 q 172 92 175 115 l 169 67 q 151 31 167 44 q 117 17 136 17 l 113 17 q 75 33 90 18 q 60 71 60 49 l 44 988 q 60 1027 44 1011 q 99 1043 75 1043 l 103 1043 q 140 1028 124 1043 q 156 989 156 1013 l 163 550 l 175 578 q 228 658 201 629 q 322 701 271 701 q 355 697 335 701 q 399 669 375 692 q 479 514 446 626 q 500 423 490 474 q 518 314 510 372 q 529 219 525 264 q 536 139 533 174 q 540 83 539 104 q 540 60 540 61 l 540 56 q 525 19 540 35 q 486 1 510 3 z "},"l":{"ha":235,"x_min":38,"x_max":214,"o":"m 158 3 q 133 8 146 3 q 114 25 121 14 q 92 69 103 40 q 70 158 81 99 q 52 315 60 218 q 40 564 44 413 q 38 722 38 646 q 38 858 38 799 q 40 953 39 917 q 40 990 40 989 q 56 1029 40 1014 q 93 1044 72 1044 l 97 1044 q 136 1028 121 1044 q 151 988 151 1011 l 151 951 q 149 857 150 915 q 149 724 149 799 q 151 567 149 647 q 158 395 154 472 q 169 257 163 318 q 181 174 175 206 q 191 124 186 142 q 199 100 196 107 q 203 92 203 93 q 214 57 214 75 q 212 41 214 54 q 190 14 210 28 q 158 3 175 3 z "},"q":{"ha":776,"x_min":14,"x_max":747,"o":"m 578 -347 q 472 -214 500 -347 q 457 -122 464 -175 q 446 -1 450 -69 q 444 11 446 7 q 400 6 422 7 q 357 4 378 4 q 72 135 171 4 q 14 314 14 214 q 56 467 14 396 q 214 597 110 557 q 385 626 292 626 l 433 625 l 433 642 q 448 678 433 663 q 486 694 463 693 l 490 694 q 527 679 511 694 q 544 640 543 664 l 544 496 q 545 393 544 449 q 547 279 546 338 q 549 160 547 221 q 554 44 551 100 q 562 -66 557 -17 q 574 -153 567 -115 q 579 -185 576 -172 q 585 -210 582 -199 q 608 -164 594 -193 q 639 -86 621 -135 q 690 -50 653 -50 q 710 -53 700 -50 q 747 -104 747 -67 q 743 -125 747 -115 q 631 -328 682 -293 q 602 -343 615 -339 q 578 -347 589 -347 m 356 115 q 439 124 394 115 q 435 318 436 221 q 433 496 435 415 l 433 513 q 376 515 404 515 q 249 492 311 515 q 150 410 186 469 q 125 314 125 365 q 126 278 125 310 q 161 201 128 246 q 356 115 225 115 z "},"n":{"ha":615,"x_min":43,"x_max":576,"o":"m 140 0 q 102 15 118 0 q 85 51 86 31 l 43 635 q 57 670 43 654 q 94 688 71 686 l 101 688 q 136 674 121 688 q 153 636 151 660 l 164 490 q 178 523 171 508 q 193 553 186 538 q 360 667 260 667 q 476 614 428 667 q 574 279 561 522 q 576 198 575 236 q 575 130 576 160 q 573 82 574 100 q 572 63 572 64 q 554 26 569 40 q 517 11 539 11 q 476 28 492 11 q 461 67 461 46 l 461 71 l 463 88 q 464 133 463 104 q 465 198 465 161 q 463 275 464 235 q 451 388 458 342 q 433 465 443 435 q 413 513 422 496 q 394 539 403 531 q 375 553 383 550 q 360 556 367 556 q 229 322 281 556 q 211 224 218 272 q 201 139 204 176 q 196 78 197 101 l 194 54 q 178 17 194 32 q 140 0 163 1 z "},"H":{"ha":771,"x_min":36,"x_max":738,"o":"m 169 -1 q 129 15 144 -1 q 114 53 114 32 l 114 57 q 119 169 117 100 q 121 344 121 238 q 36 404 36 350 l 38 418 q 90 461 47 461 l 104 460 l 121 456 q 119 648 121 543 q 114 883 117 753 l 114 908 q 130 948 114 932 q 169 964 146 964 q 209 948 193 964 q 225 908 225 932 l 225 886 q 230 642 228 751 q 232 446 232 533 l 286 444 q 390 448 328 444 q 525 463 451 451 q 524 558 524 508 q 525 688 524 608 q 533 903 526 767 q 551 941 536 926 q 588 956 567 956 q 629 939 614 956 q 644 901 644 922 l 644 897 q 635 546 635 713 l 635 489 l 663 497 q 683 501 674 501 q 710 494 694 501 q 733 465 726 488 q 738 443 738 454 q 731 417 738 433 q 701 393 724 401 q 639 374 671 382 q 645 261 642 315 q 653 153 649 207 l 658 75 q 644 38 658 54 q 607 19 631 22 l 603 19 q 565 34 581 19 q 547 71 549 49 l 542 144 l 529 351 q 436 341 481 344 q 361 335 392 338 l 294 333 q 232 335 263 333 q 229 163 231 231 q 225 51 228 94 q 208 13 224 28 q 169 -1 192 -1 z "},"A":{"ha":642,"x_min":24,"x_max":614,"o":"m 133 4 q 114 8 122 4 q 78 61 78 19 q 81 78 78 69 q 87 108 83 86 q 94 158 90 129 q 103 222 99 188 q 111 289 107 256 l 115 324 q 98 323 106 324 q 83 321 90 322 l 79 321 q 42 335 58 321 q 24 372 26 349 l 24 379 q 38 414 24 399 q 75 432 51 429 q 100 434 86 433 q 129 438 114 435 q 149 574 139 506 q 171 704 160 642 q 214 871 192 815 q 229 906 221 890 q 246 932 238 921 q 283 963 265 956 q 315 969 301 969 l 317 969 q 353 960 338 969 q 380 940 368 951 q 399 916 392 928 q 410 897 406 904 q 465 743 436 846 q 493 626 479 692 q 522 482 507 561 l 553 486 l 561 486 q 595 474 579 486 q 614 438 611 461 l 614 429 q 602 395 614 411 q 567 376 590 379 l 542 372 l 589 69 l 589 61 q 577 26 589 43 q 542 7 565 10 l 533 7 q 499 19 515 7 q 479 54 482 31 q 455 215 467 139 q 431 360 443 290 l 228 336 q 225 306 226 321 q 221 276 224 292 q 201 118 208 172 q 185 42 193 64 q 164 15 178 25 q 133 4 150 4 m 243 449 q 328 459 285 454 q 411 468 371 464 q 390 575 400 526 q 371 665 381 624 q 341 772 354 732 q 318 832 328 811 q 313 817 315 825 q 307 797 310 808 q 274 647 290 740 q 258 550 265 600 q 243 449 250 500 z "},"E":{"ha":657,"x_min":38,"x_max":631,"o":"m 400 3 l 332 3 q 258 4 288 3 q 208 7 228 6 q 177 10 189 8 q 158 15 165 13 q 113 58 129 26 q 104 78 108 67 q 96 111 100 90 q 88 163 92 132 q 81 238 85 193 q 72 401 75 308 q 38 453 38 417 q 47 483 38 469 q 71 503 56 496 q 72 628 71 567 q 75 742 72 689 q 79 814 76 786 q 85 858 82 842 q 90 882 88 875 q 93 892 92 889 q 142 940 106 926 q 213 960 178 954 q 365 968 271 968 q 440 966 404 968 q 505 963 476 964 q 551 959 533 961 q 571 957 569 957 q 608 939 594 954 q 621 906 621 924 l 621 897 q 603 860 618 874 q 568 847 588 847 l 561 847 l 547 849 q 508 851 532 850 q 452 854 483 853 q 388 856 421 856 l 343 856 q 246 851 283 856 q 194 843 208 847 q 191 805 193 832 q 186 725 189 778 q 183 624 183 678 q 182 514 182 569 l 219 517 l 500 533 q 535 519 519 533 q 553 482 551 506 l 553 475 q 539 440 553 456 q 501 422 525 425 l 226 406 l 183 403 q 192 236 186 306 q 201 156 196 183 q 210 118 206 129 q 322 114 239 114 l 399 114 q 463 115 432 114 q 518 117 494 117 q 557 119 542 118 l 572 119 l 576 119 q 613 105 597 119 q 631 67 629 90 l 631 63 q 616 26 631 42 q 578 8 601 11 l 563 8 q 523 6 547 7 q 467 4 499 6 q 400 3 435 3 z "},"F":{"ha":624,"x_min":35,"x_max":617,"o":"m 154 1 l 153 1 q 114 17 129 1 q 97 56 99 32 l 96 82 q 93 151 94 108 q 90 252 92 194 q 88 372 89 310 q 49 390 64 374 q 35 426 35 406 l 35 431 q 51 466 36 451 q 86 483 65 481 l 85 613 q 87 719 85 671 q 92 800 89 768 q 97 852 94 832 q 104 882 100 872 q 113 899 108 892 q 154 936 126 922 q 231 957 182 950 q 294 964 258 961 q 375 967 331 967 q 445 966 411 967 q 506 965 479 965 q 548 963 532 964 q 565 961 564 961 q 603 943 589 958 q 617 908 617 928 l 617 901 q 599 864 614 878 q 564 850 583 850 l 557 850 q 508 853 533 851 q 453 855 483 854 q 392 856 424 856 q 258 849 297 856 q 208 838 218 842 q 203 808 206 829 q 199 747 201 788 q 197 642 197 707 l 197 479 q 365 476 282 476 q 526 483 449 476 l 535 483 q 568 470 553 483 q 586 433 583 457 l 586 425 q 573 391 586 407 q 536 372 560 375 q 442 367 490 368 q 346 365 394 365 q 272 366 310 365 q 199 368 235 367 q 201 251 200 307 q 204 153 203 196 q 207 86 206 111 l 208 60 l 208 56 q 193 19 208 35 q 154 1 178 3 z "},"G":{"ha":771,"x_min":35,"x_max":749,"o":"m 404 3 q 244 50 321 3 q 157 124 196 79 q 90 225 118 168 q 35 479 35 338 l 35 504 q 138 838 43 711 q 236 927 181 894 q 356 967 292 960 l 379 968 q 457 956 417 968 q 536 917 497 944 q 643 747 618 856 l 644 735 q 634 703 644 719 q 600 682 624 686 l 586 681 q 556 690 572 681 q 535 724 539 700 q 508 788 526 761 q 467 830 490 814 q 418 853 444 846 q 382 857 400 857 q 226 771 290 857 q 146 476 146 664 q 158 367 146 419 q 192 270 169 315 q 243 194 214 225 q 303 144 272 163 q 406 114 353 114 q 543 211 496 114 q 563 266 556 236 q 575 331 571 296 q 550 329 563 329 q 524 329 538 329 q 454 331 490 329 q 379 336 418 332 q 343 355 356 339 q 331 389 331 371 q 351 436 331 418 q 383 447 365 447 l 392 447 q 517 440 457 440 q 578 442 533 440 q 689 447 624 443 l 693 447 q 730 433 714 447 q 749 396 746 419 l 749 392 q 734 355 749 371 q 696 336 719 339 l 688 336 q 663 210 681 263 q 620 122 644 158 q 570 65 596 86 q 524 32 544 43 q 404 3 469 3 z "},"I":{"ha":689,"x_min":36,"x_max":658,"o":"m 328 1 l 326 1 q 293 12 307 1 q 274 39 279 22 q 215 30 243 35 q 158 19 186 25 q 135 17 147 18 q 113 13 124 15 q 104 11 110 11 q 69 24 85 11 q 49 57 53 38 l 49 65 q 60 101 49 85 q 94 122 71 118 q 117 125 106 124 q 139 129 128 126 q 202 140 171 135 q 268 150 233 146 q 264 272 265 208 q 260 400 263 336 q 252 618 256 511 q 247 808 249 725 q 156 811 196 808 q 83 818 115 814 q 48 838 60 821 q 36 872 36 854 l 36 881 q 56 916 39 904 q 90 928 72 928 l 99 928 q 153 922 118 925 q 247 919 189 919 q 266 953 250 939 q 303 967 282 967 q 339 953 324 967 q 357 919 354 939 q 586 928 450 919 l 603 929 q 642 913 626 929 q 658 874 658 897 q 643 834 658 850 q 604 818 628 818 l 593 817 q 358 808 461 810 q 363 620 360 726 q 371 403 367 514 q 375 278 374 340 q 379 157 376 215 l 413 157 q 492 154 446 157 q 606 142 539 151 q 641 122 629 139 q 653 88 653 106 l 653 79 q 633 44 650 56 q 599 32 617 32 l 590 32 q 411 46 483 46 l 381 46 q 362 14 376 26 q 328 1 347 1 z "},"J":{"ha":765,"x_min":31,"x_max":750,"o":"m 288 1 q 273 1 281 1 q 257 4 265 1 q 167 46 208 13 q 94 135 125 79 q 47 260 63 189 q 31 414 32 331 q 47 453 31 438 q 86 469 63 469 q 126 454 110 469 q 142 415 142 439 q 154 292 142 346 q 185 200 167 239 q 228 139 204 161 q 276 113 251 117 l 288 111 q 348 140 318 111 q 400 228 378 168 q 422 399 422 288 q 420 478 422 426 q 408 617 418 529 q 379 803 397 706 q 241 796 308 800 q 115 789 174 792 l 113 789 q 74 803 90 789 q 57 840 58 818 l 57 844 q 71 881 57 865 q 108 900 85 897 l 358 913 q 372 947 360 932 q 403 965 383 961 l 415 967 q 447 956 431 967 q 468 922 463 946 l 469 918 l 694 931 q 731 916 715 931 q 750 878 747 901 l 750 874 q 735 837 750 853 q 697 819 721 821 l 492 808 q 516 655 504 739 q 532 488 528 571 l 533 417 q 529 308 533 369 q 504 189 525 247 q 404 42 469 94 q 288 1 349 1 z "},"K":{"ha":783,"x_min":39,"x_max":760,"o":"m 133 1 l 132 1 q 93 17 108 1 q 78 57 78 33 l 81 428 q 52 462 65 443 q 39 504 39 481 q 49 542 39 524 q 82 585 58 561 l 86 911 q 102 951 86 935 q 142 967 118 967 q 181 949 165 965 q 197 910 197 933 q 196 793 196 851 q 194 675 196 735 l 299 746 q 385 801 342 775 q 461 848 428 828 q 515 881 494 868 l 536 892 q 564 899 549 899 q 585 895 571 899 q 611 872 600 892 q 619 844 619 858 q 615 822 619 838 q 592 796 611 807 l 574 786 q 525 757 554 775 q 458 715 496 739 q 379 665 419 692 q 262 586 306 618 q 193 535 218 554 l 193 476 q 217 457 204 468 q 250 432 231 446 q 340 367 289 403 q 453 290 390 332 q 556 224 506 256 q 646 167 607 192 q 710 128 685 142 l 733 113 q 760 64 760 96 q 752 36 760 50 q 732 16 744 22 q 704 10 719 10 q 675 17 688 10 l 649 33 q 578 77 621 50 q 481 140 536 104 q 369 213 426 175 q 272 279 317 249 q 192 338 228 310 l 189 83 l 189 56 q 173 17 189 32 q 133 1 157 1 z "},"L":{"ha":638,"x_min":43,"x_max":632,"o":"m 353 -1 q 78 94 133 -1 q 54 169 63 122 q 43 292 46 215 l 43 350 q 44 431 43 381 q 50 563 44 481 q 60 694 54 631 q 69 806 65 757 q 78 886 74 856 l 81 915 q 99 951 83 939 q 133 964 115 964 l 142 964 q 178 945 165 961 q 190 911 190 929 l 190 903 l 188 874 q 179 795 183 843 q 170 684 175 747 q 161 554 165 621 q 154 353 154 431 q 158 231 154 275 q 166 171 161 188 q 174 151 171 154 q 188 138 176 147 q 236 121 200 128 q 298 112 264 114 q 374 110 332 110 q 445 115 411 111 q 507 121 479 118 l 567 129 l 575 129 q 611 118 594 129 q 632 83 628 107 l 632 75 q 621 40 632 57 q 586 19 610 24 q 567 16 585 19 q 520 10 549 13 q 455 3 492 7 q 378 0 418 0 q 365 -1 371 -1 q 353 -1 360 -1 z "},"M":{"ha":813,"x_min":47,"x_max":772,"o":"m 107 3 l 106 3 q 66 18 82 3 q 50 57 50 33 q 49 92 50 58 q 48 180 49 125 q 47 306 47 235 q 67 743 47 568 q 80 830 72 794 q 95 888 88 865 q 111 923 103 910 q 126 944 119 936 q 182 968 150 968 q 226 955 207 968 q 260 921 244 942 q 288 874 276 900 q 311 819 300 847 q 346 710 328 774 q 382 567 364 647 l 399 496 q 481 806 438 693 q 502 858 490 832 q 530 906 514 885 q 565 939 546 926 q 608 951 583 951 q 651 938 628 951 q 693 883 674 925 q 756 494 735 788 q 764 345 761 418 q 769 215 767 272 q 772 122 771 157 q 772 85 772 86 q 756 45 772 61 q 717 29 740 29 q 677 44 693 29 q 661 83 661 60 q 660 115 661 85 q 658 196 660 146 q 654 310 657 246 q 647 444 651 375 q 635 591 642 525 q 621 710 629 657 q 610 768 615 744 q 601 807 606 792 q 588 776 594 794 q 572 729 581 757 q 542 628 557 685 q 513 500 528 571 q 489 384 500 440 q 470 284 478 328 q 458 214 463 240 l 454 188 q 435 153 451 167 q 400 140 419 140 l 399 140 q 363 153 379 140 q 344 186 347 167 l 340 214 q 326 286 335 242 q 307 389 318 331 q 282 508 296 447 q 219 743 250 656 q 205 787 211 768 q 192 819 199 806 q 183 778 188 803 q 176 719 179 754 q 158 299 158 563 q 159 178 158 231 q 160 93 160 125 q 161 60 161 61 q 146 20 161 36 q 107 3 131 4 z "},"m":{"ha":838,"x_min":46,"x_max":797,"o":"m 129 1 l 128 1 q 90 17 106 3 q 74 54 75 32 l 46 628 q 60 665 46 649 q 99 682 75 681 l 103 682 q 140 667 124 682 q 157 629 156 653 l 160 557 l 161 561 q 178 605 169 586 q 197 639 188 624 q 239 680 217 671 q 276 689 261 689 q 313 680 292 689 q 356 643 333 671 q 393 569 375 614 q 419 492 407 536 q 444 390 432 447 q 472 490 458 446 q 500 568 486 535 q 542 642 522 615 q 624 689 579 689 q 648 685 633 689 q 681 667 663 682 q 705 637 692 656 q 731 581 718 618 q 755 483 743 543 q 778 332 767 424 q 788 239 783 283 q 794 160 792 194 q 797 105 796 126 q 797 82 797 83 l 797 78 q 783 41 797 57 q 744 24 768 25 l 740 24 q 703 38 719 24 q 686 76 688 53 l 686 97 q 683 151 685 118 q 677 228 681 185 q 668 317 674 271 q 642 481 656 425 q 619 560 629 536 q 588 484 608 538 q 542 324 568 431 q 523 235 531 278 q 508 158 515 192 l 496 86 q 477 52 493 65 q 440 39 461 39 q 404 53 419 39 q 386 86 389 67 l 383 107 q 375 159 381 126 q 363 234 369 192 q 346 322 356 276 q 307 478 325 425 q 278 556 289 532 q 268 528 274 544 q 256 489 263 513 q 235 407 244 453 q 217 304 226 361 q 202 210 208 256 q 192 130 196 165 q 186 74 188 94 l 183 51 q 165 16 181 31 q 129 1 150 1 z "},"p":{"ha":628,"x_min":50,"x_max":622,"o":"m 132 -346 l 129 -346 q 92 -331 107 -346 q 74 -293 76 -317 q 50 418 50 160 q 53 642 50 529 q 70 681 54 665 q 107 696 86 696 q 149 680 133 696 q 164 643 164 664 l 164 636 q 238 639 201 639 q 417 613 339 639 q 581 490 528 574 q 622 350 622 428 q 611 277 622 314 q 581 207 600 240 q 406 58 522 108 q 169 14 301 14 q 176 -140 172 -65 q 185 -287 181 -215 l 185 -292 q 170 -328 185 -312 q 132 -346 156 -344 m 181 125 q 365 160 283 125 q 486 264 446 196 q 510 349 510 306 q 488 429 511 393 q 381 507 454 481 q 240 529 319 529 q 161 524 203 529 l 161 422 q 162 297 161 372 q 165 125 163 222 l 181 125 z "},"w":{"ha":881,"x_min":47,"x_max":835,"o":"m 221 3 q 61 246 100 3 q 47 451 47 331 q 78 678 47 654 q 110 689 92 689 l 118 689 q 154 670 142 686 q 167 636 167 654 l 167 628 q 157 457 157 532 q 160 367 157 426 q 172 254 163 307 q 185 194 178 222 q 201 147 192 167 l 221 115 q 244 147 228 122 q 279 232 260 171 q 321 402 303 303 q 350 625 339 501 q 367 660 353 646 q 403 675 382 675 l 407 675 q 441 663 425 675 q 460 629 457 650 q 522 352 490 453 q 578 204 554 251 q 647 115 621 115 q 656 120 650 115 q 671 139 661 125 q 688 176 678 151 q 707 242 697 200 q 723 416 722 318 q 708 622 724 514 l 708 629 q 720 665 708 647 q 756 685 732 682 l 764 685 q 799 673 782 685 q 818 638 815 661 q 834 413 835 519 q 815 218 833 306 q 765 81 796 132 q 713 24 740 40 q 665 6 685 8 l 651 4 q 613 9 636 4 q 557 43 589 14 q 478 156 514 81 q 446 228 461 189 q 417 315 431 268 q 402 255 410 283 q 386 200 394 226 q 221 3 322 3 z "},"N":{"ha":689,"x_min":46,"x_max":643,"o":"m 563 3 l 554 3 q 530 8 543 3 q 501 29 517 14 q 490 44 494 36 q 478 63 485 51 q 454 104 467 79 q 426 161 442 129 q 366 295 399 219 q 300 450 333 371 q 238 594 268 522 q 181 724 208 665 q 169 747 174 736 q 160 768 164 758 q 158 748 158 758 q 158 725 158 738 q 157 646 157 689 q 157 578 157 625 q 160 446 157 531 q 164 306 161 374 q 169 185 167 238 q 172 100 171 132 l 174 68 l 174 61 q 160 26 174 42 q 122 10 146 11 l 115 10 q 81 24 96 10 q 64 61 65 38 q 62 97 64 63 q 58 188 60 132 q 52 317 56 244 q 47 465 49 389 l 46 628 q 47 756 46 700 q 52 838 49 806 q 60 892 56 871 q 72 926 65 914 q 86 947 78 939 q 132 968 107 968 q 181 947 163 968 q 214 903 200 926 q 269 797 235 868 q 333 655 299 735 q 401 493 367 575 q 460 358 431 425 q 514 235 489 290 l 526 208 q 528 225 528 217 q 528 243 528 233 q 531 367 531 297 q 531 524 532 438 q 528 664 529 596 q 525 785 526 732 q 522 871 524 838 l 521 903 l 521 907 q 535 944 521 928 q 574 961 550 960 l 578 961 q 615 946 599 961 q 631 907 631 931 l 633 871 q 636 774 635 833 q 640 639 638 714 q 642 485 642 564 l 643 397 q 642 299 643 356 q 638 190 640 243 q 632 131 635 157 q 626 86 629 106 q 621 64 624 74 q 615 47 618 54 q 589 13 604 21 q 563 3 574 4 z "},"O":{"ha":824,"x_min":40,"x_max":785,"o":"m 404 1 q 153 108 251 1 q 64 275 92 175 q 40 446 40 354 l 42 490 q 76 663 49 581 q 150 810 104 744 q 268 921 200 881 q 431 965 344 965 q 653 872 563 965 q 754 696 719 803 q 785 493 785 600 l 785 467 q 756 295 781 375 q 689 153 732 215 q 404 1 581 1 m 404 111 q 520 142 471 111 q 603 224 569 174 q 653 338 636 274 q 674 469 671 403 l 674 489 q 648 660 674 578 q 574 794 622 743 q 432 856 515 856 q 319 822 369 854 q 234 737 269 789 q 178 618 199 685 q 153 482 157 551 l 151 439 q 171 301 151 371 q 235 183 190 232 q 397 113 297 114 l 404 111 z "},"P":{"ha":664,"x_min":35,"x_max":647,"o":"m 178 3 q 138 19 154 3 q 122 58 122 35 l 122 365 q 123 558 122 442 q 133 844 124 674 q 119 841 126 842 q 104 838 111 840 q 89 835 96 835 q 59 844 75 835 q 36 876 43 854 l 35 892 q 44 922 35 907 q 76 944 53 938 q 244 968 164 968 q 370 952 310 968 q 481 906 431 936 q 568 831 532 875 q 647 618 647 738 q 619 493 647 554 q 469 338 574 394 q 233 275 372 283 l 233 58 q 217 19 233 35 q 178 3 201 3 m 232 386 q 415 433 340 393 q 519 539 489 472 q 536 618 536 578 q 530 672 536 635 q 483 758 524 710 q 382 832 443 807 q 246 857 321 857 q 235 615 238 731 q 232 386 233 499 z "},"Q":{"ha":769,"x_min":36,"x_max":731,"o":"m 649 -1 q 611 12 626 -1 q 582 38 596 25 q 554 64 568 50 l 540 54 q 378 4 467 8 q 157 93 242 4 q 60 271 90 161 q 36 454 36 357 l 36 483 q 63 657 39 575 q 126 804 86 739 q 235 918 171 876 q 388 964 303 964 q 542 918 468 964 q 647 808 604 879 q 708 666 686 746 q 731 499 729 586 l 731 476 q 711 317 731 396 q 651 172 692 239 q 642 158 647 165 q 632 143 638 150 l 685 96 q 704 54 704 79 q 689 16 704 33 q 649 -1 674 -1 m 374 115 q 469 142 425 117 q 395 220 432 179 q 322 310 358 261 q 311 342 311 325 q 313 360 311 346 q 333 388 315 374 q 368 399 350 399 q 384 397 371 399 q 411 376 397 394 q 478 294 444 332 q 550 219 513 256 q 619 485 619 326 l 619 496 q 601 635 618 568 q 553 750 585 701 q 390 853 490 850 q 219 744 288 853 q 168 624 188 693 q 146 479 149 554 l 146 458 q 168 295 146 372 q 236 171 190 218 q 367 115 289 115 l 374 115 z "},"R":{"ha":753,"x_min":33,"x_max":722,"o":"m 207 1 l 204 1 q 166 17 182 1 q 149 54 150 32 q 140 237 143 146 q 135 424 136 328 l 135 488 q 137 638 135 553 q 146 839 139 722 l 106 828 q 89 825 97 825 q 60 834 76 825 q 36 865 43 843 q 33 882 33 874 q 42 912 33 896 q 74 935 50 928 q 275 968 181 968 q 581 850 469 968 q 656 671 656 769 q 640 585 656 626 q 500 431 604 490 q 549 351 522 393 q 602 268 575 310 q 657 186 629 226 q 711 111 685 146 q 722 78 722 96 q 721 61 722 75 q 700 33 719 47 q 667 22 685 22 q 622 44 639 22 q 564 125 593 82 q 506 213 535 168 q 449 302 476 258 q 399 385 422 346 q 326 366 364 374 q 247 353 289 358 q 260 61 249 207 l 260 57 q 245 20 260 36 q 207 1 231 4 m 246 464 q 443 525 365 481 q 546 671 546 586 q 539 713 546 686 q 500 774 532 740 q 271 856 422 856 l 258 856 q 249 651 251 747 q 246 464 246 554 z "},"T":{"ha":739,"x_min":18,"x_max":724,"o":"m 347 3 l 346 3 q 307 20 322 4 q 292 60 292 36 l 293 76 q 308 663 308 469 l 307 811 q 182 818 242 814 q 69 828 122 822 q 32 847 46 831 q 18 881 18 863 l 18 888 q 37 925 21 911 q 72 939 53 939 l 79 939 q 307 922 181 929 q 325 954 310 942 q 360 968 340 967 q 397 954 381 968 q 417 919 414 940 q 538 922 476 919 q 663 931 600 924 l 671 931 q 705 918 689 931 q 724 882 721 906 l 724 874 q 710 840 724 856 q 674 821 697 824 q 418 808 550 808 l 419 660 q 415 401 419 549 q 404 72 411 254 l 403 56 q 387 18 403 33 q 347 3 371 3 z "},"U":{"ha":690,"x_min":39,"x_max":653,"o":"m 333 1 q 203 47 263 1 q 103 173 143 93 q 49 358 64 253 q 39 500 39 425 q 43 603 39 550 q 63 751 50 675 q 100 907 76 828 q 150 949 110 949 q 168 946 158 949 q 208 892 208 933 l 207 878 q 150 496 150 675 q 158 374 150 432 q 200 229 171 290 q 269 138 229 168 q 336 111 303 111 q 386 129 360 111 q 463 213 429 154 q 515 356 496 272 q 542 603 542 464 q 517 903 542 742 l 515 914 q 527 947 515 931 q 563 967 539 963 l 571 967 q 606 955 589 967 q 626 921 622 943 q 647 747 640 831 q 653 588 653 664 q 624 331 650 444 q 443 33 574 111 q 333 1 390 1 z "},"V":{"ha":664,"x_min":31,"x_max":639,"o":"m 300 -1 l 293 0 q 261 10 275 1 q 237 29 247 18 q 219 51 226 40 q 210 67 213 61 q 188 113 199 86 q 165 174 176 139 q 131 301 149 228 q 96 468 114 375 q 69 621 81 546 q 49 755 57 696 q 35 850 40 814 q 31 888 31 886 l 31 896 q 43 930 31 914 q 79 949 56 946 l 88 949 q 122 936 106 949 q 142 900 139 924 l 146 868 q 157 782 150 835 q 175 661 164 729 q 199 521 186 593 q 260 246 229 356 q 284 171 274 199 q 301 128 294 143 q 324 172 311 143 q 354 249 336 200 q 394 372 374 301 q 439 531 415 443 q 474 674 458 604 q 503 799 490 744 q 522 886 515 853 l 529 919 q 553 956 533 943 q 583 965 567 965 l 594 964 q 639 908 639 953 l 638 897 l 631 860 q 608 760 622 821 q 576 622 594 699 q 536 464 557 544 q 389 57 451 153 q 300 -1 349 -1 z "},"W":{"ha":892,"x_min":42,"x_max":844,"o":"m 217 -1 l 211 -1 q 185 7 200 0 q 156 33 169 14 q 146 51 150 42 q 136 74 142 61 q 124 119 129 93 q 111 179 118 144 q 92 309 101 235 q 74 478 82 383 q 60 633 65 557 q 50 770 54 710 q 44 867 46 831 q 42 906 42 904 l 42 913 q 56 947 42 932 q 93 964 69 963 l 97 964 q 134 949 118 964 q 151 911 150 935 l 154 879 q 159 792 156 846 q 168 670 163 739 q 181 528 174 601 q 196 372 188 442 q 213 246 204 301 l 226 168 l 247 224 q 282 326 264 268 q 321 456 300 385 q 353 574 338 517 q 379 675 368 631 q 397 747 390 719 l 403 774 q 424 805 408 793 q 456 817 439 817 l 460 817 q 495 801 481 815 q 513 768 510 788 l 517 740 q 526 667 519 713 q 544 565 533 622 q 567 446 554 507 q 598 318 582 375 q 631 217 614 261 q 658 153 646 175 q 678 124 671 132 q 693 164 685 135 q 710 250 701 193 q 722 372 717 303 q 731 526 728 442 q 733 667 733 599 q 733 788 733 735 q 732 874 732 840 l 731 906 l 731 910 q 745 947 731 931 q 783 964 760 963 l 788 964 q 824 949 808 964 q 842 910 840 933 l 843 878 q 844 791 843 844 q 844 668 844 738 q 842 525 844 599 q 828 298 838 388 q 805 153 818 208 q 776 72 792 99 q 747 31 761 44 q 709 7 728 11 q 676 3 690 3 q 627 19 649 4 q 589 56 606 35 q 559 103 572 78 q 536 151 546 128 q 499 260 517 197 q 464 401 481 322 l 444 490 l 417 390 q 374 249 393 311 q 336 142 354 188 q 294 54 313 85 q 284 40 290 49 q 268 22 278 31 q 246 6 258 13 q 217 -1 233 -1 z "},"X":{"ha":722,"x_min":42,"x_max":683,"o":"m 97 0 q 65 10 79 0 q 42 56 42 26 q 53 88 42 72 q 180 278 118 179 q 303 482 242 378 q 188 681 242 581 q 89 889 133 781 q 85 910 85 900 q 91 936 85 921 q 118 961 97 951 q 139 965 129 965 q 166 959 150 965 q 190 931 182 953 q 272 758 228 840 q 365 592 317 675 q 544 921 458 756 q 594 950 561 950 q 619 943 607 950 q 650 894 650 926 q 643 868 650 881 q 540 676 592 772 q 432 483 488 579 l 510 360 q 592 231 550 297 q 676 93 633 165 q 683 65 683 81 q 680 44 683 58 q 657 18 676 29 q 629 10 644 10 q 582 36 597 10 q 498 172 539 107 q 417 300 457 238 q 392 338 404 319 q 369 375 381 356 q 258 195 315 283 q 143 24 201 107 q 97 0 126 0 z "},"Y":{"ha":632,"x_min":24,"x_max":610,"o":"m 311 3 q 271 19 286 3 q 256 56 256 35 l 256 60 q 258 151 257 110 q 258 233 258 193 q 256 316 258 274 q 253 410 254 358 q 239 418 246 414 q 225 429 232 422 q 93 661 156 483 q 65 746 78 704 q 44 820 53 788 q 30 873 35 853 q 25 896 25 893 l 24 910 q 34 940 24 924 q 67 961 44 957 l 81 963 q 112 952 96 963 q 133 919 128 942 l 138 900 q 150 851 142 881 q 169 782 158 821 q 196 703 181 743 q 261 557 226 614 q 294 515 282 524 q 307 507 306 507 q 317 513 308 507 q 341 538 325 518 q 378 598 357 558 q 428 707 400 638 q 457 788 444 749 q 479 857 469 826 q 494 907 489 888 l 500 926 q 525 961 506 949 q 550 968 538 968 q 567 965 558 968 q 610 915 610 956 q 607 899 610 907 q 601 875 607 896 q 585 822 596 854 q 561 747 575 789 q 529 661 547 704 q 389 428 463 490 q 376 419 382 424 q 364 411 371 414 q 367 316 365 358 q 369 233 368 274 q 369 149 369 192 q 367 56 368 107 q 350 18 365 33 q 311 3 335 3 z "},"Z":{"ha":715,"x_min":38,"x_max":681,"o":"m 260 1 q 216 2 236 1 q 178 4 196 3 q 135 10 157 6 q 95 21 114 14 q 62 40 76 28 q 42 71 47 51 q 38 94 38 82 q 38 108 38 99 q 49 140 39 118 q 76 190 58 161 q 122 260 94 219 q 210 377 161 313 q 311 507 260 442 q 404 627 358 568 q 488 738 450 686 l 547 825 l 560 849 q 461 857 524 857 q 353 851 418 857 q 280 845 315 849 q 217 839 244 842 q 174 835 190 836 l 157 832 l 146 831 q 113 843 129 831 q 94 879 97 856 l 94 886 q 106 922 94 904 q 142 942 118 939 q 161 944 143 942 q 208 949 179 946 q 274 956 236 953 q 351 963 311 960 q 460 967 414 967 q 502 966 471 967 q 567 960 533 965 q 619 946 600 954 q 649 929 638 938 q 681 868 681 906 q 669 820 681 849 q 626 743 658 792 q 539 621 594 694 q 399 439 483 547 q 308 322 353 381 q 228 215 264 264 q 185 156 201 179 q 163 118 169 133 q 276 113 206 113 q 382 117 319 113 q 462 122 424 119 q 529 128 500 125 q 576 133 558 131 l 594 135 l 603 135 q 638 122 621 135 q 657 86 654 110 l 657 78 q 644 44 657 60 q 608 25 631 28 q 584 22 606 25 q 528 17 563 19 q 449 10 493 14 q 358 4 406 6 l 260 1 z "},"ı":{"ha":239,"x_min":35,"x_max":200,"o":"m 144 1 q 94 34 110 1 q 66 109 78 67 q 48 197 54 151 q 38 288 42 243 q 35 374 35 333 l 35 418 q 35 473 35 440 q 39 543 36 506 q 46 610 42 581 q 57 658 50 640 q 108 697 69 697 q 126 694 117 697 q 165 642 165 682 q 163 624 165 633 q 149 538 156 604 q 143 428 143 490 l 144 376 q 160 200 147 276 q 194 81 172 124 q 200 57 200 69 q 194 33 200 49 q 168 7 189 18 q 144 1 158 1 z "},"b":{"ha":719,"x_min":35,"x_max":708,"o":"m 279 0 q 76 28 188 0 q 43 54 54 35 q 35 82 35 68 l 36 96 q 90 138 49 138 l 104 136 l 126 131 l 135 319 q 151 721 151 592 q 139 982 151 853 l 139 989 q 152 1024 139 1008 q 189 1042 165 1039 l 197 1042 q 231 1028 215 1042 q 249 992 246 1015 q 260 767 260 879 q 257 543 261 656 q 453 585 364 585 q 646 508 575 585 q 708 347 708 442 q 698 270 708 310 q 664 192 688 231 q 627 140 649 164 q 579 94 606 115 q 519 55 551 72 q 450 26 486 38 q 367 7 410 14 q 279 0 325 0 m 283 113 q 415 132 356 113 q 517 186 482 153 q 569 247 553 219 q 598 349 599 297 q 565 433 597 400 q 450 475 525 475 q 401 473 444 475 q 251 419 357 471 q 249 367 250 393 q 246 314 249 340 l 236 114 l 283 113 z "},"c":{"ha":593,"x_min":32,"x_max":551,"o":"m 374 3 q 101 128 199 3 q 32 335 32 218 q 41 420 32 375 q 75 510 50 465 q 228 651 128 603 q 411 690 310 690 q 479 686 444 690 q 515 667 501 683 q 528 633 528 651 l 528 625 q 509 590 525 603 q 474 576 493 576 l 467 576 q 413 579 439 579 q 277 553 343 579 q 172 456 211 526 q 143 339 143 401 q 144 309 143 331 q 156 255 144 288 q 189 196 168 222 q 374 114 254 114 q 481 129 424 114 l 496 131 q 527 122 511 131 q 549 90 543 113 q 551 72 551 81 q 542 44 551 60 q 510 22 532 28 q 374 3 436 3 z "},"f":{"ha":610,"x_min":22,"x_max":599,"o":"m 186 1 l 183 1 q 145 20 160 4 q 131 57 131 36 l 131 61 q 138 237 138 154 q 136 394 139 319 q 103 397 119 396 q 71 400 88 397 q 35 419 47 403 q 22 453 22 435 l 22 461 q 41 497 25 485 q 75 510 57 510 l 132 506 l 132 507 q 128 679 128 601 q 128 755 128 700 q 156 876 128 810 q 199 953 172 919 q 257 1008 225 986 q 367 1043 311 1043 q 535 958 468 1043 q 599 781 590 888 l 599 776 q 585 740 599 756 q 547 721 571 724 l 543 721 q 506 735 521 721 q 488 772 490 750 q 454 881 482 839 q 383 931 426 924 l 368 932 q 308 908 339 932 q 258 835 278 885 q 239 660 239 783 q 242 513 239 594 q 243 503 243 510 q 429 511 328 504 l 519 517 q 556 502 540 517 q 574 464 572 488 l 574 460 q 559 423 574 439 q 521 406 544 407 q 478 403 499 404 q 436 400 457 403 l 247 392 q 249 232 250 317 q 242 53 249 147 q 224 16 240 31 q 186 1 208 1 z "},"j":{"ha":288,"x_min":11,"x_max":257,"o":"m 83 -349 q 71 -349 76 -349 q 58 -347 65 -349 q 23 -328 35 -344 q 11 -293 11 -311 q 32 -247 11 -264 q 64 -237 46 -237 l 82 -237 q 95 -236 90 -237 q 101 -233 100 -235 q 115 -208 107 -228 q 126 -135 122 -187 q 128 -65 128 -103 l 122 108 q 115 414 115 311 q 143 690 115 664 q 176 703 157 703 l 183 703 q 221 686 207 701 q 235 651 235 671 l 235 644 q 226 413 226 522 q 228 304 226 385 q 233 113 229 224 l 239 -26 l 239 -57 q 236 -142 239 -103 q 222 -234 233 -186 q 176 -314 211 -282 q 83 -349 140 -349 m 172 790 q 111 817 136 790 q 86 881 86 843 q 111 944 86 918 q 172 971 136 971 q 233 944 208 971 q 257 881 257 918 q 233 817 257 843 q 172 790 208 790 z "},"k":{"ha":732,"x_min":35,"x_max":719,"o":"m 168 1 q 128 19 144 3 q 113 58 113 35 q 113 172 113 115 q 115 285 114 228 l 115 365 q 35 482 35 435 l 35 489 q 59 536 38 517 q 117 574 81 556 q 114 776 117 674 q 104 985 111 878 l 104 989 q 119 1026 104 1010 q 157 1043 133 1042 l 164 1043 q 199 1029 183 1043 q 215 992 214 1015 q 224 803 222 896 q 228 618 226 710 l 342 656 q 439 684 392 671 q 524 708 486 697 q 585 724 561 718 l 607 729 l 622 731 q 653 721 638 731 q 675 689 668 711 l 676 674 q 667 644 676 660 q 633 621 657 628 l 561 603 q 487 583 529 594 q 400 557 444 571 q 299 525 342 539 q 228 500 257 511 l 228 417 q 305 357 261 389 q 399 290 349 325 q 490 228 446 257 q 571 178 535 200 q 633 141 607 156 q 669 121 658 126 q 703 106 692 118 q 719 67 719 89 q 703 26 719 43 q 688 16 699 22 q 663 10 678 10 q 619 21 642 10 q 561 53 597 32 q 481 103 525 75 q 388 165 436 132 q 293 229 339 197 l 226 278 q 224 168 225 224 q 224 57 224 113 q 208 17 224 33 q 168 1 192 1 z "},"x":{"ha":593,"x_min":43,"x_max":551,"o":"m 496 6 q 467 15 481 6 q 446 39 453 24 q 383 159 418 101 q 308 275 349 217 q 226 161 268 219 q 144 39 185 103 q 97 14 126 14 q 68 24 79 14 q 43 72 43 40 q 51 100 43 86 q 242 371 146 244 l 172 465 q 120 535 146 500 q 69 606 94 569 q 58 638 58 621 q 60 656 58 642 q 82 683 63 669 q 114 694 97 694 q 132 692 118 694 q 160 669 146 689 q 209 600 183 635 q 261 532 235 565 l 311 464 l 315 471 l 451 654 q 493 678 467 678 q 529 665 511 678 q 551 631 547 653 l 551 624 q 540 589 551 606 q 472 495 507 542 q 404 404 438 449 q 392 388 397 396 q 379 369 386 379 q 469 231 426 301 q 546 85 513 160 q 551 61 551 72 q 546 36 551 51 q 518 11 540 21 q 496 6 504 6 z "},"y":{"ha":626,"x_min":32,"x_max":608,"o":"m 214 -349 q 194 -346 206 -349 q 158 -292 158 -332 q 161 -274 158 -283 q 216 -135 189 -201 q 271 -4 243 -68 l 300 67 q 242 197 271 138 q 181 315 213 256 q 112 451 147 381 q 36 615 76 521 q 32 638 32 626 q 38 664 32 649 q 65 689 44 679 q 88 693 76 693 q 114 687 99 693 q 139 660 129 681 q 213 499 178 568 q 279 367 247 431 q 319 290 300 328 q 358 211 339 251 q 430 409 394 303 q 499 649 465 515 q 553 690 511 690 l 567 689 q 608 635 608 676 l 607 621 q 549 419 578 511 q 490 247 519 328 q 431 94 461 167 q 372 -47 401 22 q 318 -178 344 -114 q 265 -312 292 -242 q 244 -339 258 -329 q 214 -349 231 -349 z "},"¨":{"ha":313,"x_min":40,"x_max":274,"o":"m 92 765 l 89 765 q 55 779 69 765 q 40 814 40 793 l 40 817 q 54 851 40 836 q 89 865 68 865 l 93 865 q 125 851 111 865 q 139 817 139 838 l 139 813 q 126 781 139 794 q 92 765 113 767 m 226 769 l 224 769 q 190 783 204 769 q 175 818 175 797 l 175 821 q 189 855 175 840 q 224 869 203 869 l 228 869 q 260 856 246 869 q 274 821 274 842 l 274 817 q 260 785 274 799 q 226 769 247 771 z "},"˙":{"ha":161,"x_min":32,"x_max":131,"o":"m 83 769 l 81 769 q 47 783 61 769 q 32 818 32 797 l 32 821 q 46 855 32 840 q 81 869 60 869 l 85 869 q 117 856 103 869 q 131 821 131 842 l 131 817 q 117 785 131 799 q 83 769 104 771 z "},"Ä":{"ha":647,"x_min":24,"x_max":614,"o":"m 133 4 q 114 8 122 4 q 78 61 78 19 q 81 78 78 69 q 87 108 83 86 q 94 158 90 129 q 103 222 99 188 q 111 289 107 256 l 115 324 q 98 323 106 324 q 83 321 90 322 l 79 321 q 42 335 58 321 q 24 372 26 349 l 24 379 q 38 414 24 399 q 75 432 51 429 q 100 434 86 433 q 129 438 114 435 q 149 574 139 506 q 171 704 160 642 q 214 871 192 815 q 229 906 221 890 q 246 932 238 921 q 283 963 265 956 q 315 969 301 969 l 317 969 q 353 960 338 969 q 380 940 368 951 q 399 916 392 928 q 410 897 406 904 q 465 743 436 846 q 493 626 479 692 q 522 482 507 561 l 553 486 l 561 486 q 595 474 579 486 q 614 438 611 461 l 614 429 q 602 395 614 411 q 567 376 590 379 l 542 372 l 589 69 l 589 61 q 577 26 589 43 q 542 7 565 10 l 533 7 q 499 19 515 7 q 479 54 482 31 q 455 215 467 139 q 431 360 443 290 l 228 336 q 225 306 226 321 q 221 276 224 292 q 201 118 208 172 q 185 42 193 64 q 164 15 178 25 q 133 4 150 4 m 243 449 q 328 459 285 454 q 411 468 371 464 q 390 575 400 526 q 371 665 381 624 q 341 772 354 732 q 318 832 328 811 q 313 817 315 825 q 307 797 310 808 q 274 647 290 740 q 258 550 265 600 q 243 449 250 500 m 258 1043 l 256 1043 q 222 1057 236 1043 q 207 1092 207 1071 l 207 1094 q 221 1128 207 1114 q 256 1143 235 1143 l 260 1143 q 292 1129 278 1143 q 306 1094 306 1115 l 306 1090 q 292 1058 306 1072 q 258 1043 279 1044 m 393 1047 l 390 1047 q 356 1061 371 1047 q 342 1096 342 1075 l 342 1099 q 356 1133 342 1118 q 390 1147 369 1147 l 394 1147 q 426 1133 413 1147 q 440 1099 440 1119 l 440 1094 q 427 1063 440 1076 q 393 1047 414 1049 z "},"Ë":{"ha":663,"x_min":38,"x_max":631,"o":"m 400 3 l 332 3 q 258 4 288 3 q 208 7 228 6 q 177 10 189 8 q 158 15 165 13 q 113 58 129 26 q 104 78 108 67 q 96 111 100 90 q 88 163 92 132 q 81 238 85 193 q 72 401 75 308 q 38 453 38 417 q 47 483 38 469 q 71 503 56 496 q 72 628 71 567 q 75 742 72 689 q 79 814 76 786 q 85 858 82 842 q 90 882 88 875 q 93 892 92 889 q 142 940 106 926 q 213 960 178 954 q 365 968 271 968 q 440 966 404 968 q 505 963 476 964 q 551 959 533 961 q 571 957 569 957 q 608 939 594 954 q 621 906 621 924 l 621 897 q 603 860 618 874 q 568 847 588 847 l 561 847 l 547 849 q 508 851 532 850 q 452 854 483 853 q 388 856 421 856 l 343 856 q 246 851 283 856 q 194 843 208 847 q 191 805 193 832 q 186 725 189 778 q 183 624 183 678 q 182 514 182 569 l 219 517 l 500 533 q 535 519 519 533 q 553 482 551 506 l 553 475 q 539 440 553 456 q 501 422 525 425 l 226 406 l 183 403 q 192 236 186 306 q 201 156 196 183 q 210 118 206 129 q 322 114 239 114 l 399 114 q 463 115 432 114 q 518 117 494 117 q 557 119 542 118 l 572 119 l 576 119 q 613 105 597 119 q 631 67 629 90 l 631 63 q 616 26 631 42 q 578 8 601 11 l 563 8 q 523 6 547 7 q 467 4 499 6 q 400 3 435 3 m 404 1047 l 401 1047 q 367 1061 382 1047 q 353 1096 353 1075 l 353 1099 q 367 1133 353 1118 q 401 1147 381 1147 l 406 1147 q 438 1133 424 1147 q 451 1099 451 1119 l 451 1094 q 438 1063 451 1076 q 404 1047 425 1049 m 269 1043 l 267 1043 q 233 1057 247 1043 q 218 1092 218 1071 l 218 1094 q 232 1128 218 1114 q 267 1143 246 1143 l 271 1143 q 303 1129 289 1143 q 317 1094 317 1115 l 317 1090 q 303 1058 317 1072 q 269 1043 290 1044 z "},"Ï":{"ha":697,"x_min":36,"x_max":658,"o":"m 328 1 l 326 1 q 293 12 307 1 q 274 39 279 22 q 215 30 243 35 q 158 19 186 25 q 135 17 147 18 q 113 13 124 15 q 104 11 110 11 q 69 24 85 11 q 49 57 53 38 l 49 65 q 60 101 49 85 q 94 122 71 118 q 117 125 106 124 q 139 129 128 126 q 202 140 171 135 q 268 150 233 146 q 264 272 265 208 q 260 400 263 336 q 252 618 256 511 q 247 808 249 725 q 156 811 196 808 q 83 818 115 814 q 48 838 60 821 q 36 872 36 854 l 36 881 q 56 916 39 904 q 90 928 72 928 l 99 928 q 153 922 118 925 q 247 919 189 919 q 266 953 250 939 q 303 967 282 967 q 339 953 324 967 q 357 919 354 939 q 586 928 450 919 l 603 929 q 642 913 626 929 q 658 874 658 897 q 643 834 658 850 q 604 818 628 818 l 603 818 q 593 817 600 817 q 358 808 461 810 q 363 620 360 726 q 371 403 367 514 q 375 278 374 340 q 379 157 376 215 l 413 157 q 492 154 446 157 q 606 142 539 151 q 641 122 629 139 q 653 88 653 106 l 653 79 q 633 44 650 56 q 599 32 617 32 l 590 32 q 411 46 483 46 l 381 46 q 362 14 376 26 q 328 1 347 1 m 392 1047 l 389 1047 q 355 1061 369 1047 q 340 1096 340 1075 l 340 1099 q 354 1133 340 1118 q 389 1147 368 1147 l 393 1147 q 425 1133 411 1147 q 439 1099 439 1119 l 439 1094 q 426 1063 439 1076 q 392 1047 413 1049 m 257 1043 l 254 1043 q 220 1057 235 1043 q 206 1092 206 1071 l 206 1094 q 219 1128 206 1114 q 254 1143 233 1143 l 258 1143 q 290 1129 276 1143 q 304 1094 304 1115 l 304 1090 q 291 1058 304 1072 q 257 1043 278 1044 z "},"Ö":{"ha":831,"x_min":40,"x_max":785,"o":"m 404 1 q 153 108 251 1 q 64 275 92 175 q 40 446 40 354 l 42 490 q 76 663 49 581 q 150 810 104 744 q 268 921 200 881 q 431 965 344 965 q 653 872 563 965 q 754 696 719 803 q 785 493 785 600 l 785 467 q 756 295 781 375 q 689 153 732 215 q 404 1 581 1 m 404 111 q 520 142 471 111 q 603 224 569 174 q 653 338 636 274 q 674 469 671 403 l 674 489 q 648 660 674 578 q 574 794 622 743 q 432 856 515 856 q 319 822 369 854 q 234 737 269 789 q 178 618 199 685 q 153 482 157 551 l 151 439 q 171 301 151 371 q 235 183 190 232 q 397 113 297 114 l 404 111 m 350 1043 l 347 1043 q 313 1057 328 1043 q 299 1092 299 1071 l 299 1094 q 313 1128 299 1114 q 347 1143 326 1143 l 351 1143 q 383 1129 369 1143 q 397 1094 397 1115 l 397 1090 q 384 1058 397 1072 q 350 1043 371 1044 m 485 1047 l 482 1047 q 448 1061 463 1047 q 433 1096 433 1075 l 433 1099 q 447 1133 433 1118 q 482 1147 461 1147 l 486 1147 q 518 1133 504 1147 q 532 1099 532 1119 l 532 1094 q 519 1063 532 1076 q 485 1047 506 1049 z "},"Ü":{"ha":699,"x_min":39,"x_max":653,"o":"m 333 1 q 203 47 263 1 q 103 173 143 93 q 49 358 64 253 q 39 500 39 425 q 43 603 39 550 q 63 751 50 675 q 100 907 76 828 q 150 949 110 949 q 168 946 158 949 q 208 892 208 933 l 207 878 q 150 496 150 675 q 158 374 150 432 q 200 229 171 290 q 269 138 229 168 q 336 111 303 111 q 386 129 360 111 q 463 213 429 154 q 515 356 496 272 q 542 603 542 464 q 517 903 542 742 l 515 914 q 527 947 515 931 q 563 967 539 963 l 571 967 q 606 955 589 967 q 626 921 622 943 q 647 747 640 831 q 653 588 653 664 q 624 331 650 444 q 443 33 574 111 q 333 1 390 1 m 299 1043 l 296 1043 q 262 1057 276 1043 q 247 1092 247 1071 l 247 1094 q 261 1128 247 1114 q 296 1143 275 1143 l 300 1143 q 332 1129 318 1143 q 346 1094 346 1115 l 346 1090 q 333 1058 346 1072 q 299 1043 319 1044 m 433 1047 l 431 1047 q 397 1061 411 1047 q 382 1096 382 1075 l 382 1099 q 396 1133 382 1118 q 431 1147 410 1147 l 435 1147 q 467 1133 453 1147 q 481 1099 481 1119 l 481 1094 q 467 1063 481 1076 q 433 1047 454 1049 z "},"ä":{"ha":675,"x_min":40,"x_max":650,"o":"m 594 1 q 563 13 575 1 q 435 200 476 72 l 435 203 q 404 136 421 168 q 362 75 383 99 q 319 38 340 51 q 279 19 299 25 q 244 14 260 14 l 239 14 q 115 81 168 14 q 40 328 40 174 q 42 377 40 339 q 61 476 43 415 q 113 585 81 539 q 186 658 144 631 q 288 689 235 689 q 326 687 293 689 q 415 642 360 685 q 438 599 438 624 q 424 563 438 581 q 389 543 411 546 l 379 542 q 349 554 363 542 q 288 578 317 578 q 246 565 267 578 q 168 444 194 531 q 151 333 151 392 q 162 238 151 286 q 197 158 172 190 q 240 125 221 125 l 242 125 q 273 142 256 125 q 307 190 290 160 q 397 504 364 293 q 453 551 406 551 l 457 551 q 494 533 479 549 q 508 496 508 518 q 626 101 508 193 q 650 57 650 85 q 641 27 650 40 q 619 8 632 14 q 594 1 607 1 m 351 769 l 349 769 q 315 783 329 769 q 300 818 300 797 l 300 821 q 314 855 300 840 q 349 869 328 869 l 353 869 q 385 856 371 869 q 399 821 399 842 l 399 817 q 385 785 399 799 q 351 769 372 771 m 217 765 l 214 765 q 180 779 194 765 q 165 814 165 793 l 165 817 q 179 851 165 836 q 214 865 193 865 l 218 865 q 250 851 236 865 q 264 817 264 838 l 264 813 q 251 781 264 794 q 217 765 238 767 z "},"ë":{"ha":661,"x_min":31,"x_max":626,"o":"m 333 4 q 89 154 144 4 q 68 274 68 207 q 72 333 68 303 l 63 338 q 31 389 31 353 q 36 411 31 400 q 88 443 53 443 l 101 442 q 138 517 117 481 q 185 582 158 553 q 415 692 281 692 l 426 692 q 581 551 581 663 q 563 483 581 524 q 494 397 546 442 q 430 353 465 374 q 354 321 394 333 q 271 303 314 308 q 226 300 249 300 q 181 303 204 300 l 179 275 q 181 240 179 261 q 191 195 182 219 q 217 153 200 171 q 260 128 233 136 q 335 115 299 115 q 410 132 375 115 q 458 164 438 144 q 492 201 478 183 q 513 232 506 218 l 518 244 q 568 279 535 279 q 592 274 579 279 q 626 224 626 260 q 621 201 626 213 q 611 180 621 199 q 581 135 601 161 q 531 80 561 108 q 457 32 500 51 q 333 4 397 4 m 229 413 q 332 431 281 413 q 422 482 383 449 q 469 551 469 522 l 469 556 q 456 567 468 560 q 414 581 444 575 l 408 581 q 327 558 363 581 q 268 508 292 535 q 208 413 232 468 l 229 413 m 296 765 l 293 765 q 259 779 274 765 q 244 814 244 793 l 244 817 q 258 851 244 836 q 293 865 272 865 l 297 865 q 329 851 315 865 q 343 817 343 838 l 343 813 q 330 781 343 794 q 296 765 317 767 m 431 769 l 428 769 q 394 783 408 769 q 379 818 379 797 l 379 821 q 393 855 379 840 q 428 869 407 869 l 432 869 q 464 856 450 869 q 478 821 478 842 l 478 817 q 465 785 478 799 q 431 769 451 771 z "},"ö":{"ha":646,"x_min":35,"x_max":608,"o":"m 315 6 q 118 86 194 6 q 53 203 74 132 q 35 319 35 257 l 35 336 q 58 463 38 401 q 113 574 78 525 q 211 661 154 631 q 335 692 268 692 q 515 617 443 692 q 608 357 608 521 q 533 111 608 211 q 315 6 449 6 m 315 115 q 397 135 363 115 q 452 188 431 156 q 485 259 474 219 q 497 338 496 299 l 497 354 q 482 457 497 407 q 435 540 467 507 q 336 582 393 582 q 257 560 292 582 q 198 502 222 538 q 160 422 174 467 q 146 332 147 378 l 146 315 q 159 231 146 272 q 200 163 172 190 q 315 115 242 115 m 257 765 l 254 765 q 220 779 235 765 q 206 814 206 793 l 206 817 q 219 851 206 836 q 254 865 233 865 l 258 865 q 290 851 276 865 q 304 817 304 838 l 304 813 q 291 781 304 794 q 257 765 278 767 m 392 769 l 389 769 q 355 783 369 769 q 340 818 340 797 l 340 821 q 354 855 340 840 q 389 869 368 869 l 393 869 q 425 856 411 869 q 439 821 439 842 l 439 817 q 426 785 439 799 q 392 769 413 771 z "},"Ÿ":{"ha":636,"x_min":24,"x_max":610,"o":"m 311 3 q 271 19 286 3 q 256 56 256 35 l 256 60 q 258 151 257 110 q 258 233 258 193 q 256 316 258 274 q 253 410 254 358 q 239 418 246 414 q 225 429 232 422 q 93 661 156 483 q 65 746 78 704 q 44 820 53 788 q 30 873 35 853 q 25 896 25 893 l 24 910 q 34 940 24 924 q 67 961 44 957 l 81 963 q 112 952 96 963 q 133 919 128 942 l 138 900 q 150 851 142 881 q 169 782 158 821 q 196 703 181 743 q 261 557 226 614 q 294 515 282 524 q 307 507 306 507 q 317 513 308 507 q 341 538 325 518 q 378 598 357 558 q 428 707 400 638 q 457 788 444 749 q 479 857 469 826 q 494 907 489 888 l 500 926 q 525 961 506 949 q 550 968 538 968 q 567 965 558 968 q 610 915 610 956 q 607 899 610 907 q 601 875 607 896 q 585 822 596 854 q 561 747 575 789 q 529 661 547 704 q 389 428 463 490 q 376 419 382 424 q 364 411 371 414 q 367 316 365 358 q 369 233 368 274 q 369 149 369 192 q 367 56 368 107 q 350 18 365 33 q 311 3 335 3 m 394 1047 l 392 1047 q 358 1061 372 1047 q 343 1096 343 1075 l 343 1099 q 357 1133 343 1118 q 392 1147 371 1147 l 396 1147 q 428 1133 414 1147 q 442 1099 442 1119 l 442 1094 q 428 1063 442 1076 q 394 1047 415 1049 m 260 1043 l 257 1043 q 223 1057 238 1043 q 208 1092 208 1071 l 208 1094 q 222 1128 208 1114 q 257 1143 236 1143 l 261 1143 q 293 1129 279 1143 q 307 1094 307 1115 l 307 1090 q 294 1058 307 1072 q 260 1043 281 1044 z "},"ÿ":{"ha":626,"x_min":32,"x_max":608,"o":"m 214 -349 q 194 -346 206 -349 q 158 -292 158 -332 q 161 -274 158 -283 q 216 -135 189 -201 q 271 -4 243 -68 l 300 67 q 242 197 271 138 q 181 315 213 256 q 112 451 147 381 q 36 615 76 521 q 32 638 32 626 q 38 664 32 649 q 65 689 44 679 q 88 693 76 693 q 114 687 99 693 q 139 660 129 681 q 213 499 178 568 q 279 367 247 431 q 319 290 300 328 q 358 211 339 251 q 430 409 394 303 q 499 649 465 515 q 553 690 511 690 l 567 689 q 608 635 608 676 l 607 621 q 549 419 578 511 q 490 247 519 328 q 431 94 461 167 q 372 -47 401 22 q 318 -178 344 -114 q 265 -312 292 -242 q 244 -339 258 -329 q 214 -349 231 -349 m 403 769 l 400 769 q 366 783 381 769 q 351 818 351 797 l 351 821 q 365 855 351 840 q 400 869 379 869 l 404 869 q 436 856 422 869 q 450 821 450 842 l 450 817 q 437 785 450 799 q 403 769 424 771 m 268 765 l 265 765 q 231 779 246 765 q 217 814 217 793 l 217 817 q 231 851 217 836 q 265 865 244 865 l 269 865 q 301 851 288 865 q 315 817 315 838 l 315 813 q 302 781 315 794 q 268 765 289 767 z "},"ü":{"ha":617,"x_min":40,"x_max":579,"o":"m 524 4 q 494 13 508 4 q 472 38 479 22 q 436 160 447 94 q 257 13 374 13 q 40 424 51 13 q 42 506 40 467 q 45 576 43 546 q 49 624 47 606 q 51 643 51 642 q 70 679 54 667 q 104 692 86 692 l 113 692 q 149 672 136 689 q 161 638 161 656 l 161 629 l 160 613 q 156 567 158 594 q 153 502 154 539 q 151 424 151 465 q 169 252 154 324 q 211 147 183 181 q 260 124 232 124 q 294 139 279 124 q 315 165 303 147 q 338 214 326 182 q 360 294 350 246 q 378 413 371 343 q 383 493 382 454 q 385 561 385 532 l 385 631 q 399 667 385 651 q 435 685 413 682 l 443 685 q 476 672 461 685 q 494 636 492 658 q 506 540 501 589 q 514 442 510 490 q 534 244 522 340 q 574 83 546 147 q 579 61 579 72 q 573 35 579 51 q 546 10 567 19 q 524 4 532 4 m 211 765 l 208 765 q 174 779 189 765 q 160 814 160 793 l 160 817 q 174 851 160 836 q 208 865 188 865 l 213 865 q 244 851 231 865 q 258 817 258 838 l 258 813 q 245 781 258 794 q 211 765 232 767 m 346 769 l 343 769 q 309 783 324 769 q 294 818 294 797 l 294 821 q 308 855 294 840 q 343 869 322 869 l 347 869 q 379 856 365 869 q 393 821 393 842 l 393 817 q 380 785 393 799 q 346 769 367 771 z "},"ï":{"ha":272,"x_min":21,"x_max":254,"o":"m 163 1 q 112 34 128 1 q 84 109 96 67 q 66 197 72 151 q 56 288 60 243 q 53 374 53 333 l 53 418 q 53 473 53 440 q 57 543 54 506 q 64 610 60 581 q 75 658 68 640 q 126 697 88 697 q 144 694 135 697 q 183 642 183 682 q 181 624 183 633 q 167 538 174 604 q 161 428 161 490 l 163 376 q 178 200 165 276 q 213 81 190 124 q 218 57 218 69 q 213 33 218 49 q 186 7 207 18 q 163 1 176 1 m 72 765 l 69 765 q 35 779 50 765 q 21 814 21 793 l 21 817 q 35 851 21 836 q 69 865 49 865 l 74 865 q 106 851 92 865 q 119 817 119 838 l 119 813 q 106 781 119 794 q 72 765 93 767 m 207 769 l 204 769 q 170 783 185 769 q 156 818 156 797 l 156 821 q 169 855 156 840 q 204 869 183 869 l 208 869 q 240 856 226 869 q 254 821 254 842 l 254 817 q 241 785 254 799 q 207 769 228 771 z "},"œ":{"ha":1169,"x_min":40,"x_max":1126,"o":"m 833 4 q 728 21 782 4 q 579 181 610 58 q 560 144 571 161 q 539 111 550 126 q 321 6 454 6 q 124 86 200 6 q 58 203 79 132 q 40 319 40 257 l 40 336 q 63 463 43 401 q 118 574 83 525 q 217 661 160 631 q 340 692 274 692 q 521 617 449 692 q 604 450 583 550 q 685 582 635 525 q 915 692 781 692 l 926 692 q 1081 551 1081 663 q 1063 483 1081 524 q 994 397 1046 442 q 930 353 965 374 q 854 321 894 333 q 771 303 814 308 q 726 300 749 300 q 681 303 704 300 l 679 275 q 681 240 679 261 q 691 195 682 219 q 717 153 700 171 q 760 128 733 136 q 835 115 799 115 q 910 132 875 115 q 958 164 938 144 q 992 201 978 183 q 1013 232 1006 218 l 1018 244 q 1068 279 1035 279 q 1092 274 1079 279 q 1126 224 1126 260 q 1121 201 1126 213 q 1111 180 1121 199 q 1081 135 1101 161 q 1031 80 1061 108 q 957 32 1000 51 q 833 4 897 4 m 321 115 q 402 135 368 115 q 458 188 436 156 q 490 259 479 219 q 503 338 501 299 l 503 354 q 488 457 503 407 q 440 540 472 507 q 342 582 399 582 q 263 560 297 582 q 203 502 228 538 q 166 422 179 467 q 151 332 153 378 l 151 315 q 165 231 151 272 q 206 163 178 190 q 321 115 247 115 m 729 413 q 832 431 781 413 q 922 482 883 449 q 969 551 969 522 l 969 556 q 956 567 968 560 q 914 581 944 575 l 908 581 q 827 558 863 581 q 768 508 792 535 q 708 413 732 468 l 729 413 z "},"Æ":{"ha":1035,"x_min":22,"x_max":1001,"o":"m 703 7 q 628 8 658 7 q 579 12 599 10 q 548 16 560 14 q 528 21 536 18 q 483 64 500 29 q 475 83 479 71 q 467 116 471 96 q 458 167 463 136 q 450 243 454 199 q 447 302 447 271 q 443 368 446 333 l 265 346 q 222 244 242 293 q 185 156 201 196 q 157 86 168 115 q 142 43 146 57 q 89 7 128 7 q 71 11 79 7 q 33 61 33 22 q 38 82 33 72 q 73 174 46 106 q 138 331 100 242 l 78 325 q 41 339 57 325 q 22 376 25 353 l 22 381 q 36 417 22 401 q 74 436 50 433 q 128 442 99 439 q 189 449 157 444 l 210 494 q 280 641 246 575 q 343 760 314 707 q 476 939 422 896 q 499 949 485 944 q 528 957 513 954 q 559 962 544 960 q 583 965 574 964 q 651 971 613 969 q 735 972 689 972 q 810 971 774 972 q 876 967 847 969 q 922 964 904 965 q 942 963 940 963 q 978 944 965 960 q 992 911 992 929 l 992 903 q 974 865 989 879 q 939 851 958 851 l 932 851 l 918 853 q 878 856 903 854 q 823 859 854 857 q 758 861 792 861 l 722 861 q 617 856 656 861 q 565 847 578 851 q 560 809 563 836 q 556 731 558 782 q 551 514 551 632 q 670 523 618 518 q 767 531 722 528 q 818 535 794 533 q 864 539 842 536 l 868 539 q 905 525 889 539 q 924 488 921 511 l 924 481 q 910 446 924 461 q 872 428 896 431 q 826 425 850 426 q 776 421 803 424 l 554 403 q 563 242 557 310 q 572 162 567 189 q 579 124 576 135 q 693 118 613 118 l 768 119 q 833 121 801 119 q 889 123 865 122 q 928 125 913 124 l 943 125 l 947 125 q 983 110 968 125 q 1001 72 999 96 l 1001 68 q 987 31 1001 47 q 949 14 972 15 l 933 14 q 894 12 918 13 q 838 10 869 11 q 771 8 806 8 q 735 7 751 7 q 703 7 718 7 m 318 464 q 331 466 325 465 q 343 467 336 467 l 442 479 q 440 499 442 493 q 444 713 440 614 q 388 608 419 669 q 318 464 357 547 z "},"Œ":{"ha":1333,"x_min":46,"x_max":1297,"o":"m 410 1 q 158 108 257 1 q 69 275 97 175 q 46 446 46 354 l 47 490 q 82 663 54 581 q 156 810 110 744 q 274 921 206 881 q 440 965 350 965 q 742 743 643 965 q 746 815 743 788 q 751 859 749 843 q 756 882 754 875 q 760 892 758 889 q 808 940 772 926 q 879 960 844 954 q 1032 968 938 968 q 1107 966 1071 968 q 1172 963 1143 964 q 1218 959 1200 961 q 1238 957 1236 957 q 1274 939 1261 954 q 1288 906 1288 924 l 1288 897 q 1269 860 1285 874 q 1235 847 1254 847 l 1228 847 l 1214 849 q 1174 851 1199 850 q 1119 854 1150 853 q 1054 856 1088 856 l 1010 856 q 913 851 950 856 q 861 843 875 847 q 858 805 860 832 q 853 725 856 778 q 849 624 850 678 q 849 514 849 569 l 886 517 l 1167 533 q 1202 519 1186 533 q 1219 482 1218 506 l 1219 475 q 1206 440 1219 456 q 1168 422 1192 425 l 893 406 l 850 403 q 858 236 853 306 q 867 156 863 183 q 876 118 872 129 q 989 114 906 114 l 1065 114 q 1130 115 1099 114 q 1185 117 1161 117 q 1224 119 1208 118 l 1239 119 l 1243 119 q 1280 105 1264 119 q 1297 67 1296 90 l 1297 63 q 1283 26 1297 42 q 1244 8 1268 11 l 1229 8 q 1190 6 1214 7 q 1133 4 1165 6 q 1067 3 1101 3 l 999 3 q 924 4 954 3 q 875 7 894 6 q 844 10 856 8 q 825 15 832 13 q 779 58 796 26 q 771 78 775 67 q 763 111 767 90 q 755 163 758 132 q 747 238 751 193 q 746 250 746 242 q 722 199 735 222 q 694 153 710 175 q 410 1 586 1 m 410 111 q 526 142 476 111 q 608 224 575 174 q 659 338 642 274 q 679 469 676 403 l 679 489 q 653 660 679 578 q 579 794 628 743 q 438 856 521 856 q 325 822 375 854 q 240 737 275 789 q 183 618 204 685 q 158 482 163 551 l 157 439 q 176 301 157 371 q 240 183 196 232 q 403 113 303 114 l 410 111 z "},"z":{"ha":613,"x_min":36,"x_max":581,"o":"m 251 4 q 176 8 207 4 q 125 16 146 11 q 91 28 104 21 q 69 42 78 35 q 36 110 36 68 q 53 166 36 139 q 93 218 69 193 q 143 267 115 242 q 203 321 171 293 q 278 390 240 356 q 344 460 315 425 q 393 527 383 503 q 403 561 403 551 q 401 569 403 568 q 391 574 399 571 q 365 579 383 578 l 344 581 q 311 579 333 581 q 244 568 289 578 q 196 557 218 563 q 156 546 174 551 q 117 533 135 540 q 96 529 107 529 q 69 537 85 529 q 46 567 53 544 q 43 585 43 576 q 50 614 43 597 q 79 638 57 631 q 124 652 82 639 q 222 676 165 665 q 344 690 292 690 q 464 661 421 690 q 514 561 514 626 q 429 386 514 485 q 356 311 396 349 q 276 239 315 274 q 226 194 250 215 q 183 153 203 172 q 157 122 165 133 q 251 114 193 114 q 340 118 288 114 q 406 123 375 119 q 462 129 438 126 q 501 135 486 132 l 517 136 l 528 138 q 560 126 544 138 q 579 90 576 114 l 581 79 q 569 47 581 63 q 533 26 557 31 q 516 24 532 26 q 474 19 500 22 q 414 13 447 17 q 344 7 381 10 q 294 4 317 4 q 251 4 271 4 z "},"g":{"ha":636,"x_min":36,"x_max":586,"o":"m 319 -347 q 306 -347 313 -347 q 292 -346 299 -347 q 140 -276 201 -337 q 90 -197 107 -243 q 69 -93 72 -150 q 85 -53 69 -69 q 124 -37 100 -37 l 128 -37 q 164 -52 149 -37 q 181 -90 179 -67 q 194 -162 182 -135 q 226 -205 207 -189 q 265 -228 244 -221 q 303 -236 286 -235 l 321 -237 q 361 -233 339 -237 q 405 -217 383 -228 q 442 -189 426 -206 q 461 -153 457 -172 q 476 14 476 -93 l 475 78 q 293 -1 403 -1 q 111 78 181 -1 q 36 303 36 163 l 38 343 q 63 456 43 403 q 114 551 82 510 q 197 625 150 600 q 310 656 251 656 q 447 610 389 656 l 449 643 q 467 681 451 667 q 501 694 482 694 l 508 694 q 546 676 532 692 q 560 642 560 661 l 558 574 q 561 480 558 540 q 571 329 564 419 q 581 191 576 260 q 586 57 585 122 l 586 14 q 583 -78 586 -28 q 569 -176 581 -128 q 463 -311 550 -262 q 319 -347 397 -347 m 293 110 q 401 164 360 110 q 434 226 421 190 q 450 304 447 263 l 451 332 q 438 427 451 378 q 394 508 425 476 q 313 544 361 544 q 203 485 247 544 q 165 416 179 456 q 147 333 151 376 l 146 300 q 156 223 146 264 q 193 151 167 182 q 293 110 232 110 z "},"ˆ":{"ha":388,"x_min":35,"x_max":356,"o":"m 89 710 q 63 718 75 710 q 35 768 35 733 q 42 793 35 781 q 53 813 42 794 q 82 856 65 832 q 193 931 138 931 l 200 931 q 250 910 225 928 q 304 856 275 892 q 333 818 322 835 q 346 800 344 801 q 356 769 356 786 q 352 750 356 764 q 329 724 349 736 q 301 715 315 715 q 280 718 294 715 q 253 740 265 721 q 245 753 250 747 q 235 765 240 758 q 224 781 231 772 l 193 814 q 163 778 182 806 q 152 764 157 771 q 144 751 147 757 l 138 739 q 117 717 131 725 q 89 710 104 710 z "},"ˇ":{"ha":385,"x_min":33,"x_max":354,"o":"m 199 711 l 192 711 q 129 735 158 711 q 81 786 100 760 q 52 828 64 810 q 40 849 40 847 q 33 874 33 861 q 38 897 33 882 q 61 924 42 913 q 88 932 74 932 q 116 924 103 932 q 136 903 129 917 l 143 890 q 151 878 146 885 q 161 864 156 871 q 192 828 181 836 l 222 861 q 234 876 229 868 q 243 889 239 883 q 251 901 249 894 q 297 928 268 928 q 328 918 314 928 q 354 872 354 901 q 344 842 354 857 q 332 824 343 840 q 303 786 321 807 q 249 732 274 750 q 199 711 224 714 z "},"Ž":{"ha":715,"x_min":38,"x_max":681,"o":"m 260 1 q 216 2 236 1 q 178 4 196 3 q 135 10 157 6 q 95 21 114 14 q 62 40 76 28 q 42 71 47 51 q 38 94 38 82 q 38 108 38 99 q 49 140 39 118 q 76 190 58 161 q 122 260 94 219 q 210 377 161 313 q 311 507 260 442 q 404 627 358 568 q 488 738 450 686 l 547 825 l 560 849 q 461 857 524 857 q 353 851 418 857 q 280 845 315 849 q 217 839 244 842 q 174 835 190 836 l 157 832 l 146 831 q 113 843 129 831 q 94 879 97 856 l 94 886 q 106 922 94 904 q 142 942 118 939 q 161 944 143 942 q 208 949 179 946 q 274 956 236 953 q 351 963 311 960 q 460 967 414 967 q 502 966 471 967 q 567 960 533 965 q 619 946 600 954 q 649 929 638 938 q 681 868 681 906 q 669 820 681 849 q 626 743 658 792 q 539 621 594 694 q 399 439 483 547 q 308 322 353 381 q 228 215 264 264 q 185 156 201 179 q 163 118 169 133 q 276 113 206 113 q 382 117 319 113 q 462 122 424 119 q 529 128 500 125 q 576 133 558 131 l 594 135 l 603 135 q 638 122 621 135 q 657 86 654 110 l 657 78 q 644 44 657 60 q 608 25 631 28 q 584 22 606 25 q 528 17 563 19 q 449 10 493 14 q 358 4 406 6 l 260 1 m 363 989 l 356 989 q 293 1013 322 989 q 244 1064 264 1038 q 216 1106 228 1088 q 204 1126 204 1125 q 197 1151 197 1139 q 201 1175 197 1160 q 225 1201 206 1190 q 251 1210 238 1210 q 280 1202 267 1210 q 300 1181 293 1194 l 307 1168 q 315 1156 310 1163 q 325 1142 319 1149 q 356 1106 344 1114 l 386 1139 q 398 1153 393 1146 q 407 1167 403 1161 q 415 1179 413 1172 q 461 1206 432 1206 q 492 1196 478 1206 q 518 1150 518 1179 q 508 1119 518 1135 q 496 1101 507 1118 q 467 1064 485 1085 q 413 1010 438 1028 q 363 989 388 992 z "},"ž":{"ha":613,"x_min":36,"x_max":581,"o":"m 251 4 q 176 8 207 4 q 125 16 146 11 q 91 28 104 21 q 69 42 78 35 q 36 110 36 68 q 53 166 36 139 q 93 218 69 193 q 143 267 115 242 q 203 321 171 293 q 278 390 240 356 q 344 460 315 425 q 393 527 383 503 q 403 561 403 551 q 401 569 403 568 q 391 574 399 571 q 365 579 383 578 l 344 581 q 311 579 333 581 q 244 568 289 578 q 196 557 218 563 q 156 546 174 551 q 117 533 135 540 q 96 529 107 529 q 69 537 85 529 q 46 567 53 544 q 43 585 43 576 q 50 614 43 597 q 79 638 57 631 q 124 652 82 639 q 222 676 165 665 q 344 690 292 690 q 464 661 421 690 q 514 561 514 626 q 429 386 514 485 q 356 311 396 349 q 276 239 315 274 q 226 194 250 215 q 183 153 203 172 q 157 122 165 133 q 251 114 193 114 q 340 118 288 114 q 406 123 375 119 q 462 129 438 126 q 501 135 486 132 l 517 136 l 528 138 q 560 126 544 138 q 579 90 576 114 l 581 79 q 569 47 581 63 q 533 26 557 31 q 516 24 532 26 q 474 19 500 22 q 414 13 447 17 q 344 7 381 10 q 294 4 317 4 q 251 4 271 4 m 311 711 l 304 711 q 242 735 271 711 q 193 786 213 760 q 165 828 176 810 q 153 849 153 847 q 146 874 146 861 q 150 897 146 882 q 174 924 154 913 q 200 932 186 932 q 228 924 215 932 q 249 903 242 917 l 256 890 q 263 878 258 885 q 274 864 268 871 q 304 828 293 836 l 335 861 q 347 876 342 868 q 356 889 351 883 q 364 901 361 894 q 410 928 381 928 q 440 918 426 928 q 467 872 467 901 q 457 842 467 857 q 444 824 456 840 q 415 786 433 807 q 361 732 386 750 q 311 711 336 714 z "},"Š":{"ha":600,"x_min":35,"x_max":569,"o":"m 310 3 l 301 3 q 211 14 254 3 q 135 47 168 25 q 65 116 92 74 q 35 213 39 158 l 35 219 q 48 254 35 239 q 85 272 61 269 l 92 272 q 127 258 111 272 q 144 221 143 244 q 163 169 147 190 q 202 136 179 149 q 253 119 225 124 q 307 114 281 114 q 362 120 335 114 q 410 138 389 126 q 444 166 431 150 q 458 203 458 182 l 458 207 q 444 249 458 226 q 406 298 431 272 q 351 350 382 324 q 290 403 321 376 q 206 476 249 438 q 128 556 164 514 q 69 644 93 597 q 42 743 46 690 l 40 765 q 94 903 40 847 q 238 967 149 958 l 268 968 q 346 957 303 968 q 432 917 389 946 q 505 842 475 888 q 542 736 535 796 l 542 728 q 529 694 542 710 q 494 675 517 678 l 486 675 q 451 687 468 675 q 432 722 435 699 q 407 788 426 761 q 360 831 388 815 q 304 853 333 846 q 265 857 283 857 l 249 856 q 219 850 236 854 q 186 834 201 846 q 161 805 171 822 q 151 764 151 788 l 151 751 q 174 682 154 715 q 222 615 193 649 q 288 550 251 582 q 361 488 324 518 q 437 424 401 456 q 500 360 472 393 q 569 206 569 281 l 569 197 q 544 115 567 153 q 478 50 521 78 q 310 3 407 6 m 306 989 l 299 989 q 236 1013 265 989 q 188 1064 207 1038 q 159 1106 171 1088 q 147 1126 147 1125 q 140 1151 140 1139 q 144 1175 140 1160 q 168 1201 149 1190 q 194 1210 181 1210 q 223 1202 210 1210 q 243 1181 236 1194 l 250 1168 q 258 1156 253 1163 q 268 1142 263 1149 q 299 1106 288 1114 l 329 1139 q 341 1153 336 1146 q 350 1167 346 1161 q 358 1179 356 1172 q 404 1206 375 1206 q 435 1196 421 1206 q 461 1150 461 1179 q 451 1119 461 1135 q 439 1101 450 1118 q 410 1064 428 1085 q 356 1010 381 1028 q 306 989 331 992 z "},"š":{"ha":450,"x_min":32,"x_max":422,"o":"m 172 4 q 107 8 133 4 q 79 13 81 11 q 43 35 56 15 q 32 65 32 49 q 57 113 32 97 q 88 122 71 122 l 99 121 q 178 115 132 115 l 204 117 q 267 130 235 119 q 310 167 299 140 l 311 172 q 306 190 311 178 q 289 219 301 201 q 244 273 271 244 q 189 329 217 301 q 137 381 163 354 q 92 432 111 407 q 46 539 46 493 q 118 664 46 621 q 239 692 163 692 q 279 690 254 692 q 331 681 304 688 q 363 672 357 674 q 401 622 401 660 q 399 604 401 614 q 347 564 386 564 q 328 567 339 564 q 297 575 318 571 q 254 581 276 579 l 239 581 q 207 578 225 581 q 175 568 189 576 q 165 559 169 565 q 157 540 160 553 q 160 529 157 539 q 182 496 164 519 q 221 453 199 475 q 267 407 243 431 q 327 346 297 376 q 379 283 357 315 q 422 172 422 225 q 413 126 422 147 q 390 86 404 106 q 352 50 376 67 q 293 22 328 33 q 210 6 258 10 q 190 4 200 4 q 172 4 181 4 m 231 711 l 224 711 q 161 735 190 711 q 113 786 132 760 q 84 828 96 810 q 72 849 72 847 q 65 874 65 861 q 69 897 65 882 q 93 924 74 913 q 119 932 106 932 q 148 924 135 932 q 168 903 161 917 l 175 890 q 183 878 178 885 q 193 864 188 871 q 224 828 213 836 l 254 861 q 266 876 261 868 q 275 889 271 883 q 283 901 281 894 q 329 928 300 928 q 360 918 346 928 q 386 872 386 901 q 376 842 386 857 q 364 824 375 840 q 335 786 353 807 q 281 732 306 750 q 231 711 256 714 z "},"Â":{"ha":642,"x_min":24,"x_max":614,"o":"m 133 4 q 114 8 122 4 q 78 61 78 19 q 81 78 78 69 q 87 108 83 86 q 94 158 90 129 q 103 222 99 188 q 111 289 107 256 l 115 324 q 98 323 106 324 q 83 321 90 322 l 79 321 q 42 335 58 321 q 24 372 26 349 l 24 379 q 38 414 24 399 q 75 432 51 429 q 100 434 86 433 q 129 438 114 435 q 149 574 139 506 q 171 704 160 642 q 214 871 192 815 q 229 906 221 890 q 246 932 238 921 q 283 963 265 956 q 315 969 301 969 l 317 969 q 353 960 338 969 q 380 940 368 951 q 399 916 392 928 q 410 897 406 904 q 465 743 436 846 q 493 626 479 692 q 522 482 507 561 l 553 486 l 561 486 q 595 474 579 486 q 614 438 611 461 l 614 429 q 602 395 614 411 q 567 376 590 379 l 542 372 l 589 69 l 589 61 q 577 26 589 43 q 542 7 565 10 l 533 7 q 499 19 515 7 q 479 54 482 31 q 455 215 467 139 q 431 360 443 290 l 228 336 q 225 306 226 321 q 221 276 224 292 q 201 118 208 172 q 185 42 193 64 q 164 15 178 25 q 133 4 150 4 m 215 988 q 189 996 201 988 q 161 1046 161 1011 q 168 1071 161 1058 q 180 1091 168 1072 q 208 1133 192 1110 q 319 1208 264 1208 l 326 1208 q 376 1188 351 1206 q 431 1133 401 1169 q 460 1096 449 1113 q 472 1078 471 1079 q 482 1047 482 1064 q 478 1028 482 1042 q 456 1001 475 1014 q 428 993 442 993 q 406 996 421 993 q 379 1018 392 999 q 372 1031 376 1025 q 362 1043 367 1036 q 350 1058 357 1050 l 319 1092 q 289 1056 308 1083 q 278 1042 283 1049 q 271 1029 274 1035 l 264 1017 q 244 995 257 1003 q 215 988 231 988 m 243 449 q 328 459 285 454 q 411 468 371 464 q 390 575 400 526 q 371 665 381 624 q 341 772 354 732 q 318 832 328 811 q 313 817 315 825 q 307 797 310 808 q 274 647 290 740 q 258 550 265 600 q 243 449 250 500 z "},"Ê":{"ha":656,"x_min":38,"x_max":631,"o":"m 400 3 l 332 3 q 258 4 288 3 q 208 7 228 6 q 177 10 189 8 q 158 15 165 13 q 113 58 129 26 q 104 78 108 67 q 96 111 100 90 q 88 163 92 132 q 81 238 85 193 q 72 401 75 308 q 38 453 38 417 q 47 483 38 469 q 71 503 56 496 q 72 628 71 567 q 75 742 72 689 q 79 814 76 786 q 85 858 82 842 q 90 882 88 875 q 93 892 92 889 q 142 940 106 926 q 213 960 178 954 q 365 968 271 968 q 440 966 404 968 q 505 963 476 964 q 551 959 533 961 q 571 957 569 957 q 608 939 594 954 q 621 906 621 924 l 621 897 q 603 860 618 874 q 568 847 588 847 l 561 847 l 547 849 q 508 851 532 850 q 452 854 483 853 q 388 856 421 856 l 343 856 q 246 851 283 856 q 194 843 208 847 q 191 805 193 832 q 186 725 189 778 q 183 624 183 678 q 182 514 182 569 l 219 517 l 500 533 q 535 519 519 533 q 553 482 551 506 l 553 475 q 539 440 553 456 q 501 422 525 425 l 226 406 l 183 403 q 192 236 186 306 q 201 156 196 183 q 210 118 206 129 q 322 114 239 114 l 399 114 q 463 115 432 114 q 518 117 494 117 q 557 119 542 118 l 572 119 l 576 119 q 613 105 597 119 q 631 67 629 90 l 631 63 q 616 26 631 42 q 578 8 601 11 l 563 8 q 523 6 547 7 q 467 4 499 6 q 400 3 435 3 m 222 988 q 196 996 208 988 q 168 1046 168 1011 q 175 1071 168 1058 q 187 1091 175 1072 q 215 1133 199 1110 q 326 1208 271 1208 l 333 1208 q 383 1188 358 1206 q 438 1133 408 1169 q 467 1096 456 1113 q 479 1078 478 1079 q 489 1047 489 1064 q 485 1028 489 1042 q 463 1001 482 1014 q 435 993 449 993 q 413 996 428 993 q 386 1018 399 999 q 378 1031 383 1025 q 369 1043 374 1036 q 357 1058 364 1050 l 326 1092 q 296 1056 315 1083 q 285 1042 290 1049 q 278 1029 281 1035 l 271 1017 q 251 995 264 1003 q 222 988 238 988 z "},"Î":{"ha":689,"x_min":36,"x_max":658,"o":"m 328 1 l 326 1 q 293 12 307 1 q 274 39 279 22 q 215 30 243 35 q 158 19 186 25 q 135 17 147 18 q 113 13 124 15 q 104 11 110 11 q 69 24 85 11 q 49 57 53 38 l 49 65 q 60 101 49 85 q 94 122 71 118 q 117 125 106 124 q 139 129 128 126 q 202 140 171 135 q 268 150 233 146 q 264 272 265 208 q 260 400 263 336 q 252 618 256 511 q 247 808 249 725 q 156 811 196 808 q 83 818 115 814 q 48 838 60 821 q 36 872 36 854 l 36 881 q 56 916 39 904 q 90 928 72 928 l 99 928 q 153 922 118 925 q 247 919 189 919 q 266 953 250 939 q 303 967 282 967 q 339 953 324 967 q 357 919 354 939 q 586 928 450 919 l 603 929 q 642 913 626 929 q 658 874 658 897 q 643 834 658 850 q 604 818 628 818 l 603 818 q 593 817 600 817 q 358 808 461 810 q 363 620 360 726 q 371 403 367 514 q 375 278 374 340 q 379 157 376 215 l 413 157 q 492 154 446 157 q 606 142 539 151 q 641 122 629 139 q 653 88 653 106 l 653 79 q 633 44 650 56 q 599 32 617 32 l 590 32 q 411 46 483 46 l 381 46 q 362 14 376 26 q 328 1 347 1 m 207 988 q 181 996 193 988 q 153 1046 153 1011 q 160 1071 153 1058 q 172 1091 160 1072 q 200 1133 183 1110 q 311 1208 256 1208 l 318 1208 q 368 1188 343 1206 q 422 1133 393 1169 q 451 1096 440 1113 q 464 1078 463 1079 q 474 1047 474 1064 q 470 1028 474 1042 q 447 1001 467 1014 q 419 993 433 993 q 398 996 413 993 q 371 1018 383 999 q 363 1031 368 1025 q 353 1043 358 1036 q 342 1058 349 1050 l 311 1092 q 281 1056 300 1083 q 270 1042 275 1049 q 263 1029 265 1035 l 256 1017 q 235 995 249 1003 q 207 988 222 988 z "},"Ô":{"ha":824,"x_min":40,"x_max":785,"o":"m 404 1 q 153 108 251 1 q 64 275 92 175 q 40 446 40 354 l 42 490 q 76 663 49 581 q 150 810 104 744 q 268 921 200 881 q 431 965 344 965 q 653 872 563 965 q 754 696 719 803 q 785 493 785 600 l 785 467 q 756 295 781 375 q 689 153 732 215 q 404 1 581 1 m 404 111 q 520 142 471 111 q 603 224 569 174 q 653 338 636 274 q 674 469 671 403 l 674 489 q 648 660 674 578 q 574 794 622 743 q 432 856 515 856 q 319 822 369 854 q 234 737 269 789 q 178 618 199 685 q 153 482 157 551 l 151 439 q 171 301 151 371 q 235 183 190 232 q 397 113 297 114 l 404 111 m 306 988 q 279 996 292 988 q 251 1046 251 1011 q 258 1071 251 1058 q 270 1091 258 1072 q 299 1133 282 1110 q 410 1208 354 1208 l 417 1208 q 467 1188 442 1206 q 521 1133 492 1169 q 550 1096 539 1113 q 563 1078 561 1079 q 572 1047 572 1064 q 569 1028 572 1042 q 546 1001 565 1014 q 518 993 532 993 q 497 996 511 993 q 469 1018 482 999 q 462 1031 467 1025 q 452 1043 457 1036 q 440 1058 447 1050 l 410 1092 q 379 1056 399 1083 q 369 1042 374 1049 q 361 1029 364 1035 l 354 1017 q 334 995 347 1003 q 306 988 321 988 z "},"Û":{"ha":690,"x_min":39,"x_max":653,"o":"m 333 1 q 203 47 263 1 q 103 173 143 93 q 49 358 64 253 q 39 500 39 425 q 43 603 39 550 q 63 751 50 675 q 100 907 76 828 q 150 949 110 949 q 168 946 158 949 q 208 892 208 933 l 207 878 q 150 496 150 675 q 158 374 150 432 q 200 229 171 290 q 269 138 229 168 q 336 111 303 111 q 386 129 360 111 q 463 213 429 154 q 515 356 496 272 q 542 603 542 464 q 517 903 542 742 l 515 914 q 527 947 515 931 q 563 967 539 963 l 571 967 q 606 955 589 967 q 626 921 622 943 q 647 747 640 831 q 653 588 653 664 q 624 331 650 444 q 443 33 574 111 q 333 1 390 1 m 251 988 q 225 996 238 988 q 197 1046 197 1011 q 204 1071 197 1058 q 216 1091 204 1072 q 244 1133 228 1110 q 356 1208 300 1208 l 363 1208 q 413 1188 388 1206 q 467 1133 438 1169 q 496 1096 485 1113 q 508 1078 507 1079 q 518 1047 518 1064 q 515 1028 518 1042 q 492 1001 511 1014 q 464 993 478 993 q 442 996 457 993 q 415 1018 428 999 q 408 1031 413 1025 q 398 1043 403 1036 q 386 1058 393 1050 l 356 1092 q 325 1056 344 1083 q 315 1042 319 1049 q 307 1029 310 1035 l 300 1017 q 280 995 293 1003 q 251 988 267 988 z "},"â":{"ha":675,"x_min":40,"x_max":650,"o":"m 594 1 q 563 13 575 1 q 435 200 476 72 l 435 203 q 404 136 421 168 q 362 75 383 99 q 319 38 340 51 q 279 19 299 25 q 244 14 260 14 l 239 14 q 115 81 168 14 q 40 328 40 174 q 42 377 40 339 q 61 476 43 415 q 113 585 81 539 q 186 658 144 631 q 288 689 235 689 q 326 687 293 689 q 415 642 360 685 q 438 599 438 624 q 424 563 438 581 q 389 543 411 546 l 379 542 q 349 554 363 542 q 288 578 317 578 q 246 565 267 578 q 168 444 194 531 q 151 333 151 392 q 162 238 151 286 q 197 158 172 190 q 240 125 221 125 l 242 125 q 273 142 256 125 q 307 190 290 160 q 397 504 364 293 q 453 551 406 551 l 457 551 q 494 533 479 549 q 508 496 508 518 q 626 101 508 193 q 650 57 650 85 q 641 27 650 40 q 619 8 632 14 q 594 1 607 1 m 164 710 q 138 718 150 710 q 110 768 110 733 q 117 793 110 781 q 128 813 117 794 q 157 856 140 832 q 268 931 213 931 l 275 931 q 325 910 300 928 q 379 856 350 892 q 408 818 397 835 q 421 800 419 801 q 431 769 431 786 q 427 750 431 764 q 404 724 424 736 q 376 715 390 715 q 355 718 369 715 q 328 740 340 721 q 320 753 325 747 q 310 765 315 758 q 299 781 306 772 l 268 814 q 238 778 257 806 q 227 764 232 771 q 219 751 222 757 l 213 739 q 192 717 206 725 q 164 710 179 710 z "},"ê":{"ha":661,"x_min":31,"x_max":626,"o":"m 333 4 q 89 154 144 4 q 68 274 68 207 q 72 333 68 303 l 63 338 q 31 389 31 353 q 36 411 31 400 q 88 443 53 443 l 101 442 q 138 517 117 481 q 185 582 158 553 q 415 692 281 692 l 426 692 q 581 551 581 663 q 563 483 581 524 q 494 397 546 442 q 430 353 465 374 q 354 321 394 333 q 271 303 314 308 q 226 300 249 300 q 181 303 204 300 l 179 275 q 181 240 179 261 q 191 195 182 219 q 217 153 200 171 q 260 128 233 136 q 335 115 299 115 q 410 132 375 115 q 458 164 438 144 q 492 201 478 183 q 513 232 506 218 l 518 244 q 568 279 535 279 q 592 274 579 279 q 626 224 626 260 q 621 201 626 213 q 611 180 621 199 q 581 135 601 161 q 531 80 561 108 q 457 32 500 51 q 333 4 397 4 m 265 710 q 239 718 251 710 q 211 768 211 733 q 218 793 211 781 q 230 813 218 794 q 258 856 242 832 q 369 931 314 931 l 376 931 q 426 910 401 928 q 481 856 451 892 q 510 818 499 835 q 522 800 521 801 q 532 769 532 786 q 528 750 532 764 q 506 724 525 736 q 478 715 492 715 q 456 718 471 715 q 429 740 442 721 q 422 753 426 747 q 412 765 417 758 q 400 781 407 772 l 369 814 q 339 778 358 806 q 328 764 333 771 q 321 751 324 757 l 314 739 q 294 717 307 725 q 265 710 281 710 m 229 413 q 332 431 281 413 q 422 482 383 449 q 469 551 469 522 l 469 556 q 456 567 468 560 q 414 581 444 575 l 408 581 q 327 558 363 581 q 268 508 292 535 q 208 413 232 468 l 229 413 z "},"ô":{"ha":646,"x_min":35,"x_max":608,"o":"m 315 6 q 118 86 194 6 q 53 203 74 132 q 35 319 35 257 l 35 336 q 58 463 38 401 q 113 574 78 525 q 211 661 154 631 q 335 692 268 692 q 515 617 443 692 q 608 357 608 521 q 533 111 608 211 q 315 6 449 6 m 315 115 q 397 135 363 115 q 452 188 431 156 q 485 259 474 219 q 497 338 496 299 l 497 354 q 482 457 497 407 q 435 540 467 507 q 336 582 393 582 q 257 560 292 582 q 198 502 222 538 q 160 422 174 467 q 146 332 147 378 l 146 315 q 159 231 146 272 q 200 163 172 190 q 315 115 242 115 m 217 710 q 190 718 203 710 q 163 768 163 733 q 169 793 163 781 q 181 813 169 794 q 210 856 193 832 q 321 931 265 931 l 328 931 q 378 910 353 928 q 432 856 403 892 q 461 818 450 835 q 474 800 472 801 q 483 769 483 786 q 480 750 483 764 q 457 724 476 736 q 429 715 443 715 q 408 718 422 715 q 381 740 393 721 q 373 753 378 747 q 363 765 368 758 q 351 781 358 772 l 321 814 q 290 778 310 806 q 280 764 285 771 q 272 751 275 757 l 265 739 q 245 717 258 725 q 217 710 232 710 z "},"û":{"ha":617,"x_min":40,"x_max":579,"o":"m 524 4 q 494 13 508 4 q 472 38 479 22 q 436 160 447 94 q 257 13 374 13 q 40 424 51 13 q 42 506 40 467 q 45 576 43 546 q 49 624 47 606 q 51 643 51 642 q 70 679 54 667 q 104 692 86 692 l 113 692 q 149 672 136 689 q 161 638 161 656 l 161 629 l 160 613 q 156 567 158 594 q 153 502 154 539 q 151 424 151 465 q 169 252 154 324 q 211 147 183 181 q 260 124 232 124 q 294 139 279 124 q 315 165 303 147 q 338 214 326 182 q 360 294 350 246 q 378 413 371 343 q 383 493 382 454 q 385 561 385 532 l 385 631 q 399 667 385 651 q 435 685 413 682 l 443 685 q 476 672 461 685 q 494 636 492 658 q 506 540 501 589 q 514 442 510 490 q 534 244 522 340 q 574 83 546 147 q 579 61 579 72 q 573 35 579 51 q 546 10 567 19 q 524 4 532 4 m 174 710 q 147 718 160 710 q 119 768 119 733 q 126 793 119 781 q 138 813 126 794 q 167 856 150 832 q 278 931 222 931 l 285 931 q 335 910 310 928 q 389 856 360 892 q 418 818 407 835 q 431 800 429 801 q 440 769 440 786 q 437 750 440 764 q 414 724 433 736 q 386 715 400 715 q 365 718 379 715 q 338 740 350 721 q 330 753 335 747 q 320 765 325 758 q 308 781 315 772 l 278 814 q 247 778 267 806 q 237 764 242 771 q 229 751 232 757 l 222 739 q 202 717 215 725 q 174 710 189 710 z "},"î":{"ha":368,"x_min":24,"x_max":344,"o":"m 208 1 q 158 34 174 1 q 130 109 142 67 q 112 197 118 151 q 102 288 106 243 q 99 374 99 333 l 99 418 q 99 473 99 440 q 103 543 100 506 q 110 610 106 581 q 121 658 114 640 q 172 697 133 697 q 190 694 181 697 q 229 642 229 682 q 226 624 229 633 q 213 538 219 604 q 207 428 207 490 l 208 376 q 224 200 211 276 q 258 81 236 124 q 264 57 264 69 q 258 33 264 49 q 232 7 253 18 q 208 1 222 1 m 78 710 q 51 718 64 710 q 24 768 24 733 q 31 793 24 781 q 42 813 31 794 q 71 856 54 832 q 182 931 126 931 l 189 931 q 239 910 214 928 q 293 856 264 892 q 322 818 311 835 q 335 800 333 801 q 344 769 344 786 q 341 750 344 764 q 318 724 338 736 q 290 715 304 715 q 269 718 283 715 q 242 740 254 721 q 234 753 239 747 q 224 765 229 758 q 213 781 219 772 l 182 814 q 151 778 171 806 q 141 764 146 771 q 133 751 136 757 l 126 739 q 106 717 119 725 q 78 710 93 710 z "},"`":{"ha":253,"x_min":19,"x_max":229,"o":"m 174 731 q 149 737 163 731 q 125 758 135 743 q 85 820 101 801 q 51 856 68 839 q 43 863 47 860 q 36 871 39 867 q 19 908 19 886 q 19 922 19 910 q 35 949 19 933 q 74 966 51 967 q 113 950 97 965 q 120 943 117 946 q 126 936 124 940 q 168 892 146 918 q 222 813 190 867 q 229 788 229 800 q 224 764 229 779 q 200 738 219 749 q 193 734 197 735 q 186 732 189 733 q 174 731 181 731 z "},"´":{"ha":254,"x_min":24,"x_max":235,"o":"m 79 731 l 67 732 q 60 734 64 733 q 53 738 56 735 q 24 788 24 754 q 31 813 24 800 q 85 892 63 867 q 126 936 107 918 q 133 943 129 940 q 140 950 136 946 q 178 966 156 965 q 218 949 201 967 q 234 910 233 933 q 217 871 235 888 q 210 863 214 867 q 201 856 206 860 q 167 820 185 839 q 128 758 150 801 q 79 731 110 731 z "},"˝":{"ha":501,"x_min":36,"x_max":469,"o":"m 92 731 l 79 732 q 72 734 76 733 q 65 738 68 735 q 36 788 36 754 q 43 813 36 800 q 97 892 75 867 q 139 936 119 918 q 145 943 142 940 q 153 950 149 946 q 191 966 168 965 q 231 949 214 967 q 247 910 246 933 q 229 871 247 888 q 222 863 226 867 q 214 856 218 860 q 180 820 197 839 q 140 758 163 801 q 92 731 122 731 m 314 731 l 301 732 q 294 734 299 733 q 288 738 290 735 q 258 788 258 754 q 265 813 258 800 q 319 892 297 867 q 361 936 342 918 q 367 943 364 940 q 375 950 371 946 q 413 966 390 965 q 453 949 436 967 q 469 910 468 933 q 451 871 469 888 q 444 863 449 867 q 436 856 440 860 q 402 820 419 839 q 363 758 385 801 q 314 731 344 731 z "},"À":{"ha":642,"x_min":24,"x_max":614,"o":"m 133 4 q 114 8 122 4 q 78 61 78 19 q 81 78 78 69 q 87 108 83 86 q 94 158 90 129 q 103 222 99 188 q 111 289 107 256 l 115 324 q 98 323 106 324 q 83 321 90 322 l 79 321 q 42 335 58 321 q 24 372 26 349 l 24 379 q 38 414 24 399 q 75 432 51 429 q 100 434 86 433 q 129 438 114 435 q 149 574 139 506 q 171 704 160 642 q 214 871 192 815 q 229 906 221 890 q 246 932 238 921 q 283 963 265 956 q 315 969 301 969 l 317 969 q 353 960 338 969 q 380 940 368 951 q 399 916 392 928 q 410 897 406 904 q 465 743 436 846 q 493 626 479 692 q 522 482 507 561 l 553 486 l 561 486 q 595 474 579 486 q 614 438 611 461 l 614 429 q 602 395 614 411 q 567 376 590 379 l 542 372 l 589 69 l 589 61 q 577 26 589 43 q 542 7 565 10 l 533 7 q 499 19 515 7 q 479 54 482 31 q 455 215 467 139 q 431 360 443 290 l 228 336 q 225 306 226 321 q 221 276 224 292 q 201 118 208 172 q 185 42 193 64 q 164 15 178 25 q 133 4 150 4 m 243 449 q 328 459 285 454 q 411 468 371 464 q 390 575 400 526 q 371 665 381 624 q 341 772 354 732 q 318 832 328 811 q 313 817 315 825 q 307 797 310 808 q 274 647 290 740 q 258 550 265 600 q 243 449 250 500 m 369 1008 q 344 1015 358 1008 q 321 1036 331 1021 q 281 1098 297 1079 q 247 1133 264 1117 q 239 1141 243 1138 q 232 1149 235 1144 q 215 1186 215 1164 q 215 1199 215 1188 q 231 1226 215 1211 q 270 1244 247 1244 q 308 1228 293 1243 q 316 1221 313 1224 q 322 1214 319 1218 q 364 1170 342 1196 q 418 1090 386 1144 q 425 1065 425 1078 q 420 1042 425 1057 q 396 1015 415 1026 q 389 1012 393 1013 q 382 1010 385 1011 q 369 1008 376 1008 z "},"Á":{"ha":642,"x_min":24,"x_max":614,"o":"m 133 4 q 114 8 122 4 q 78 61 78 19 q 81 78 78 69 q 87 108 83 86 q 94 158 90 129 q 103 222 99 188 q 111 289 107 256 l 115 324 q 98 323 106 324 q 83 321 90 322 l 79 321 q 42 335 58 321 q 24 372 26 349 l 24 379 q 38 414 24 399 q 75 432 51 429 q 100 434 86 433 q 129 438 114 435 q 149 574 139 506 q 171 704 160 642 q 214 871 192 815 q 229 906 221 890 q 246 932 238 921 q 283 963 265 956 q 315 969 301 969 l 317 969 q 353 960 338 969 q 380 940 368 951 q 399 916 392 928 q 410 897 406 904 q 465 743 436 846 q 493 626 479 692 q 522 482 507 561 l 553 486 l 561 486 q 595 474 579 486 q 614 438 611 461 l 614 429 q 602 395 614 411 q 567 376 590 379 l 542 372 l 589 69 l 589 61 q 577 26 589 43 q 542 7 565 10 l 533 7 q 499 19 515 7 q 479 54 482 31 q 455 215 467 139 q 431 360 443 290 l 228 336 q 225 306 226 321 q 221 276 224 292 q 201 118 208 172 q 185 42 193 64 q 164 15 178 25 q 133 4 150 4 m 243 449 q 328 459 285 454 q 411 468 371 464 q 390 575 400 526 q 371 665 381 624 q 341 772 354 732 q 318 832 328 811 q 313 817 315 825 q 307 797 310 808 q 274 647 290 740 q 258 550 265 600 q 243 449 250 500 m 272 1008 l 260 1010 q 253 1012 257 1011 q 246 1015 249 1013 q 217 1065 217 1032 q 224 1090 217 1078 q 278 1170 256 1144 q 319 1214 300 1196 q 326 1221 322 1218 q 333 1228 329 1224 q 372 1244 349 1243 q 411 1226 394 1244 q 427 1188 426 1211 q 410 1149 428 1165 q 403 1141 407 1144 q 394 1133 399 1138 q 360 1098 378 1117 q 321 1036 343 1079 q 272 1008 303 1008 z "},"È":{"ha":656,"x_min":38,"x_max":631,"o":"m 400 3 l 332 3 q 258 4 288 3 q 208 7 228 6 q 177 10 189 8 q 158 15 165 13 q 113 58 129 26 q 104 78 108 67 q 96 111 100 90 q 88 163 92 132 q 81 238 85 193 q 72 401 75 308 q 38 453 38 417 q 47 483 38 469 q 71 503 56 496 q 72 628 71 567 q 75 742 72 689 q 79 814 76 786 q 85 858 82 842 q 90 882 88 875 q 93 892 92 889 q 142 940 106 926 q 213 960 178 954 q 365 968 271 968 q 440 966 404 968 q 505 963 476 964 q 551 959 533 961 q 571 957 569 957 q 608 939 594 954 q 621 906 621 924 l 621 897 q 603 860 618 874 q 568 847 588 847 l 561 847 l 547 849 q 508 851 532 850 q 452 854 483 853 q 388 856 421 856 l 343 856 q 246 851 283 856 q 194 843 208 847 q 191 805 193 832 q 186 725 189 778 q 183 624 183 678 q 182 514 182 569 l 219 517 l 500 533 q 535 519 519 533 q 553 482 551 506 l 553 475 q 539 440 553 456 q 501 422 525 425 l 226 406 l 183 403 q 192 236 186 306 q 201 156 196 183 q 210 118 206 129 q 322 114 239 114 l 399 114 q 463 115 432 114 q 518 117 494 117 q 557 119 542 118 l 572 119 l 576 119 q 613 105 597 119 q 631 67 629 90 l 631 63 q 616 26 631 42 q 578 8 601 11 l 563 8 q 523 6 547 7 q 467 4 499 6 q 400 3 435 3 m 376 1008 q 351 1015 365 1008 q 328 1036 338 1021 q 288 1098 304 1079 q 254 1133 271 1117 q 246 1141 250 1138 q 239 1149 242 1144 q 222 1186 222 1164 q 222 1199 222 1188 q 238 1226 222 1211 q 277 1244 254 1244 q 315 1228 300 1243 q 323 1221 319 1224 q 329 1214 326 1218 q 371 1170 349 1196 q 425 1090 393 1144 q 432 1065 432 1078 q 427 1042 432 1057 q 403 1015 422 1026 q 396 1012 400 1013 q 389 1010 392 1011 q 376 1008 383 1008 z "},"É":{"ha":656,"x_min":38,"x_max":631,"o":"m 400 3 l 332 3 q 258 4 288 3 q 208 7 228 6 q 177 10 189 8 q 158 15 165 13 q 113 58 129 26 q 104 78 108 67 q 96 111 100 90 q 88 163 92 132 q 81 238 85 193 q 72 401 75 308 q 38 453 38 417 q 47 483 38 469 q 71 503 56 496 q 72 628 71 567 q 75 742 72 689 q 79 814 76 786 q 85 858 82 842 q 90 882 88 875 q 93 892 92 889 q 142 940 106 926 q 213 960 178 954 q 365 968 271 968 q 440 966 404 968 q 505 963 476 964 q 551 959 533 961 q 571 957 569 957 q 608 939 594 954 q 621 906 621 924 l 621 897 q 603 860 618 874 q 568 847 588 847 l 561 847 l 547 849 q 508 851 532 850 q 452 854 483 853 q 388 856 421 856 l 343 856 q 246 851 283 856 q 194 843 208 847 q 191 805 193 832 q 186 725 189 778 q 183 624 183 678 q 182 514 182 569 l 219 517 l 500 533 q 535 519 519 533 q 553 482 551 506 l 553 475 q 539 440 553 456 q 501 422 525 425 l 226 406 l 183 403 q 192 236 186 306 q 201 156 196 183 q 210 118 206 129 q 322 114 239 114 l 399 114 q 463 115 432 114 q 518 117 494 117 q 557 119 542 118 l 572 119 l 576 119 q 613 105 597 119 q 631 67 629 90 l 631 63 q 616 26 631 42 q 578 8 601 11 l 563 8 q 523 6 547 7 q 467 4 499 6 q 400 3 435 3 m 279 1008 l 267 1010 q 260 1012 264 1011 q 253 1015 256 1013 q 224 1065 224 1032 q 231 1090 224 1078 q 285 1170 263 1144 q 326 1214 307 1196 q 333 1221 329 1218 q 340 1228 336 1224 q 378 1244 356 1243 q 418 1226 401 1244 q 434 1188 433 1211 q 417 1149 435 1165 q 410 1141 414 1144 q 401 1133 406 1138 q 367 1098 385 1117 q 328 1036 350 1079 q 279 1008 310 1008 z "},"Ì":{"ha":689,"x_min":36,"x_max":658,"o":"m 328 1 l 326 1 q 293 12 307 1 q 274 39 279 22 q 215 30 243 35 q 158 19 186 25 q 135 17 147 18 q 113 13 124 15 q 104 11 110 11 q 69 24 85 11 q 49 57 53 38 l 49 65 q 60 101 49 85 q 94 122 71 118 q 117 125 106 124 q 139 129 128 126 q 202 140 171 135 q 268 150 233 146 q 264 272 265 208 q 260 400 263 336 q 252 618 256 511 q 247 808 249 725 q 156 811 196 808 q 83 818 115 814 q 48 838 60 821 q 36 872 36 854 l 36 881 q 56 916 39 904 q 90 928 72 928 l 99 928 q 153 922 118 925 q 247 919 189 919 q 266 953 250 939 q 303 967 282 967 q 339 953 324 967 q 357 919 354 939 q 586 928 450 919 l 603 929 q 642 913 626 929 q 658 874 658 897 q 643 834 658 850 q 604 818 628 818 l 593 817 q 358 808 461 810 q 363 620 360 726 q 371 403 367 514 q 375 278 374 340 q 379 157 376 215 l 413 157 q 492 154 446 157 q 606 142 539 151 q 641 122 629 139 q 653 88 653 106 l 653 79 q 633 44 650 56 q 599 32 617 32 l 590 32 q 411 46 483 46 l 381 46 q 362 14 376 26 q 328 1 347 1 m 393 1008 q 368 1015 382 1008 q 344 1036 354 1021 q 304 1098 321 1079 q 271 1133 288 1117 q 263 1141 267 1138 q 256 1149 258 1144 q 239 1186 239 1164 q 239 1199 239 1188 q 254 1226 239 1211 q 294 1244 271 1244 q 332 1228 317 1243 q 340 1221 336 1224 q 346 1214 343 1218 q 388 1170 365 1196 q 442 1090 410 1144 q 449 1065 449 1078 q 444 1042 449 1057 q 419 1015 439 1026 q 413 1012 417 1013 q 406 1010 408 1011 q 393 1008 400 1008 z "},"Í":{"ha":689,"x_min":36,"x_max":658,"o":"m 328 1 l 326 1 q 293 12 307 1 q 274 39 279 22 q 215 30 243 35 q 158 19 186 25 q 135 17 147 18 q 113 13 124 15 q 104 11 110 11 q 69 24 85 11 q 49 57 53 38 l 49 65 q 60 101 49 85 q 94 122 71 118 q 117 125 106 124 q 139 129 128 126 q 202 140 171 135 q 268 150 233 146 q 264 272 265 208 q 260 400 263 336 q 252 618 256 511 q 247 808 249 725 q 156 811 196 808 q 83 818 115 814 q 48 838 60 821 q 36 872 36 854 l 36 881 q 56 916 39 904 q 90 928 72 928 l 99 928 q 153 922 118 925 q 247 919 189 919 q 266 953 250 939 q 303 967 282 967 q 339 953 324 967 q 357 919 354 939 q 586 928 450 919 l 603 929 q 642 913 626 929 q 658 874 658 897 q 643 834 658 850 q 604 818 628 818 l 593 817 q 358 808 461 810 q 363 620 360 726 q 371 403 367 514 q 375 278 374 340 q 379 157 376 215 l 413 157 q 492 154 446 157 q 606 142 539 151 q 641 122 629 139 q 653 88 653 106 l 653 79 q 633 44 650 56 q 599 32 617 32 l 590 32 q 411 46 483 46 l 381 46 q 362 14 376 26 q 328 1 347 1 m 296 1008 l 283 1010 q 276 1012 281 1011 q 269 1015 272 1013 q 240 1065 240 1032 q 247 1090 240 1078 q 301 1170 279 1144 q 343 1214 324 1196 q 349 1221 346 1218 q 357 1228 353 1224 q 395 1244 372 1243 q 435 1226 418 1244 q 451 1188 450 1211 q 433 1149 451 1165 q 426 1141 431 1144 q 418 1133 422 1138 q 384 1098 401 1117 q 344 1036 367 1079 q 296 1008 326 1008 z "},"Ò":{"ha":824,"x_min":40,"x_max":785,"o":"m 404 1 q 153 108 251 1 q 64 275 92 175 q 40 446 40 354 l 42 490 q 76 663 49 581 q 150 810 104 744 q 268 921 200 881 q 431 965 344 965 q 653 872 563 965 q 754 696 719 803 q 785 493 785 600 l 785 467 q 756 295 781 375 q 689 153 732 215 q 404 1 581 1 m 404 111 q 520 142 471 111 q 603 224 569 174 q 653 338 636 274 q 674 469 671 403 l 674 489 q 648 660 674 578 q 574 794 622 743 q 432 856 515 856 q 319 822 369 854 q 234 737 269 789 q 178 618 199 685 q 153 482 157 551 l 151 439 q 171 301 151 371 q 235 183 190 232 q 397 113 297 114 l 404 111 m 460 1008 q 435 1015 449 1008 q 411 1036 421 1021 q 371 1098 388 1079 q 338 1133 354 1117 q 329 1141 333 1138 q 322 1149 325 1144 q 306 1186 306 1164 q 306 1199 306 1188 q 321 1226 306 1211 q 360 1244 338 1244 q 399 1228 383 1243 q 406 1221 403 1224 q 413 1214 410 1218 q 454 1170 432 1196 q 508 1090 476 1144 q 515 1065 515 1078 q 510 1042 515 1057 q 486 1015 506 1026 q 479 1012 483 1013 q 472 1010 475 1011 q 460 1008 467 1008 z "},"Ó":{"ha":824,"x_min":40,"x_max":785,"o":"m 404 1 q 153 108 251 1 q 64 275 92 175 q 40 446 40 354 l 42 490 q 76 663 49 581 q 150 810 104 744 q 268 921 200 881 q 431 965 344 965 q 653 872 563 965 q 754 696 719 803 q 785 493 785 600 l 785 467 q 756 295 781 375 q 689 153 732 215 q 404 1 581 1 m 404 111 q 520 142 471 111 q 603 224 569 174 q 653 338 636 274 q 674 469 671 403 l 674 489 q 648 660 674 578 q 574 794 622 743 q 432 856 515 856 q 319 822 369 854 q 234 737 269 789 q 178 618 199 685 q 153 482 157 551 l 151 439 q 171 301 151 371 q 235 183 190 232 q 397 113 297 114 l 404 111 m 363 1008 l 350 1010 q 343 1012 347 1011 q 336 1015 339 1013 q 307 1065 307 1032 q 314 1090 307 1078 q 368 1170 346 1144 q 410 1214 390 1196 q 416 1221 413 1218 q 424 1228 419 1224 q 462 1244 439 1243 q 501 1226 485 1244 q 517 1188 517 1211 q 500 1149 518 1165 q 493 1141 497 1144 q 485 1133 489 1138 q 451 1098 468 1117 q 411 1036 433 1079 q 363 1008 393 1008 z "},"Ù":{"ha":690,"x_min":39,"x_max":653,"o":"m 333 1 q 203 47 263 1 q 103 173 143 93 q 49 358 64 253 q 39 500 39 425 q 43 603 39 550 q 63 751 50 675 q 100 907 76 828 q 150 949 110 949 q 168 946 158 949 q 208 892 208 933 l 207 878 q 150 496 150 675 q 158 374 150 432 q 200 229 171 290 q 269 138 229 168 q 336 111 303 111 q 386 129 360 111 q 463 213 429 154 q 515 356 496 272 q 542 603 542 464 q 517 903 542 742 l 515 914 q 527 947 515 931 q 563 967 539 963 l 571 967 q 606 955 589 967 q 626 921 622 943 q 647 747 640 831 q 653 588 653 664 q 624 331 650 444 q 443 33 574 111 q 333 1 390 1 m 393 1008 q 368 1015 382 1008 q 344 1036 354 1021 q 304 1098 321 1079 q 271 1133 288 1117 q 263 1141 267 1138 q 256 1149 258 1144 q 239 1186 239 1164 q 239 1199 239 1188 q 254 1226 239 1211 q 294 1244 271 1244 q 332 1228 317 1243 q 340 1221 336 1224 q 346 1214 343 1218 q 388 1170 365 1196 q 442 1090 410 1144 q 449 1065 449 1078 q 444 1042 449 1057 q 419 1015 439 1026 q 413 1012 417 1013 q 406 1010 408 1011 q 393 1008 400 1008 z "},"Ú":{"ha":690,"x_min":39,"x_max":653,"o":"m 333 1 q 203 47 263 1 q 103 173 143 93 q 49 358 64 253 q 39 500 39 425 q 43 603 39 550 q 63 751 50 675 q 100 907 76 828 q 150 949 110 949 q 168 946 158 949 q 208 892 208 933 l 207 878 q 150 496 150 675 q 158 374 150 432 q 200 229 171 290 q 269 138 229 168 q 336 111 303 111 q 386 129 360 111 q 463 213 429 154 q 515 356 496 272 q 542 603 542 464 q 517 903 542 742 l 515 914 q 527 947 515 931 q 563 967 539 963 l 571 967 q 606 955 589 967 q 626 921 622 943 q 647 747 640 831 q 653 588 653 664 q 624 331 650 444 q 443 33 574 111 q 333 1 390 1 m 296 1008 l 283 1010 q 276 1012 281 1011 q 269 1015 272 1013 q 240 1065 240 1032 q 247 1090 240 1078 q 301 1170 279 1144 q 343 1214 324 1196 q 349 1221 346 1218 q 357 1228 353 1224 q 395 1244 372 1243 q 435 1226 418 1244 q 451 1188 450 1211 q 433 1149 451 1165 q 426 1141 431 1144 q 418 1133 422 1138 q 384 1098 401 1117 q 344 1036 367 1079 q 296 1008 326 1008 z "},"Ý":{"ha":632,"x_min":24,"x_max":610,"o":"m 311 3 q 271 19 286 3 q 256 56 256 35 l 256 60 q 258 151 257 110 q 258 233 258 193 q 256 316 258 274 q 253 410 254 358 q 239 418 246 414 q 225 429 232 422 q 93 661 156 483 q 65 746 78 704 q 44 820 53 788 q 30 873 35 853 q 25 896 25 893 l 24 910 q 34 940 24 924 q 67 961 44 957 l 81 963 q 112 952 96 963 q 133 919 128 942 l 138 900 q 150 851 142 881 q 169 782 158 821 q 196 703 181 743 q 261 557 226 614 q 294 515 282 524 q 307 507 306 507 q 317 513 308 507 q 341 538 325 518 q 378 598 357 558 q 428 707 400 638 q 457 788 444 749 q 479 857 469 826 q 494 907 489 888 l 500 926 q 525 961 506 949 q 550 968 538 968 q 567 965 558 968 q 610 915 610 956 q 607 899 610 907 q 601 875 607 896 q 585 822 596 854 q 561 747 575 789 q 529 661 547 704 q 389 428 463 490 q 376 419 382 424 q 364 411 371 414 q 367 316 365 358 q 369 233 368 274 q 369 149 369 192 q 367 56 368 107 q 350 18 365 33 q 311 3 335 3 m 267 1008 l 254 1010 q 247 1012 251 1011 q 240 1015 243 1013 q 211 1065 211 1032 q 218 1090 211 1078 q 272 1170 250 1144 q 314 1214 294 1196 q 320 1221 317 1218 q 328 1228 324 1224 q 366 1244 343 1243 q 406 1226 389 1244 q 422 1188 421 1211 q 404 1149 422 1165 q 397 1141 401 1144 q 389 1133 393 1138 q 355 1098 372 1117 q 315 1036 338 1079 q 267 1008 297 1008 z "},"ý":{"ha":626,"x_min":32,"x_max":608,"o":"m 214 -349 q 194 -346 206 -349 q 158 -292 158 -332 q 161 -274 158 -283 q 216 -135 189 -201 q 271 -4 243 -68 l 300 67 q 242 197 271 138 q 181 315 213 256 q 112 451 147 381 q 36 615 76 521 q 32 638 32 626 q 38 664 32 649 q 65 689 44 679 q 88 693 76 693 q 114 687 99 693 q 139 660 129 681 q 213 499 178 568 q 279 367 247 431 q 319 290 300 328 q 358 211 339 251 q 430 409 394 303 q 499 649 465 515 q 553 690 511 690 l 567 689 q 608 635 608 676 l 607 621 q 549 419 578 511 q 490 247 519 328 q 431 94 461 167 q 372 -47 401 22 q 318 -178 344 -114 q 265 -312 292 -242 q 244 -339 258 -329 q 214 -349 231 -349 m 264 731 l 251 732 q 244 734 249 733 q 238 738 240 735 q 208 788 208 754 q 215 813 208 800 q 269 892 247 867 q 311 936 292 918 q 317 943 314 940 q 325 950 321 946 q 363 966 340 965 q 403 949 386 967 q 419 910 418 933 q 401 871 419 888 q 394 863 399 867 q 386 856 390 860 q 352 820 369 839 q 313 758 335 801 q 264 731 294 731 z "},"ú":{"ha":617,"x_min":40,"x_max":579,"o":"m 524 4 q 494 13 508 4 q 472 38 479 22 q 436 160 447 94 q 257 13 374 13 q 40 424 51 13 q 42 506 40 467 q 45 576 43 546 q 49 624 47 606 q 51 643 51 642 q 70 679 54 667 q 104 692 86 692 l 113 692 q 149 672 136 689 q 161 638 161 656 l 161 629 l 160 613 q 156 567 158 594 q 153 502 154 539 q 151 424 151 465 q 169 252 154 324 q 211 147 183 181 q 260 124 232 124 q 294 139 279 124 q 315 165 303 147 q 338 214 326 182 q 360 294 350 246 q 378 413 371 343 q 383 493 382 454 q 385 561 385 532 l 385 631 q 399 667 385 651 q 435 685 413 682 l 443 685 q 476 672 461 685 q 494 636 492 658 q 506 540 501 589 q 514 442 510 490 q 534 244 522 340 q 574 83 546 147 q 579 61 579 72 q 573 35 579 51 q 546 10 567 19 q 524 4 532 4 m 260 731 l 247 732 q 240 734 244 733 q 233 738 236 735 q 204 788 204 754 q 211 813 204 800 q 265 892 243 867 q 307 936 288 918 q 313 943 310 940 q 321 950 317 946 q 359 966 336 965 q 399 949 382 967 q 415 910 414 933 q 397 871 415 888 q 390 863 394 867 q 382 856 386 860 q 348 820 365 839 q 308 758 331 801 q 260 731 290 731 z "},"ù":{"ha":617,"x_min":40,"x_max":579,"o":"m 524 4 q 494 13 508 4 q 472 38 479 22 q 436 160 447 94 q 257 13 374 13 q 40 424 51 13 q 42 506 40 467 q 45 576 43 546 q 49 624 47 606 q 51 643 51 642 q 70 679 54 667 q 104 692 86 692 l 113 692 q 149 672 136 689 q 161 638 161 656 l 161 629 l 160 613 q 156 567 158 594 q 153 502 154 539 q 151 424 151 465 q 169 252 154 324 q 211 147 183 181 q 260 124 232 124 q 294 139 279 124 q 315 165 303 147 q 338 214 326 182 q 360 294 350 246 q 378 413 371 343 q 383 493 382 454 q 385 561 385 532 l 385 631 q 399 667 385 651 q 435 685 413 682 l 443 685 q 476 672 461 685 q 494 636 492 658 q 506 540 501 589 q 514 442 510 490 q 534 244 522 340 q 574 83 546 147 q 579 61 579 72 q 573 35 579 51 q 546 10 567 19 q 524 4 532 4 m 357 731 q 332 737 346 731 q 308 758 318 743 q 268 820 285 801 q 235 856 251 839 q 226 863 231 860 q 219 871 222 867 q 203 908 203 886 q 203 922 203 910 q 218 949 203 933 q 258 966 235 967 q 296 950 281 965 q 303 943 300 946 q 310 936 307 940 q 351 892 329 918 q 406 813 374 867 q 413 788 413 800 q 408 764 413 779 q 383 738 403 749 q 376 734 381 735 q 369 732 372 733 q 357 731 364 731 z "},"ó":{"ha":646,"x_min":35,"x_max":608,"o":"m 315 6 q 118 86 194 6 q 53 203 74 132 q 35 319 35 257 l 35 336 q 58 463 38 401 q 113 574 78 525 q 211 661 154 631 q 335 692 268 692 q 515 617 443 692 q 608 357 608 521 q 533 111 608 211 q 315 6 449 6 m 315 115 q 397 135 363 115 q 452 188 431 156 q 485 259 474 219 q 497 338 496 299 l 497 354 q 482 457 497 407 q 435 540 467 507 q 336 582 393 582 q 257 560 292 582 q 198 502 222 538 q 160 422 174 467 q 146 332 147 378 l 146 315 q 159 231 146 272 q 200 163 172 190 q 315 115 242 115 m 274 731 l 261 732 q 254 734 258 733 q 247 738 250 735 q 218 788 218 754 q 225 813 218 800 q 279 892 257 867 q 321 936 301 918 q 327 943 324 940 q 335 950 331 946 q 373 966 350 965 q 413 949 396 967 q 428 910 428 933 q 411 871 429 888 q 404 863 408 867 q 396 856 400 860 q 362 820 379 839 q 322 758 344 801 q 274 731 304 731 z "},"ò":{"ha":646,"x_min":35,"x_max":608,"o":"m 315 6 q 118 86 194 6 q 53 203 74 132 q 35 319 35 257 l 35 336 q 58 463 38 401 q 113 574 78 525 q 211 661 154 631 q 335 692 268 692 q 515 617 443 692 q 608 357 608 521 q 533 111 608 211 q 315 6 449 6 m 315 115 q 397 135 363 115 q 452 188 431 156 q 485 259 474 219 q 497 338 496 299 l 497 354 q 482 457 497 407 q 435 540 467 507 q 336 582 393 582 q 257 560 292 582 q 198 502 222 538 q 160 422 174 467 q 146 332 147 378 l 146 315 q 159 231 146 272 q 200 163 172 190 q 315 115 242 115 m 371 731 q 346 737 360 731 q 322 758 332 743 q 282 820 299 801 q 249 856 265 839 q 240 863 244 860 q 233 871 236 867 q 217 908 217 886 q 217 922 217 910 q 232 949 217 933 q 272 966 249 967 q 310 950 294 965 q 317 943 314 946 q 324 936 321 940 q 365 892 343 918 q 419 813 388 867 q 426 788 426 800 q 422 764 426 779 q 397 738 417 749 q 390 734 394 735 q 383 732 386 733 q 371 731 378 731 z "},"é":{"ha":661,"x_min":31,"x_max":626,"o":"m 333 4 q 89 154 144 4 q 68 274 68 207 q 72 333 68 303 l 63 338 q 31 389 31 353 q 36 411 31 400 q 88 443 53 443 l 101 442 q 138 517 117 481 q 185 582 158 553 q 415 692 281 692 l 426 692 q 581 551 581 663 q 563 483 581 524 q 494 397 546 442 q 430 353 465 374 q 354 321 394 333 q 271 303 314 308 q 226 300 249 300 q 181 303 204 300 l 179 275 q 181 240 179 261 q 191 195 182 219 q 217 153 200 171 q 260 128 233 136 q 335 115 299 115 q 410 132 375 115 q 458 164 438 144 q 492 201 478 183 q 513 232 506 218 l 518 244 q 568 279 535 279 q 592 274 579 279 q 626 224 626 260 q 621 201 626 213 q 611 180 621 199 q 581 135 601 161 q 531 80 561 108 q 457 32 500 51 q 333 4 397 4 m 282 731 l 269 732 q 263 734 267 733 q 256 738 258 735 q 226 788 226 754 q 233 813 226 800 q 288 892 265 867 q 329 936 310 918 q 335 943 332 940 q 343 950 339 946 q 381 966 358 965 q 421 949 404 967 q 437 910 436 933 q 419 871 438 888 q 413 863 417 867 q 404 856 408 860 q 370 820 388 839 q 331 758 353 801 q 282 731 313 731 m 229 413 q 332 431 281 413 q 422 482 383 449 q 469 551 469 522 l 469 556 q 456 567 468 560 q 414 581 444 575 l 408 581 q 327 558 363 581 q 268 508 292 535 q 208 413 232 468 l 229 413 z "},"è":{"ha":661,"x_min":31,"x_max":626,"o":"m 333 4 q 89 154 144 4 q 68 274 68 207 q 72 333 68 303 l 63 338 q 31 389 31 353 q 36 411 31 400 q 88 443 53 443 l 101 442 q 138 517 117 481 q 185 582 158 553 q 415 692 281 692 l 426 692 q 581 551 581 663 q 563 483 581 524 q 494 397 546 442 q 430 353 465 374 q 354 321 394 333 q 271 303 314 308 q 226 300 249 300 q 181 303 204 300 l 179 275 q 181 240 179 261 q 191 195 182 219 q 217 153 200 171 q 260 128 233 136 q 335 115 299 115 q 410 132 375 115 q 458 164 438 144 q 492 201 478 183 q 513 232 506 218 l 518 244 q 568 279 535 279 q 592 274 579 279 q 626 224 626 260 q 621 201 626 213 q 611 180 621 199 q 581 135 601 161 q 531 80 561 108 q 457 32 500 51 q 333 4 397 4 m 379 731 q 354 737 368 731 q 331 758 340 743 q 290 820 307 801 q 257 856 274 839 q 249 863 253 860 q 242 871 244 867 q 225 908 225 886 q 225 922 225 910 q 240 949 225 933 q 280 966 257 967 q 318 950 303 965 q 326 943 322 946 q 332 936 329 940 q 374 892 351 918 q 428 813 396 867 q 435 788 435 800 q 430 764 435 779 q 406 738 425 749 q 399 734 403 735 q 392 732 394 733 q 379 731 386 731 m 229 413 q 332 431 281 413 q 422 482 383 449 q 469 551 469 522 l 469 556 q 456 567 468 560 q 414 581 444 575 l 408 581 q 327 558 363 581 q 268 508 292 535 q 208 413 232 468 l 229 413 z "},"á":{"ha":675,"x_min":40,"x_max":650,"o":"m 594 1 q 563 13 575 1 q 435 200 476 72 l 435 203 q 404 136 421 168 q 362 75 383 99 q 319 38 340 51 q 279 19 299 25 q 244 14 260 14 l 239 14 q 115 81 168 14 q 40 328 40 174 q 42 377 40 339 q 61 476 43 415 q 113 585 81 539 q 186 658 144 631 q 288 689 235 689 q 326 687 293 689 q 415 642 360 685 q 438 599 438 624 q 424 563 438 581 q 389 543 411 546 l 379 542 q 349 554 363 542 q 288 578 317 578 q 246 565 267 578 q 168 444 194 531 q 151 333 151 392 q 162 238 151 286 q 197 158 172 190 q 240 125 221 125 l 242 125 q 273 142 256 125 q 307 190 290 160 q 397 504 364 293 q 453 551 406 551 l 457 551 q 494 533 479 549 q 508 496 508 518 q 626 101 508 193 q 650 57 650 85 q 641 27 650 40 q 619 8 632 14 q 594 1 607 1 m 289 731 l 276 732 q 269 734 274 733 q 263 738 265 735 q 233 788 233 754 q 240 813 233 800 q 294 892 272 867 q 336 936 317 918 q 342 943 339 940 q 350 950 346 946 q 388 966 365 965 q 428 949 411 967 q 444 910 443 933 q 426 871 444 888 q 419 863 424 867 q 411 856 415 860 q 377 820 394 839 q 338 758 360 801 q 289 731 319 731 z "},"à":{"ha":675,"x_min":40,"x_max":650,"o":"m 594 1 q 563 13 575 1 q 435 200 476 72 l 435 203 q 404 136 421 168 q 362 75 383 99 q 319 38 340 51 q 279 19 299 25 q 244 14 260 14 l 239 14 q 115 81 168 14 q 40 328 40 174 q 42 377 40 339 q 61 476 43 415 q 113 585 81 539 q 186 658 144 631 q 288 689 235 689 q 326 687 293 689 q 415 642 360 685 q 438 599 438 624 q 424 563 438 581 q 389 543 411 546 l 379 542 q 349 554 363 542 q 288 578 317 578 q 246 565 267 578 q 168 444 194 531 q 151 333 151 392 q 162 238 151 286 q 197 158 172 190 q 240 125 221 125 l 242 125 q 273 142 256 125 q 307 190 290 160 q 397 504 364 293 q 453 551 406 551 l 457 551 q 494 533 479 549 q 508 496 508 518 q 626 101 508 193 q 650 57 650 85 q 641 27 650 40 q 619 8 632 14 q 594 1 607 1 m 386 731 q 361 737 375 731 q 338 758 347 743 q 297 820 314 801 q 264 856 281 839 q 256 863 260 860 q 249 871 251 867 q 232 908 232 886 q 232 922 232 910 q 247 949 232 933 q 287 966 264 967 q 325 950 310 965 q 333 943 329 946 q 339 936 336 940 q 381 892 358 918 q 435 813 403 867 q 442 788 442 800 q 437 764 442 779 q 413 738 432 749 q 406 734 410 735 q 399 732 401 733 q 386 731 393 731 z "},".":{"ha":203,"x_min":33,"x_max":169,"o":"m 101 10 q 53 31 74 10 q 33 81 33 51 q 53 132 33 111 q 101 153 74 153 q 149 132 129 153 q 169 81 169 111 q 149 31 169 51 q 101 10 129 10 z "},"·":{"ha":203,"x_min":33,"x_max":169,"o":"m 101 354 q 53 375 74 354 q 33 425 33 396 q 53 476 33 456 q 101 497 74 497 q 149 476 129 497 q 169 425 169 456 q 149 375 169 396 q 101 354 129 354 z "},"˚":{"ha":294,"x_min":35,"x_max":261,"o":"m 146 700 q 66 735 97 700 q 35 822 35 769 q 65 918 35 881 q 151 963 101 963 q 224 932 194 963 q 252 886 243 913 q 261 829 261 860 q 233 744 258 781 q 146 700 200 700 m 146 783 q 163 790 157 783 q 172 806 169 797 q 176 822 175 814 q 178 831 178 829 q 164 874 178 860 q 151 879 160 879 q 127 862 135 879 q 118 829 119 844 l 118 821 q 146 783 118 785 z "},"Å":{"ha":642,"x_min":24,"x_max":614,"o":"m 133 4 q 114 8 122 4 q 78 61 78 19 q 81 78 78 69 q 87 108 83 86 q 94 158 90 129 q 103 222 99 188 q 111 289 107 256 l 115 324 q 98 323 106 324 q 83 321 90 322 l 79 321 q 42 335 58 321 q 24 372 26 349 l 24 379 q 38 414 24 399 q 75 432 51 429 q 100 434 86 433 q 129 438 114 435 q 149 574 139 506 q 171 704 160 642 q 214 871 192 815 q 229 906 221 890 q 246 932 238 921 q 283 963 265 956 q 315 969 301 969 l 317 969 q 353 960 338 969 q 380 940 368 951 q 399 916 392 928 q 410 897 406 904 q 465 743 436 846 q 493 626 479 692 q 522 482 507 561 l 553 486 l 561 486 q 595 474 579 486 q 614 438 611 461 l 614 429 q 602 395 614 411 q 567 376 590 379 l 542 372 l 589 69 l 589 61 q 577 26 589 43 q 542 7 565 10 l 533 7 q 499 19 515 7 q 479 54 482 31 q 455 215 467 139 q 431 360 443 290 l 228 336 q 225 306 226 321 q 221 276 224 292 q 201 118 208 172 q 185 42 193 64 q 164 15 178 25 q 133 4 150 4 m 319 978 q 240 1013 271 978 q 208 1100 208 1047 q 239 1196 208 1158 q 325 1240 275 1240 q 397 1210 368 1240 q 426 1164 417 1190 q 435 1107 435 1138 q 407 1022 432 1058 q 319 978 374 978 m 243 449 q 328 459 285 454 q 411 468 371 464 q 390 575 400 526 q 371 665 381 624 q 341 772 354 732 q 318 832 328 811 q 313 817 315 825 q 307 797 310 808 q 274 647 290 740 q 258 550 265 600 q 243 449 250 500 m 319 1061 q 337 1068 331 1061 q 346 1083 343 1075 q 350 1099 349 1092 q 351 1108 351 1107 q 338 1151 351 1138 q 325 1157 333 1157 q 301 1140 308 1157 q 292 1107 293 1122 l 292 1099 q 319 1061 292 1063 z "},"å":{"ha":675,"x_min":40,"x_max":650,"o":"m 594 1 q 563 13 575 1 q 435 200 476 72 l 435 203 q 404 136 421 168 q 362 75 383 99 q 319 38 340 51 q 279 19 299 25 q 244 14 260 14 l 239 14 q 115 81 168 14 q 40 328 40 174 q 42 377 40 339 q 61 476 43 415 q 113 585 81 539 q 186 658 144 631 q 288 689 235 689 q 326 687 293 689 q 415 642 360 685 q 438 599 438 624 q 424 563 438 581 q 389 543 411 546 l 379 542 q 349 554 363 542 q 288 578 317 578 q 246 565 267 578 q 168 444 194 531 q 151 333 151 392 q 162 238 151 286 q 197 158 172 190 q 240 125 221 125 l 242 125 q 273 142 256 125 q 307 190 290 160 q 397 504 364 293 q 453 551 406 551 l 457 551 q 494 533 479 549 q 508 496 508 518 q 626 101 508 193 q 650 57 650 85 q 641 27 650 40 q 619 8 632 14 q 594 1 607 1 m 271 700 q 191 735 222 700 q 160 822 160 769 q 190 918 160 881 q 276 963 226 963 q 349 932 319 963 q 377 886 368 913 q 386 829 386 860 q 358 744 383 781 q 271 700 325 700 m 271 783 q 288 790 282 783 q 297 806 294 797 q 301 822 300 814 q 303 831 303 829 q 289 874 303 860 q 276 879 285 879 q 252 862 260 879 q 243 829 244 844 l 243 821 q 271 783 243 785 z "},"˜":{"ha":471,"x_min":40,"x_max":428,"o":"m 96 732 q 47 763 61 732 q 40 788 40 775 q 43 804 40 796 q 60 846 49 825 q 87 885 71 867 q 123 916 103 903 q 167 932 143 929 q 190 933 176 933 q 218 926 203 932 q 249 906 233 919 q 279 869 264 893 q 299 853 288 857 q 315 849 310 849 l 314 872 q 326 905 314 889 q 361 924 338 921 l 372 925 q 405 913 389 925 q 425 878 421 901 q 428 849 428 863 q 408 785 428 813 q 357 746 388 757 q 313 738 335 738 q 263 747 288 738 q 186 810 214 767 l 179 819 q 164 803 172 815 q 149 771 156 790 q 128 742 143 753 q 96 732 114 732 z "},"Ñ":{"ha":689,"x_min":46,"x_max":643,"o":"m 563 3 l 554 3 q 530 8 543 3 q 501 29 517 14 q 490 44 494 36 q 478 63 485 51 q 454 104 467 79 q 426 161 442 129 q 366 295 399 219 q 300 450 333 371 q 238 594 268 522 q 181 724 208 665 q 169 747 174 736 q 160 768 164 758 q 158 748 158 758 q 158 725 158 738 q 157 646 157 689 q 157 578 157 625 q 160 446 157 531 q 164 306 161 374 q 169 185 167 238 q 172 100 171 132 l 174 68 l 174 61 q 160 26 174 42 q 122 10 146 11 l 115 10 q 81 24 96 10 q 64 61 65 38 q 62 97 64 63 q 58 188 60 132 q 52 317 56 244 q 47 465 49 389 l 46 628 q 47 756 46 700 q 52 838 49 806 q 60 892 56 871 q 72 926 65 914 q 86 947 78 939 q 132 968 107 968 q 181 947 163 968 q 214 903 200 926 q 269 797 235 868 q 333 655 299 735 q 401 493 367 575 q 460 358 431 425 q 514 235 489 290 l 526 208 q 528 225 528 217 q 528 243 528 233 q 531 367 531 297 q 531 524 532 438 q 528 664 529 596 q 525 785 526 732 q 522 871 524 838 l 521 903 l 521 907 q 535 944 521 928 q 574 961 550 960 l 578 961 q 615 946 599 961 q 631 907 631 931 l 633 871 q 636 774 635 833 q 640 639 638 714 q 642 485 642 564 l 643 397 q 642 299 643 356 q 638 190 640 243 q 632 131 635 157 q 626 86 629 106 q 621 64 624 74 q 615 47 618 54 q 589 13 604 21 q 563 3 574 4 m 206 1010 q 157 1040 171 1010 q 150 1065 150 1053 q 153 1082 150 1074 q 169 1124 158 1103 q 197 1163 181 1144 q 233 1194 213 1181 q 276 1210 253 1207 q 299 1210 286 1211 q 328 1203 313 1210 q 358 1184 343 1197 q 389 1147 374 1171 q 408 1131 397 1135 q 425 1126 419 1126 l 424 1150 q 435 1183 424 1167 q 471 1201 447 1199 l 482 1203 q 515 1191 499 1203 q 535 1156 531 1179 q 538 1126 538 1140 q 517 1063 538 1090 q 467 1024 497 1035 q 422 1015 444 1015 q 372 1025 397 1015 q 296 1088 324 1044 l 289 1097 q 274 1081 282 1093 q 258 1049 265 1068 q 238 1020 253 1031 q 206 1010 224 1010 z "},"ñ":{"ha":615,"x_min":43,"x_max":576,"o":"m 140 0 q 102 15 118 0 q 85 51 86 31 l 43 635 q 57 670 43 654 q 94 688 71 686 l 101 688 q 136 674 121 688 q 153 636 151 660 l 164 490 q 178 523 171 508 q 193 553 186 538 q 360 667 260 667 q 476 614 428 667 q 574 279 561 522 q 576 198 575 236 q 575 130 576 160 q 573 82 574 100 q 572 63 572 64 q 554 26 569 40 q 517 11 539 11 q 476 28 492 11 q 461 67 461 46 l 461 71 l 463 88 q 464 133 463 104 q 465 198 465 161 q 463 275 464 235 q 451 388 458 342 q 433 465 443 435 q 413 513 422 496 q 394 539 403 531 q 375 553 383 550 q 360 556 367 556 q 229 322 281 556 q 211 224 218 272 q 201 139 204 176 q 196 78 197 101 l 194 54 q 178 17 194 32 q 140 0 163 1 m 168 732 q 119 763 133 732 q 113 788 113 775 q 115 804 113 796 q 132 846 121 825 q 159 885 143 867 q 195 916 175 903 q 239 932 215 929 q 262 933 249 933 q 290 926 275 932 q 321 906 306 919 q 351 869 336 893 q 371 853 360 857 q 388 849 382 849 l 386 872 q 398 905 386 889 q 433 924 410 921 l 444 925 q 477 913 461 925 q 497 878 493 901 q 500 849 500 863 q 480 785 500 813 q 429 746 460 757 q 385 738 407 738 q 335 747 360 738 q 258 810 286 767 l 251 819 q 236 803 244 815 q 221 771 228 790 q 201 742 215 753 q 168 732 186 732 z "},"Ã":{"ha":642,"x_min":24,"x_max":614,"o":"m 133 4 q 114 8 122 4 q 78 61 78 19 q 81 78 78 69 q 87 108 83 86 q 94 158 90 129 q 103 222 99 188 q 111 289 107 256 l 115 324 q 98 323 106 324 q 83 321 90 322 l 79 321 q 42 335 58 321 q 24 372 26 349 l 24 379 q 38 414 24 399 q 75 432 51 429 q 100 434 86 433 q 129 438 114 435 q 149 574 139 506 q 171 704 160 642 q 214 871 192 815 q 229 906 221 890 q 246 932 238 921 q 283 963 265 956 q 315 969 301 969 l 317 969 q 353 960 338 969 q 380 940 368 951 q 399 916 392 928 q 410 897 406 904 q 465 743 436 846 q 493 626 479 692 q 522 482 507 561 l 553 486 l 561 486 q 595 474 579 486 q 614 438 611 461 l 614 429 q 602 395 614 411 q 567 376 590 379 l 542 372 l 589 69 l 589 61 q 577 26 589 43 q 542 7 565 10 l 533 7 q 499 19 515 7 q 479 54 482 31 q 455 215 467 139 q 431 360 443 290 l 228 336 q 225 306 226 321 q 221 276 224 292 q 201 118 208 172 q 185 42 193 64 q 164 15 178 25 q 133 4 150 4 m 182 1010 q 133 1040 147 1010 q 126 1065 126 1053 q 129 1082 126 1074 q 146 1124 135 1103 q 173 1163 157 1144 q 209 1194 189 1181 q 253 1210 229 1207 q 276 1210 263 1211 q 304 1203 289 1210 q 335 1184 319 1197 q 365 1147 350 1171 q 385 1131 374 1135 q 401 1126 396 1126 l 400 1150 q 412 1183 400 1167 q 447 1201 424 1199 l 458 1203 q 491 1191 475 1203 q 511 1156 507 1179 q 514 1126 514 1140 q 494 1063 514 1090 q 443 1024 474 1035 q 399 1015 421 1015 q 349 1025 374 1015 q 272 1088 300 1044 l 265 1097 q 250 1081 258 1093 q 235 1049 242 1068 q 215 1020 229 1031 q 182 1010 200 1010 m 243 449 q 328 459 285 454 q 411 468 371 464 q 390 575 400 526 q 371 665 381 624 q 341 772 354 732 q 318 832 328 811 q 313 817 315 825 q 307 797 310 808 q 274 647 290 740 q 258 550 265 600 q 243 449 250 500 z "},"ã":{"ha":675,"x_min":40,"x_max":650,"o":"m 594 1 q 563 13 575 1 q 435 200 476 72 l 435 203 q 404 136 421 168 q 362 75 383 99 q 319 38 340 51 q 279 19 299 25 q 244 14 260 14 l 239 14 q 115 81 168 14 q 40 328 40 174 q 42 377 40 339 q 61 476 43 415 q 113 585 81 539 q 186 658 144 631 q 288 689 235 689 q 326 687 293 689 q 415 642 360 685 q 438 599 438 624 q 424 563 438 581 q 389 543 411 546 l 379 542 q 349 554 363 542 q 288 578 317 578 q 246 565 267 578 q 168 444 194 531 q 151 333 151 392 q 162 238 151 286 q 197 158 172 190 q 240 125 221 125 l 242 125 q 273 142 256 125 q 307 190 290 160 q 397 504 364 293 q 453 551 406 551 l 457 551 q 494 533 479 549 q 508 496 508 518 q 626 101 508 193 q 650 57 650 85 q 641 27 650 40 q 619 8 632 14 q 594 1 607 1 m 132 732 q 83 763 97 732 q 76 788 76 775 q 79 804 76 796 q 96 846 85 825 q 123 885 107 867 q 159 916 139 903 q 203 932 179 929 q 226 933 213 933 q 254 926 239 932 q 285 906 269 919 q 315 869 300 893 q 335 853 324 857 q 351 849 346 849 l 350 872 q 362 905 350 889 q 397 924 374 921 l 408 925 q 441 913 425 925 q 461 878 457 901 q 464 849 464 863 q 444 785 464 813 q 393 746 424 757 q 349 738 371 738 q 299 747 324 738 q 222 810 250 767 l 215 819 q 200 803 208 815 q 185 771 192 790 q 165 742 179 753 q 132 732 150 732 z "},"Õ":{"ha":824,"x_min":40,"x_max":785,"o":"m 404 1 q 153 108 251 1 q 64 275 92 175 q 40 446 40 354 l 42 490 q 76 663 49 581 q 150 810 104 744 q 268 921 200 881 q 431 965 344 965 q 653 872 563 965 q 754 696 719 803 q 785 493 785 600 l 785 467 q 756 295 781 375 q 689 153 732 215 q 404 1 581 1 m 404 111 q 520 142 471 111 q 603 224 569 174 q 653 338 636 274 q 674 469 671 403 l 674 489 q 648 660 674 578 q 574 794 622 743 q 432 856 515 856 q 319 822 369 854 q 234 737 269 789 q 178 618 199 685 q 153 482 157 551 l 151 439 q 171 301 151 371 q 235 183 190 232 q 397 113 297 114 l 404 111 m 272 1010 q 224 1040 238 1010 q 217 1065 217 1053 q 219 1082 217 1074 q 236 1124 225 1103 q 263 1163 247 1144 q 299 1194 279 1181 q 343 1210 319 1207 q 366 1210 353 1211 q 394 1203 379 1210 q 425 1184 410 1197 q 456 1147 440 1171 q 475 1131 464 1135 q 492 1126 486 1126 l 490 1150 q 502 1183 490 1167 q 538 1201 514 1199 l 549 1203 q 581 1191 565 1203 q 601 1156 597 1179 q 604 1126 604 1140 q 584 1063 604 1090 q 533 1024 564 1035 q 489 1015 511 1015 q 439 1025 464 1015 q 363 1088 390 1044 l 356 1097 q 340 1081 349 1093 q 325 1049 332 1068 q 305 1020 319 1031 q 272 1010 290 1010 z "},"õ":{"ha":646,"x_min":35,"x_max":608,"o":"m 315 6 q 118 86 194 6 q 53 203 74 132 q 35 319 35 257 l 35 336 q 58 463 38 401 q 113 574 78 525 q 211 661 154 631 q 335 692 268 692 q 515 617 443 692 q 608 357 608 521 q 533 111 608 211 q 315 6 449 6 m 315 115 q 397 135 363 115 q 452 188 431 156 q 485 259 474 219 q 497 338 496 299 l 497 354 q 482 457 497 407 q 435 540 467 507 q 336 582 393 582 q 257 560 292 582 q 198 502 222 538 q 160 422 174 467 q 146 332 147 378 l 146 315 q 159 231 146 272 q 200 163 172 190 q 315 115 242 115 m 183 732 q 135 763 149 732 q 128 788 128 775 q 131 804 128 796 q 147 846 136 825 q 174 885 158 867 q 210 916 190 903 q 254 932 231 929 q 277 933 264 933 q 306 926 290 932 q 336 906 321 919 q 367 869 351 893 q 386 853 375 857 q 403 849 397 849 l 401 872 q 413 905 401 889 q 449 924 425 921 l 460 925 q 492 913 476 925 q 513 878 508 901 q 515 849 515 863 q 495 785 515 813 q 444 746 475 757 q 400 738 422 738 q 350 747 375 738 q 274 810 301 767 l 267 819 q 251 803 260 815 q 236 771 243 790 q 216 742 231 753 q 183 732 201 732 z "},"ì":{"ha":288,"x_min":17,"x_max":263,"o":"m 207 1 q 156 34 172 1 q 128 109 140 67 q 110 197 117 151 q 101 288 104 243 q 97 374 97 333 l 97 418 q 98 473 97 440 q 101 543 99 506 q 108 610 104 581 q 119 658 113 640 q 171 697 132 697 q 189 694 179 697 q 228 642 228 682 q 225 624 228 633 q 211 538 218 604 q 206 428 206 490 l 207 376 q 222 200 210 276 q 257 81 235 124 q 263 57 263 69 q 257 33 263 49 q 231 7 251 18 q 207 1 221 1 m 171 731 q 146 737 160 731 q 122 758 132 743 q 82 820 99 801 q 49 856 65 839 q 40 863 44 860 q 33 871 36 867 q 17 908 17 886 q 17 922 17 910 q 32 949 17 933 q 72 966 49 967 q 110 950 94 965 q 117 943 114 946 q 124 936 121 940 q 165 892 143 918 q 219 813 188 867 q 226 788 226 800 q 222 764 226 779 q 197 738 217 749 q 190 734 194 735 q 183 732 186 733 q 171 731 178 731 z "},"í":{"ha":293,"x_min":31,"x_max":274,"o":"m 140 1 q 90 34 106 1 q 62 109 74 67 q 44 197 50 151 q 34 288 38 243 q 31 374 31 333 l 31 418 q 31 473 31 440 q 35 543 32 506 q 42 610 38 581 q 53 658 46 640 q 104 697 65 697 q 122 694 113 697 q 161 642 161 682 q 158 624 161 633 q 144 538 151 604 q 139 428 139 490 l 140 376 q 156 200 143 276 q 190 81 168 124 q 196 57 196 69 q 190 33 196 49 q 164 7 185 18 q 140 1 154 1 m 118 731 l 106 732 q 99 734 103 733 q 92 738 94 735 q 63 788 63 754 q 69 813 63 800 q 124 892 101 867 q 165 936 146 918 q 172 943 168 940 q 179 950 175 946 q 217 966 194 965 q 257 949 240 967 q 273 910 272 933 q 256 871 274 888 q 249 863 253 867 q 240 856 244 860 q 206 820 224 839 q 167 758 189 801 q 118 731 149 731 z "},"/":{"ha":343,"x_min":13,"x_max":329,"o":"m 68 1 q 19 32 33 1 q 13 57 13 44 q 15 74 13 65 q 128 487 76 272 q 218 921 179 701 q 242 958 222 944 q 272 968 256 968 l 283 967 q 329 913 329 958 l 328 901 q 235 462 288 679 q 121 42 183 244 q 101 12 115 22 q 68 1 86 1 z "},"Ø":{"ha":824,"x_min":40,"x_max":785,"o":"m 404 1 l 393 1 q 363 3 378 1 q 335 7 349 4 q 310 1 324 1 q 261 29 279 1 q 153 108 200 56 q 64 275 92 175 q 40 446 40 354 l 42 490 q 76 663 49 581 q 150 810 104 744 q 268 921 200 881 q 431 965 344 965 q 489 961 461 965 q 514 968 500 968 q 564 936 549 968 q 754 696 697 869 q 785 493 785 600 l 785 467 q 756 295 781 375 q 689 153 732 215 q 404 1 581 1 m 278 146 q 371 493 328 314 q 447 856 414 672 l 432 856 q 319 822 369 854 q 234 737 269 789 q 178 618 199 685 q 153 482 157 551 l 151 439 q 171 301 151 371 q 235 183 190 232 q 256 163 244 172 q 278 146 267 153 m 404 111 q 520 142 471 111 q 603 224 569 174 q 653 338 636 274 q 674 469 671 403 l 674 489 q 648 660 674 578 q 574 794 622 743 q 563 805 568 800 q 553 814 558 810 q 476 456 518 632 q 383 113 433 281 l 397 113 l 404 111 z "},"ø":{"ha":646,"x_min":35,"x_max":608,"o":"m 257 4 q 218 21 232 4 q 117 85 161 39 q 53 203 74 132 q 35 319 35 257 l 35 336 q 58 463 38 401 q 113 574 78 525 q 211 661 154 631 q 335 692 268 692 l 338 692 q 356 691 347 692 q 375 689 365 690 q 399 692 388 692 q 439 671 424 692 q 479 647 460 661 q 515 617 499 633 q 608 357 608 521 q 533 111 608 211 q 307 6 449 6 q 291 6 299 6 q 275 7 283 6 q 257 4 264 4 m 224 140 q 280 358 254 246 q 328 582 306 469 q 251 556 285 579 q 195 499 218 533 q 160 420 172 464 q 146 332 147 376 l 146 315 q 159 231 146 272 q 200 163 172 190 q 224 140 211 149 m 331 115 q 405 140 374 119 q 456 193 436 161 q 485 263 475 225 q 497 338 496 300 l 497 354 q 482 457 497 407 q 435 540 467 507 l 433 540 q 387 325 413 432 q 331 115 361 218 z "},"-":{"ha":458,"x_min":42,"x_max":415,"o":"m 367 294 l 94 294 q 56 311 71 296 q 42 347 42 326 q 58 389 42 374 q 96 404 75 404 l 100 404 q 166 401 142 404 q 214 397 190 399 l 239 397 q 276 397 253 397 q 354 404 299 397 l 361 404 q 396 392 379 404 q 415 356 413 379 l 415 349 q 403 314 415 331 q 367 294 390 297 z "},"Ł":{"ha":735,"x_min":29,"x_max":725,"o":"m 446 -1 q 171 94 226 -1 q 147 169 156 122 q 136 292 139 215 q 135 350 135 319 l 136 417 q 83 401 93 401 q 55 409 71 401 q 32 439 39 417 q 29 456 29 447 q 38 485 29 469 q 68 508 46 501 q 108 522 92 517 q 140 532 125 528 q 142 547 142 539 q 143 563 142 554 q 153 694 147 631 q 163 806 158 757 q 171 886 167 856 l 174 915 q 192 951 176 939 q 226 964 208 964 l 235 964 q 271 945 258 961 q 283 911 283 929 l 283 903 l 281 875 q 272 801 276 847 q 263 695 268 756 q 254 571 258 635 q 278 582 265 576 q 307 596 292 588 q 332 603 319 603 q 355 597 340 603 q 381 572 369 592 q 388 547 388 560 q 382 524 388 539 q 357 497 376 508 l 249 457 l 247 349 q 248 286 247 325 q 252 214 249 247 q 260 167 256 181 q 267 150 264 153 q 281 138 269 147 q 329 121 293 128 q 391 112 357 114 q 467 110 425 110 q 538 115 504 111 q 600 121 572 118 l 660 129 l 668 129 q 704 118 688 129 q 725 83 721 107 l 725 75 q 714 40 725 57 q 679 19 703 24 q 660 16 678 19 q 613 10 642 13 q 548 3 585 7 q 471 0 511 0 q 458 -1 464 -1 q 446 -1 453 -1 z "},"ł":{"ha":392,"x_min":17,"x_max":375,"o":"m 239 3 q 214 8 226 3 q 194 25 201 14 q 175 61 185 38 q 156 129 165 85 q 138 243 146 174 q 125 417 131 313 q 71 401 81 401 q 42 409 58 401 q 19 439 26 417 q 17 456 17 447 q 25 485 17 469 q 56 508 33 501 q 92 521 76 515 q 121 529 107 526 l 121 564 q 118 722 118 646 q 119 858 118 799 q 120 953 119 917 q 121 990 121 989 q 137 1029 121 1014 q 174 1044 153 1044 l 178 1044 q 217 1028 201 1044 q 232 988 232 1011 l 232 951 q 230 857 231 915 q 229 724 229 799 q 232 567 229 647 l 232 565 q 260 579 244 572 q 294 596 275 586 q 319 603 307 603 q 342 597 328 603 q 368 572 357 592 q 375 547 375 560 q 369 524 375 539 q 344 497 364 508 l 235 457 q 242 349 238 399 q 250 257 246 299 q 261 174 256 206 q 272 124 267 142 q 280 100 276 107 q 283 92 283 93 q 294 57 294 75 q 292 41 294 54 q 271 14 290 28 q 239 3 256 3 z "},"Ð":{"ha":697,"x_min":39,"x_max":663,"o":"m 183 1 l 126 4 q 89 22 103 7 q 75 57 75 38 l 75 64 q 94 101 78 88 q 131 115 110 115 l 135 115 q 149 114 139 114 q 157 424 156 272 l 107 424 q 69 440 83 425 q 54 476 54 456 q 71 518 54 503 q 108 533 88 533 l 113 533 q 137 533 126 533 q 158 532 147 533 q 158 692 158 614 q 156 847 157 771 l 113 836 q 96 833 104 833 q 65 842 82 833 q 42 872 49 850 q 39 889 39 881 q 47 919 39 903 q 78 942 56 935 q 232 967 157 967 q 540 824 419 967 q 619 694 589 767 q 658 543 649 622 q 663 474 663 508 q 653 368 663 429 q 608 240 643 307 q 429 58 547 119 q 183 1 322 1 m 260 119 q 510 290 436 147 q 551 478 551 374 q 546 547 551 503 q 517 648 540 590 q 456 751 494 706 q 267 854 378 842 q 269 692 268 775 q 269 525 269 610 q 310 527 288 525 q 367 533 333 529 l 374 533 q 408 521 392 533 q 428 485 425 508 l 428 478 q 415 443 428 460 q 379 424 403 426 l 268 424 q 260 119 265 274 z "},"æ":{"ha":1029,"x_min":44,"x_max":989,"o":"m 243 -3 q 189 10 219 -3 q 126 56 158 22 q 63 176 83 101 q 44 307 44 236 l 46 343 q 76 503 50 429 q 146 626 103 578 q 285 694 207 694 q 419 642 353 694 q 442 599 442 625 q 428 563 442 581 q 393 543 415 546 l 383 542 q 353 554 367 542 q 282 583 313 583 q 269 582 278 583 q 249 572 260 581 q 228 553 238 563 q 178 458 196 517 q 157 338 160 400 l 157 315 q 167 215 157 265 q 207 133 178 164 q 244 110 228 110 l 249 110 q 292 155 264 115 q 349 283 319 194 q 372 362 363 324 q 389 431 382 400 q 400 481 396 461 q 404 503 404 500 q 426 539 407 525 q 458 549 442 549 q 506 524 489 549 q 528 556 517 540 q 553 585 539 571 q 764 689 647 689 q 815 683 790 689 q 885 653 856 675 q 929 603 914 632 q 943 547 943 576 q 931 490 943 522 q 751 328 879 376 q 594 300 681 300 q 542 303 568 300 q 539 267 539 285 q 568 167 539 208 q 671 110 604 110 l 686 110 q 745 123 715 111 q 801 153 775 135 q 849 194 828 171 q 882 244 869 218 q 932 276 897 276 q 956 271 943 276 q 989 221 989 256 q 982 197 989 210 q 933 123 964 157 q 865 63 903 89 q 783 19 826 36 q 694 -1 739 3 l 672 -1 q 475 106 546 -1 q 436 197 447 147 q 390 103 415 142 q 243 -3 328 -3 m 594 410 q 649 415 619 410 q 713 432 679 419 q 776 467 742 443 q 828 533 810 492 q 831 547 832 543 q 831 553 831 551 q 817 565 828 558 q 790 575 807 572 q 765 578 778 578 q 740 575 756 578 q 704 563 725 572 q 666 540 683 554 q 635 510 649 525 q 571 411 597 469 l 594 410 z "},"˘":{"ha":400,"x_min":36,"x_max":365,"o":"m 194 710 l 188 710 q 134 722 160 711 q 88 751 108 732 q 36 861 44 792 l 36 869 q 49 903 36 888 q 85 922 61 919 l 93 922 q 128 910 111 922 q 147 874 144 897 q 196 821 151 821 q 231 833 213 821 q 256 878 249 846 q 279 914 260 901 q 307 922 292 922 l 321 921 q 365 869 365 913 l 364 856 q 299 746 351 788 q 194 710 251 710 z "},"˛":{"ha":365,"x_min":28,"x_max":332,"o":"m 206 -297 q 47 -225 99 -297 q 28 -167 28 -196 q 139 -26 28 -89 q 189 0 167 -10 q 213 10 211 10 q 233 14 224 14 q 260 7 244 14 q 285 -22 276 0 q 288 -42 288 -32 q 281 -69 288 -53 q 253 -93 274 -85 q 235 -101 244 -96 q 215 -110 226 -106 q 193 -122 204 -115 q 156 -148 168 -137 q 140 -164 144 -158 q 168 -181 150 -176 q 204 -186 186 -186 q 238 -184 222 -186 q 261 -179 254 -182 q 279 -176 271 -176 q 307 -185 292 -176 q 329 -215 322 -193 q 332 -233 332 -225 q 324 -262 332 -246 q 293 -285 315 -278 q 265 -292 290 -286 q 206 -297 240 -297 z "},"¸":{"ha":288,"x_min":42,"x_max":268,"o":"m 143 -287 q 54 -253 74 -287 q 46 -226 46 -240 q 49 -210 46 -218 q 100 -169 61 -169 q 117 -172 108 -169 q 140 -176 132 -176 q 148 -176 143 -176 q 156 -174 153 -175 l 157 -162 q 136 -128 157 -128 q 113 -133 128 -128 q 96 -136 104 -136 q 60 -121 78 -136 q 42 -81 42 -106 l 42 -74 l 47 -40 l 47 -33 q 43 -8 47 -21 l 42 6 q 51 36 42 19 q 83 60 61 53 l 97 61 q 128 51 113 61 q 151 19 144 42 q 156 -1 154 8 q 157 -19 157 -11 q 191 -29 176 -22 q 217 -43 206 -36 q 268 -158 268 -83 q 221 -264 268 -226 q 190 -280 208 -272 q 143 -287 171 -287 z "},"Ç":{"ha":663,"x_min":35,"x_max":633,"o":"m 321 -287 q 232 -253 251 -287 q 224 -226 224 -240 q 226 -210 224 -218 q 278 -169 239 -169 q 294 -172 286 -169 q 318 -176 310 -176 q 326 -176 321 -176 q 333 -174 331 -175 l 335 -162 q 314 -128 335 -128 q 290 -133 306 -128 q 274 -136 282 -136 q 238 -121 256 -136 q 219 -81 219 -106 l 219 -74 l 225 -40 l 225 -33 q 221 -8 225 -21 l 219 4 l 221 15 q 82 143 129 46 q 35 390 35 240 l 35 399 q 40 496 35 439 q 59 615 44 553 q 100 743 74 678 q 171 865 126 808 q 213 910 190 890 q 260 940 235 929 q 340 960 300 960 q 469 911 411 960 q 510 867 493 892 q 542 811 528 842 q 547 789 547 800 q 541 763 547 779 q 514 738 535 747 q 492 732 503 732 q 466 738 482 732 q 440 767 450 744 q 401 824 425 803 q 351 849 378 846 l 342 850 q 258 797 299 850 q 176 624 206 726 q 146 399 146 521 q 149 328 146 371 q 163 244 151 286 q 197 167 175 201 q 258 121 219 132 q 314 113 286 113 q 350 115 325 113 q 411 132 375 117 q 478 174 447 147 q 531 238 510 201 q 578 265 547 265 q 606 258 593 265 q 633 210 633 242 q 626 182 633 194 q 554 93 599 132 q 457 31 510 54 q 332 1 396 3 q 335 -19 335 -12 q 369 -29 354 -22 q 394 -43 383 -36 q 446 -158 446 -83 q 399 -264 446 -226 q 367 -280 386 -272 q 321 -287 349 -287 z "},"ç":{"ha":593,"x_min":32,"x_max":551,"o":"m 333 -285 q 244 -250 264 -285 q 236 -224 236 -237 q 239 -207 236 -215 q 290 -167 251 -167 q 307 -169 299 -167 q 331 -174 322 -174 q 338 -173 333 -174 q 346 -171 343 -172 l 347 -160 q 326 -125 347 -125 q 303 -131 318 -125 q 286 -133 294 -133 q 250 -118 268 -133 q 232 -78 232 -103 l 232 -71 l 238 -37 l 238 -31 q 233 -6 238 -18 l 232 10 q 235 26 232 18 q 101 128 154 60 q 32 335 32 218 q 41 420 32 375 q 75 510 50 465 q 228 651 128 603 q 411 690 310 690 q 479 686 444 690 q 515 667 501 683 q 528 633 528 651 l 528 625 q 509 590 525 603 q 474 576 493 576 l 467 576 q 413 579 439 579 q 277 553 343 579 q 172 456 211 526 q 143 339 143 401 q 144 309 143 331 q 156 255 144 288 q 189 196 168 222 q 374 114 254 114 q 481 129 424 114 l 496 131 q 527 122 511 131 q 549 90 543 113 q 551 72 551 81 q 542 44 551 60 q 510 22 532 28 q 344 3 436 3 q 347 -7 346 -3 q 347 -17 347 -11 q 381 -26 367 -19 q 407 -40 396 -33 q 458 -156 458 -81 q 411 -261 458 -224 q 380 -277 399 -269 q 333 -285 361 -285 z "},",":{"ha":254,"x_min":28,"x_max":225,"o":"m 125 -161 q 85 -144 100 -161 q 69 -106 69 -126 q 70 -91 69 -103 q 89 -64 71 -79 q 114 -12 114 -43 l 113 -1 q 96 38 110 19 q 60 65 82 56 q 28 117 28 82 q 33 139 28 128 q 85 172 49 172 q 107 167 96 172 q 185 103 156 142 q 225 -14 225 53 q 212 -80 225 -44 q 163 -147 199 -115 q 125 -161 147 -161 z "},"‚":{"ha":254,"x_min":28,"x_max":225,"o":"m 125 -161 q 85 -144 100 -161 q 69 -106 69 -126 q 70 -91 69 -103 q 89 -64 71 -79 q 114 -12 114 -43 l 113 -1 q 96 38 110 19 q 60 65 82 56 q 28 117 28 82 q 33 139 28 128 q 85 172 49 172 q 107 167 96 172 q 185 103 156 142 q 225 -14 225 53 q 212 -80 225 -44 q 163 -147 199 -115 q 125 -161 147 -161 z "},"„":{"ha":489,"x_min":38,"x_max":449,"o":"m 135 -161 q 94 -144 110 -161 q 79 -106 79 -126 q 80 -91 79 -103 q 99 -64 81 -79 q 124 -12 124 -43 l 122 -1 q 106 38 119 19 q 69 65 92 56 q 38 117 38 82 q 43 139 38 128 q 94 172 58 172 q 117 167 106 172 q 194 103 165 142 q 235 -14 235 53 q 222 -80 235 -44 q 172 -147 208 -115 q 135 -161 157 -161 m 349 -158 q 308 -141 324 -158 q 293 -103 293 -124 q 294 -88 293 -100 q 313 -61 294 -76 q 338 -10 338 -40 l 336 1 q 319 40 333 22 q 283 68 306 58 q 251 119 251 85 q 257 142 251 131 q 308 175 272 175 q 331 169 319 175 q 408 106 379 144 q 449 -11 449 56 q 435 -77 449 -42 q 386 -144 422 -112 q 349 -158 371 -158 z "},"”":{"ha":489,"x_min":38,"x_max":449,"o":"m 135 539 q 94 556 110 539 q 79 594 79 574 q 80 609 79 597 q 99 636 81 621 q 124 688 124 657 l 122 699 q 106 738 119 719 q 69 765 92 756 q 38 817 38 782 q 43 839 38 828 q 94 872 58 872 q 117 867 106 872 q 194 803 165 842 q 235 686 235 753 q 222 620 235 656 q 172 553 208 585 q 135 539 157 539 m 349 542 q 308 559 324 542 q 293 597 293 576 q 294 612 293 600 q 313 639 294 624 q 338 690 338 660 l 336 701 q 319 740 333 722 q 283 768 306 758 q 251 819 251 785 q 257 842 251 831 q 308 875 272 875 q 331 869 319 875 q 408 806 379 844 q 449 689 449 756 q 435 623 449 658 q 386 556 422 588 q 349 542 371 542 z "},"“":{"ha":490,"x_min":40,"x_max":451,"o":"m 354 539 q 317 553 332 539 q 254 686 254 607 q 372 867 254 807 q 394 872 383 872 q 421 866 406 872 q 446 839 436 860 q 451 815 451 826 q 446 791 451 806 q 419 765 440 776 q 383 738 397 756 q 367 699 369 719 l 365 688 q 369 665 365 679 q 390 636 372 651 q 410 594 410 619 q 394 556 410 574 q 354 539 379 539 m 140 542 q 103 556 118 542 q 40 689 40 610 q 158 869 40 810 q 181 875 169 875 q 207 869 192 875 q 232 842 222 863 q 238 818 238 829 q 232 794 238 808 q 206 768 226 779 q 169 740 183 758 q 153 701 156 722 l 151 690 q 155 668 151 682 q 176 639 158 654 q 196 597 196 622 q 181 559 196 576 q 140 542 165 542 z "},"’":{"ha":254,"x_min":28,"x_max":225,"o":"m 125 542 q 85 559 100 542 q 69 597 69 576 q 70 612 69 600 q 89 639 71 624 q 114 690 114 660 l 113 701 q 96 740 110 722 q 60 768 82 758 q 28 819 28 785 q 33 842 28 831 q 85 875 49 875 q 107 869 96 875 q 185 806 156 844 q 225 689 225 756 q 212 623 225 658 q 163 556 199 588 q 125 542 147 542 z "},"‘":{"ha":256,"x_min":29,"x_max":226,"o":"m 129 542 q 92 556 107 542 q 29 689 29 610 q 147 869 29 810 q 169 875 158 875 q 196 869 181 875 q 221 842 211 863 q 226 818 226 829 q 221 794 226 808 q 194 768 215 779 q 158 740 172 758 q 142 701 144 722 l 140 690 q 144 668 140 682 q 165 639 147 654 q 185 597 185 622 q 169 559 185 576 q 129 542 154 542 z "},"Ă":{"ha":642,"x_min":24,"x_max":614,"o":"m 133 4 q 114 8 122 4 q 78 61 78 19 q 81 78 78 69 q 87 108 83 86 q 94 158 90 129 q 103 222 99 188 q 111 289 107 256 l 115 324 q 98 323 106 324 q 83 321 90 322 l 79 321 q 42 335 58 321 q 24 372 26 349 l 24 379 q 38 414 24 399 q 75 432 51 429 q 100 434 86 433 q 129 438 114 435 q 149 574 139 506 q 171 704 160 642 q 214 871 192 815 q 229 906 221 890 q 246 932 238 921 q 283 963 265 956 q 315 969 301 969 l 317 969 q 353 960 338 969 q 380 940 368 951 q 399 916 392 928 q 410 897 406 904 q 465 743 436 846 q 493 626 479 692 q 522 482 507 561 l 553 486 l 561 486 q 595 474 579 486 q 614 438 611 461 l 614 429 q 602 395 614 411 q 567 376 590 379 l 542 372 l 589 69 l 589 61 q 577 26 589 43 q 542 7 565 10 l 533 7 q 499 19 515 7 q 479 54 482 31 q 455 215 467 139 q 431 360 443 290 l 228 336 q 225 306 226 321 q 221 276 224 292 q 201 118 208 172 q 185 42 193 64 q 164 15 178 25 q 133 4 150 4 m 313 988 l 306 988 q 252 999 278 989 q 206 1029 226 1010 q 154 1139 163 1069 l 154 1147 q 167 1181 154 1165 q 203 1200 179 1197 l 211 1200 q 246 1188 229 1200 q 265 1151 263 1175 q 314 1099 269 1099 q 349 1111 331 1099 q 374 1156 367 1124 q 397 1192 378 1179 q 425 1200 410 1200 l 439 1199 q 483 1147 483 1190 l 482 1133 q 417 1024 469 1065 q 313 988 369 988 m 243 449 q 328 459 285 454 q 411 468 371 464 q 390 575 400 526 q 371 665 381 624 q 341 772 354 732 q 318 832 328 811 q 313 817 315 825 q 307 797 310 808 q 274 647 290 740 q 258 550 265 600 q 243 449 250 500 z "},"ă":{"ha":675,"x_min":40,"x_max":650,"o":"m 594 1 q 563 13 575 1 q 435 200 476 72 l 435 203 q 404 136 421 168 q 362 75 383 99 q 319 38 340 51 q 279 19 299 25 q 244 14 260 14 l 239 14 q 115 81 168 14 q 40 328 40 174 q 42 377 40 339 q 61 476 43 415 q 113 585 81 539 q 186 658 144 631 q 288 689 235 689 q 326 687 293 689 q 415 642 360 685 q 438 599 438 624 q 424 563 438 581 q 389 543 411 546 l 379 542 q 349 554 363 542 q 288 578 317 578 q 246 565 267 578 q 168 444 194 531 q 151 333 151 392 q 162 238 151 286 q 197 158 172 190 q 240 125 221 125 l 242 125 q 273 142 256 125 q 307 190 290 160 q 397 504 364 293 q 453 551 406 551 l 457 551 q 494 533 479 549 q 508 496 508 518 q 626 101 508 193 q 650 57 650 85 q 641 27 650 40 q 619 8 632 14 q 594 1 607 1 m 261 710 l 254 710 q 201 722 226 711 q 154 751 175 732 q 103 861 111 792 l 103 869 q 115 903 103 888 q 151 922 128 919 l 160 922 q 194 910 178 922 q 214 874 211 897 q 263 821 218 821 q 297 833 279 821 q 322 878 315 846 q 346 914 326 901 q 374 922 358 922 l 388 921 q 432 869 432 913 l 431 856 q 365 746 418 788 q 261 710 318 710 z "},"Ć":{"ha":663,"x_min":35,"x_max":633,"o":"m 318 1 q 83 140 151 1 q 35 390 35 236 l 35 399 q 40 496 35 439 q 59 615 44 553 q 100 743 74 678 q 171 865 126 808 q 213 910 190 890 q 260 940 235 929 q 340 960 300 960 q 469 911 411 960 q 510 867 493 892 q 542 811 528 842 q 547 789 547 800 q 541 763 547 779 q 514 738 535 747 q 492 732 503 732 q 466 738 482 732 q 440 767 450 744 q 401 824 425 803 q 351 849 378 846 l 342 850 q 258 797 299 850 q 176 624 206 726 q 146 399 146 521 q 149 328 146 371 q 163 244 151 286 q 197 167 175 201 q 258 121 219 132 q 314 113 286 113 q 350 115 325 113 q 411 132 375 117 q 478 174 447 147 q 531 238 510 201 q 578 265 547 265 q 606 258 593 265 q 633 210 633 242 q 626 182 633 194 q 554 93 599 132 q 457 31 510 54 q 318 1 390 1 m 282 1008 l 269 1010 q 263 1012 267 1011 q 256 1015 258 1013 q 226 1065 226 1032 q 233 1090 226 1078 q 288 1170 265 1144 q 329 1214 310 1196 q 335 1221 332 1218 q 343 1228 339 1224 q 381 1244 358 1243 q 421 1226 404 1244 q 437 1188 436 1211 q 419 1149 438 1165 q 413 1141 417 1144 q 404 1133 408 1138 q 370 1098 388 1117 q 331 1036 353 1079 q 282 1008 313 1008 z "},"ć":{"ha":593,"x_min":32,"x_max":551,"o":"m 374 3 q 101 128 199 3 q 32 335 32 218 q 41 420 32 375 q 75 510 50 465 q 228 651 128 603 q 411 690 310 690 q 479 686 444 690 q 515 667 501 683 q 528 633 528 651 l 528 625 q 509 590 525 603 q 474 576 493 576 l 467 576 q 413 579 439 579 q 277 553 343 579 q 172 456 211 526 q 143 339 143 401 q 144 309 143 331 q 156 255 144 288 q 189 196 168 222 q 374 114 254 114 q 481 129 424 114 l 496 131 q 527 122 511 131 q 549 90 543 113 q 551 72 551 81 q 542 44 551 60 q 510 22 532 28 q 374 3 436 3 m 247 731 l 235 732 q 228 734 232 733 q 221 738 224 735 q 192 788 192 754 q 199 813 192 800 q 253 892 231 867 q 294 936 275 918 q 301 943 297 940 q 308 950 304 946 q 347 966 324 965 q 386 949 369 967 q 402 910 401 933 q 385 871 403 888 q 378 863 382 867 q 369 856 374 860 q 335 820 353 839 q 296 758 318 801 q 247 731 278 731 z "},"Ĉ":{"ha":663,"x_min":35,"x_max":633,"o":"m 318 1 q 83 140 151 1 q 35 390 35 236 l 35 399 q 40 496 35 439 q 59 615 44 553 q 100 743 74 678 q 171 865 126 808 q 213 910 190 890 q 260 940 235 929 q 340 960 300 960 q 469 911 411 960 q 510 867 493 892 q 542 811 528 842 q 547 789 547 800 q 541 763 547 779 q 514 738 535 747 q 492 732 503 732 q 466 738 482 732 q 440 767 450 744 q 401 824 425 803 q 351 849 378 846 l 342 850 q 258 797 299 850 q 176 624 206 726 q 146 399 146 521 q 149 328 146 371 q 163 244 151 286 q 197 167 175 201 q 258 121 219 132 q 314 113 286 113 q 350 115 325 113 q 411 132 375 117 q 478 174 447 147 q 531 238 510 201 q 578 265 547 265 q 606 258 593 265 q 633 210 633 242 q 626 182 633 194 q 554 93 599 132 q 457 31 510 54 q 318 1 390 1 m 225 988 q 199 996 211 988 q 171 1046 171 1011 q 178 1071 171 1058 q 190 1091 178 1072 q 218 1133 201 1110 q 329 1208 274 1208 l 336 1208 q 386 1188 361 1206 q 440 1133 411 1169 q 469 1096 458 1113 q 482 1078 481 1079 q 492 1047 492 1064 q 488 1028 492 1042 q 465 1001 485 1014 q 438 993 451 993 q 416 996 431 993 q 389 1018 401 999 q 381 1031 386 1025 q 372 1043 376 1036 q 360 1058 367 1050 l 329 1092 q 299 1056 318 1083 q 288 1042 293 1049 q 281 1029 283 1035 l 274 1017 q 253 995 267 1003 q 225 988 240 988 z "},"ĉ":{"ha":593,"x_min":32,"x_max":551,"o":"m 374 3 q 101 128 199 3 q 32 335 32 218 q 41 420 32 375 q 75 510 50 465 q 228 651 128 603 q 411 690 310 690 q 479 686 444 690 q 515 667 501 683 q 528 633 528 651 l 528 625 q 509 590 525 603 q 474 576 493 576 l 467 576 q 413 579 439 579 q 277 553 343 579 q 172 456 211 526 q 143 339 143 401 q 144 309 143 331 q 156 255 144 288 q 189 196 168 222 q 374 114 254 114 q 481 129 424 114 l 496 131 q 527 122 511 131 q 549 90 543 113 q 551 72 551 81 q 542 44 551 60 q 510 22 532 28 q 374 3 436 3 m 190 710 q 164 718 176 710 q 136 768 136 733 q 143 793 136 781 q 155 813 143 794 q 183 856 167 832 q 294 931 239 931 l 301 931 q 351 910 326 928 q 406 856 376 892 q 435 818 424 835 q 447 800 446 801 q 457 769 457 786 q 453 750 457 764 q 431 724 450 736 q 403 715 417 715 q 381 718 396 715 q 354 740 367 721 q 347 753 351 747 q 337 765 342 758 q 325 781 332 772 l 294 814 q 264 778 283 806 q 253 764 258 771 q 246 751 249 757 l 239 739 q 219 717 232 725 q 190 710 206 710 z "},"Ċ":{"ha":663,"x_min":35,"x_max":633,"o":"m 318 1 q 83 140 151 1 q 35 390 35 236 l 35 399 q 40 496 35 439 q 59 615 44 553 q 100 743 74 678 q 171 865 126 808 q 213 910 190 890 q 260 940 235 929 q 340 960 300 960 q 469 911 411 960 q 510 867 493 892 q 542 811 528 842 q 547 789 547 800 q 541 763 547 779 q 514 738 535 747 q 492 732 503 732 q 466 738 482 732 q 440 767 450 744 q 401 824 425 803 q 351 849 378 846 l 342 850 q 258 797 299 850 q 176 624 206 726 q 146 399 146 521 q 149 328 146 371 q 163 244 151 286 q 197 167 175 201 q 258 121 219 132 q 314 113 286 113 q 350 115 325 113 q 411 132 375 117 q 478 174 447 147 q 531 238 510 201 q 578 265 547 265 q 606 258 593 265 q 633 210 633 242 q 626 182 633 194 q 554 93 599 132 q 457 31 510 54 q 318 1 390 1 m 333 1047 l 331 1047 q 297 1061 311 1047 q 282 1096 282 1075 l 282 1099 q 296 1133 282 1118 q 331 1147 310 1147 l 335 1147 q 367 1133 353 1147 q 381 1099 381 1119 l 381 1094 q 367 1063 381 1076 q 333 1047 354 1049 z "},"ċ":{"ha":593,"x_min":32,"x_max":551,"o":"m 374 3 q 101 128 199 3 q 32 335 32 218 q 41 420 32 375 q 75 510 50 465 q 228 651 128 603 q 411 690 310 690 q 479 686 444 690 q 515 667 501 683 q 528 633 528 651 l 528 625 q 509 590 525 603 q 474 576 493 576 l 467 576 q 413 579 439 579 q 277 553 343 579 q 172 456 211 526 q 143 339 143 401 q 144 309 143 331 q 156 255 144 288 q 189 196 168 222 q 374 114 254 114 q 481 129 424 114 l 496 131 q 527 122 511 131 q 549 90 543 113 q 551 72 551 81 q 542 44 551 60 q 510 22 532 28 q 374 3 436 3 m 299 769 l 296 769 q 262 783 276 769 q 247 818 247 797 l 247 821 q 261 855 247 840 q 296 869 275 869 l 300 869 q 332 856 318 869 q 346 821 346 842 l 346 817 q 333 785 346 799 q 299 769 319 771 z "},"Č":{"ha":663,"x_min":35,"x_max":633,"o":"m 318 1 q 83 140 151 1 q 35 390 35 236 l 35 399 q 40 496 35 439 q 59 615 44 553 q 100 743 74 678 q 171 865 126 808 q 213 910 190 890 q 260 940 235 929 q 340 960 300 960 q 469 911 411 960 q 510 867 493 892 q 542 811 528 842 q 547 789 547 800 q 541 763 547 779 q 514 738 535 747 q 492 732 503 732 q 466 738 482 732 q 440 767 450 744 q 401 824 425 803 q 351 849 378 846 l 342 850 q 258 797 299 850 q 176 624 206 726 q 146 399 146 521 q 149 328 146 371 q 163 244 151 286 q 197 167 175 201 q 258 121 219 132 q 314 113 286 113 q 350 115 325 113 q 411 132 375 117 q 478 174 447 147 q 531 238 510 201 q 578 265 547 265 q 606 258 593 265 q 633 210 633 242 q 626 182 633 194 q 554 93 599 132 q 457 31 510 54 q 318 1 390 1 m 336 989 l 329 989 q 267 1013 296 989 q 218 1064 238 1038 q 190 1106 201 1088 q 178 1126 178 1125 q 171 1151 171 1139 q 175 1175 171 1160 q 199 1201 179 1190 q 225 1210 211 1210 q 253 1202 240 1210 q 274 1181 267 1194 l 281 1168 q 288 1156 283 1163 q 299 1142 293 1149 q 329 1106 318 1114 l 360 1139 q 372 1153 367 1146 q 381 1167 376 1161 q 389 1179 386 1172 q 435 1206 406 1206 q 465 1196 451 1206 q 492 1150 492 1179 q 482 1119 492 1135 q 469 1101 481 1118 q 440 1064 458 1085 q 386 1010 411 1028 q 336 989 361 992 z "},"č":{"ha":593,"x_min":32,"x_max":551,"o":"m 374 3 q 101 128 199 3 q 32 335 32 218 q 41 420 32 375 q 75 510 50 465 q 228 651 128 603 q 411 690 310 690 q 479 686 444 690 q 515 667 501 683 q 528 633 528 651 l 528 625 q 509 590 525 603 q 474 576 493 576 l 467 576 q 413 579 439 579 q 277 553 343 579 q 172 456 211 526 q 143 339 143 401 q 144 309 143 331 q 156 255 144 288 q 189 196 168 222 q 374 114 254 114 q 481 129 424 114 l 496 131 q 527 122 511 131 q 549 90 543 113 q 551 72 551 81 q 542 44 551 60 q 510 22 532 28 q 374 3 436 3 m 301 711 l 294 711 q 232 735 261 711 q 183 786 203 760 q 155 828 167 810 q 143 849 143 847 q 136 874 136 861 q 140 897 136 882 q 164 924 144 913 q 190 932 176 932 q 219 924 206 932 q 239 903 232 917 l 246 890 q 253 878 249 885 q 264 864 258 871 q 294 828 283 836 l 325 861 q 337 876 332 868 q 346 889 342 883 q 354 901 351 894 q 400 928 371 928 q 431 918 417 928 q 457 872 457 901 q 447 842 457 857 q 435 824 446 840 q 406 786 424 807 q 351 732 376 750 q 301 711 326 714 z "},"Ď":{"ha":697,"x_min":39,"x_max":663,"o":"m 183 1 l 126 4 q 89 22 103 7 q 75 57 75 38 l 75 64 q 94 101 78 88 q 131 115 110 115 l 135 115 q 149 114 139 114 q 158 493 158 310 q 156 847 158 675 l 113 836 q 96 833 104 833 q 65 842 82 833 q 42 872 49 850 q 39 889 39 881 q 47 919 39 903 q 78 942 56 935 q 232 967 157 967 q 540 824 419 967 q 619 694 589 767 q 658 543 649 622 q 663 474 663 508 q 653 368 663 429 q 608 240 643 307 q 429 58 547 119 q 183 1 322 1 m 260 119 q 510 290 436 147 q 551 478 551 374 q 546 547 551 503 q 517 648 540 590 q 456 751 494 706 q 267 854 378 842 q 269 499 269 681 q 260 119 269 315 m 354 989 l 347 989 q 285 1013 314 989 q 236 1064 256 1038 q 208 1106 219 1088 q 196 1126 196 1125 q 189 1151 189 1139 q 193 1175 189 1160 q 217 1201 197 1190 q 243 1210 229 1210 q 272 1202 258 1210 q 292 1181 285 1194 l 299 1168 q 306 1156 301 1163 q 317 1142 311 1149 q 347 1106 336 1114 l 378 1139 q 390 1153 385 1146 q 399 1167 394 1161 q 407 1179 404 1172 q 453 1206 424 1206 q 483 1196 469 1206 q 510 1150 510 1179 q 500 1119 510 1135 q 488 1101 499 1118 q 458 1064 476 1085 q 404 1010 429 1028 q 354 989 379 992 z "},"ď":{"ha":865,"x_min":21,"x_max":835,"o":"m 735 542 q 694 559 710 542 q 679 597 679 576 q 680 612 679 600 q 699 639 681 624 q 724 690 724 660 l 722 701 q 706 740 719 722 q 669 768 692 758 q 638 819 638 785 q 643 842 638 831 q 694 875 658 875 q 717 869 706 875 q 794 806 765 844 q 835 689 835 756 q 822 623 835 658 q 772 556 808 588 q 735 542 757 542 m 388 1 q 81 138 182 1 q 21 318 21 218 q 34 401 21 360 q 74 479 47 443 q 151 550 106 522 q 253 589 196 578 q 331 596 290 596 q 454 581 389 596 q 451 785 451 683 q 454 989 451 888 q 471 1028 456 1013 q 507 1043 486 1043 q 549 1027 533 1043 q 565 990 565 1011 l 565 986 q 563 810 563 897 q 563 706 563 779 q 567 514 564 632 q 567 507 567 511 q 567 500 568 503 l 578 146 l 611 157 q 631 161 621 161 q 658 153 642 161 q 682 124 674 146 q 685 104 685 114 q 678 77 685 93 q 649 53 671 61 q 388 1 508 1 m 386 113 q 468 119 425 113 q 467 125 467 121 q 465 226 465 175 q 461 326 464 278 l 457 465 q 338 486 388 486 q 164 413 217 486 q 132 315 132 369 q 133 283 132 314 q 169 204 133 253 q 386 113 236 113 z "},"Đ":{"ha":697,"x_min":39,"x_max":663,"o":"m 183 1 l 126 4 q 89 22 103 7 q 75 57 75 38 l 75 64 q 94 101 78 88 q 131 115 110 115 l 135 115 q 149 114 139 114 q 157 424 156 272 l 107 424 q 69 440 83 425 q 54 476 54 456 q 71 518 54 503 q 108 533 88 533 l 113 533 q 137 533 126 533 q 158 532 147 533 q 158 692 158 614 q 156 847 157 771 l 113 836 q 96 833 104 833 q 65 842 82 833 q 42 872 49 850 q 39 889 39 881 q 47 919 39 903 q 78 942 56 935 q 232 967 157 967 q 540 824 419 967 q 619 694 589 767 q 658 543 649 622 q 663 474 663 508 q 653 368 663 429 q 608 240 643 307 q 429 58 547 119 q 183 1 322 1 m 260 119 q 510 290 436 147 q 551 478 551 374 q 546 547 551 503 q 517 648 540 590 q 456 751 494 706 q 267 854 378 842 q 269 692 268 775 q 269 525 269 610 q 310 527 288 525 q 367 533 333 529 l 374 533 q 408 521 392 533 q 428 485 425 508 l 428 478 q 415 443 428 460 q 379 424 403 426 l 268 424 q 260 119 265 274 z "},"Ĕ":{"ha":657,"x_min":38,"x_max":631,"o":"m 400 3 l 332 3 q 258 4 288 3 q 208 7 228 6 q 177 10 189 8 q 158 15 165 13 q 113 58 129 26 q 104 78 108 67 q 96 111 100 90 q 88 163 92 132 q 81 238 85 193 q 72 401 75 308 q 38 453 38 417 q 47 483 38 469 q 71 503 56 496 q 72 628 71 567 q 75 742 72 689 q 79 814 76 786 q 85 858 82 842 q 90 882 88 875 q 93 892 92 889 q 142 940 106 926 q 213 960 178 954 q 365 968 271 968 q 440 966 404 968 q 505 963 476 964 q 551 959 533 961 q 571 957 569 957 q 608 939 594 954 q 621 906 621 924 l 621 897 q 603 860 618 874 q 568 847 588 847 l 561 847 l 547 849 q 508 851 532 850 q 452 854 483 853 q 388 856 421 856 l 343 856 q 246 851 283 856 q 194 843 208 847 q 191 805 193 832 q 186 725 189 778 q 183 624 183 678 q 182 514 182 569 l 219 517 l 500 533 q 535 519 519 533 q 553 482 551 506 l 553 475 q 539 440 553 456 q 501 422 525 425 l 226 406 l 183 403 q 192 236 186 306 q 201 156 196 183 q 210 118 206 129 q 322 114 239 114 l 399 114 q 463 115 432 114 q 518 117 494 117 q 557 119 542 118 l 572 119 l 576 119 q 613 105 597 119 q 631 67 629 90 l 631 63 q 616 26 631 42 q 578 8 601 11 l 563 8 q 523 6 547 7 q 467 4 499 6 q 400 3 435 3 m 321 988 l 314 988 q 260 999 286 989 q 214 1029 235 1010 q 163 1139 171 1069 l 163 1147 q 175 1181 163 1165 q 211 1200 188 1197 l 219 1200 q 254 1188 238 1200 q 274 1151 271 1175 q 322 1099 278 1099 q 357 1111 339 1099 q 382 1156 375 1124 q 406 1192 386 1179 q 433 1200 418 1200 l 447 1199 q 492 1147 492 1190 l 490 1133 q 425 1024 478 1065 q 321 988 378 988 z "},"ĕ":{"ha":661,"x_min":31,"x_max":626,"o":"m 333 4 q 89 154 144 4 q 68 274 68 207 q 72 333 68 303 l 63 338 q 31 389 31 353 q 36 411 31 400 q 88 443 53 443 l 101 442 q 138 517 117 481 q 185 582 158 553 q 415 692 281 692 l 426 692 q 581 551 581 663 q 563 483 581 524 q 494 397 546 442 q 430 353 465 374 q 354 321 394 333 q 271 303 314 308 q 226 300 249 300 q 181 303 204 300 l 179 275 q 181 240 179 261 q 191 195 182 219 q 217 153 200 171 q 260 128 233 136 q 335 115 299 115 q 410 132 375 115 q 458 164 438 144 q 492 201 478 183 q 513 232 506 218 l 518 244 q 568 279 535 279 q 592 274 579 279 q 626 224 626 260 q 621 201 626 213 q 611 180 621 199 q 581 135 601 161 q 531 80 561 108 q 457 32 500 51 q 333 4 397 4 m 322 710 l 315 710 q 262 722 288 711 q 215 751 236 732 q 164 861 172 792 l 164 869 q 176 903 164 888 q 213 922 189 919 l 221 922 q 256 910 239 922 q 275 874 272 897 q 324 821 279 821 q 358 833 340 821 q 383 878 376 846 q 407 914 388 901 q 435 922 419 922 l 449 921 q 493 869 493 913 l 492 856 q 426 746 479 788 q 322 710 379 710 m 229 413 q 332 431 281 413 q 422 482 383 449 q 469 551 469 522 l 469 556 q 456 567 468 560 q 414 581 444 575 l 408 581 q 327 558 363 581 q 268 508 292 535 q 208 413 232 468 l 229 413 z "},"Ė":{"ha":657,"x_min":38,"x_max":631,"o":"m 400 3 l 332 3 q 258 4 288 3 q 208 7 228 6 q 177 10 189 8 q 158 15 165 13 q 113 58 129 26 q 104 78 108 67 q 96 111 100 90 q 88 163 92 132 q 81 238 85 193 q 72 401 75 308 q 38 453 38 417 q 47 483 38 469 q 71 503 56 496 q 72 628 71 567 q 75 742 72 689 q 79 814 76 786 q 85 858 82 842 q 90 882 88 875 q 93 892 92 889 q 142 940 106 926 q 213 960 178 954 q 365 968 271 968 q 440 966 404 968 q 505 963 476 964 q 551 959 533 961 q 571 957 569 957 q 608 939 594 954 q 621 906 621 924 l 621 897 q 603 860 618 874 q 568 847 588 847 l 561 847 l 547 849 q 508 851 532 850 q 452 854 483 853 q 388 856 421 856 l 343 856 q 246 851 283 856 q 194 843 208 847 q 191 805 193 832 q 186 725 189 778 q 183 624 183 678 q 182 514 182 569 l 219 517 l 500 533 q 535 519 519 533 q 553 482 551 506 l 553 475 q 539 440 553 456 q 501 422 525 425 l 226 406 l 183 403 q 192 236 186 306 q 201 156 196 183 q 210 118 206 129 q 322 114 239 114 l 399 114 q 463 115 432 114 q 518 117 494 117 q 557 119 542 118 l 572 119 l 576 119 q 613 105 597 119 q 631 67 629 90 l 631 63 q 616 26 631 42 q 578 8 601 11 l 563 8 q 523 6 547 7 q 467 4 499 6 q 400 3 435 3 m 331 1047 l 328 1047 q 294 1061 308 1047 q 279 1096 279 1075 l 279 1099 q 293 1133 279 1118 q 328 1147 307 1147 l 332 1147 q 364 1133 350 1147 q 378 1099 378 1119 l 378 1094 q 365 1063 378 1076 q 331 1047 351 1049 z "},"ė":{"ha":661,"x_min":31,"x_max":626,"o":"m 333 4 q 89 154 144 4 q 68 274 68 207 q 72 333 68 303 l 63 338 q 31 389 31 353 q 36 411 31 400 q 88 443 53 443 l 101 442 q 138 517 117 481 q 185 582 158 553 q 415 692 281 692 l 426 692 q 581 551 581 663 q 563 483 581 524 q 494 397 546 442 q 430 353 465 374 q 354 321 394 333 q 271 303 314 308 q 226 300 249 300 q 181 303 204 300 l 179 275 q 181 240 179 261 q 191 195 182 219 q 217 153 200 171 q 260 128 233 136 q 335 115 299 115 q 410 132 375 115 q 458 164 438 144 q 492 201 478 183 q 513 232 506 218 l 518 244 q 568 279 535 279 q 592 274 579 279 q 626 224 626 260 q 621 201 626 213 q 611 180 621 199 q 581 135 601 161 q 531 80 561 108 q 457 32 500 51 q 333 4 397 4 m 229 413 q 332 431 281 413 q 422 482 383 449 q 469 551 469 522 l 469 556 q 456 567 468 560 q 414 581 444 575 l 408 581 q 327 558 363 581 q 268 508 292 535 q 208 413 232 468 l 229 413 m 332 769 l 329 769 q 295 783 310 769 q 281 818 281 797 l 281 821 q 294 855 281 840 q 329 869 308 869 l 333 869 q 365 856 351 869 q 379 821 379 842 l 379 817 q 366 785 379 799 q 332 769 353 771 z "},"Ě":{"ha":657,"x_min":38,"x_max":631,"o":"m 400 3 l 332 3 q 258 4 288 3 q 208 7 228 6 q 177 10 189 8 q 158 15 165 13 q 113 58 129 26 q 104 78 108 67 q 96 111 100 90 q 88 163 92 132 q 81 238 85 193 q 72 401 75 308 q 38 453 38 417 q 47 483 38 469 q 71 503 56 496 q 72 628 71 567 q 75 742 72 689 q 79 814 76 786 q 85 858 82 842 q 90 882 88 875 q 93 892 92 889 q 142 940 106 926 q 213 960 178 954 q 365 968 271 968 q 440 966 404 968 q 505 963 476 964 q 551 959 533 961 q 571 957 569 957 q 608 939 594 954 q 621 906 621 924 l 621 897 q 603 860 618 874 q 568 847 588 847 l 561 847 l 547 849 q 508 851 532 850 q 452 854 483 853 q 388 856 421 856 l 343 856 q 246 851 283 856 q 194 843 208 847 q 191 805 193 832 q 186 725 189 778 q 183 624 183 678 q 182 514 182 569 l 219 517 l 500 533 q 535 519 519 533 q 553 482 551 506 l 553 475 q 539 440 553 456 q 501 422 525 425 l 226 406 l 183 403 q 192 236 186 306 q 201 156 196 183 q 210 118 206 129 q 322 114 239 114 l 399 114 q 463 115 432 114 q 518 117 494 117 q 557 119 542 118 l 572 119 l 576 119 q 613 105 597 119 q 631 67 629 90 l 631 63 q 616 26 631 42 q 578 8 601 11 l 563 8 q 523 6 547 7 q 467 4 499 6 q 400 3 435 3 m 333 989 l 326 989 q 264 1013 293 989 q 215 1064 235 1038 q 187 1106 199 1088 q 175 1126 175 1125 q 168 1151 168 1139 q 172 1175 168 1160 q 196 1201 176 1190 q 222 1210 208 1210 q 251 1202 238 1210 q 271 1181 264 1194 l 278 1168 q 285 1156 281 1163 q 296 1142 290 1149 q 326 1106 315 1114 l 357 1139 q 369 1153 364 1146 q 378 1167 374 1161 q 386 1179 383 1172 q 432 1206 403 1206 q 463 1196 449 1206 q 489 1150 489 1179 q 479 1119 489 1135 q 467 1101 478 1118 q 438 1064 456 1085 q 383 1010 408 1028 q 333 989 358 992 z "},"ě":{"ha":661,"x_min":31,"x_max":626,"o":"m 333 4 q 89 154 144 4 q 68 274 68 207 q 72 333 68 303 l 63 338 q 31 389 31 353 q 36 411 31 400 q 88 443 53 443 l 101 442 q 138 517 117 481 q 185 582 158 553 q 415 692 281 692 l 426 692 q 581 551 581 663 q 563 483 581 524 q 494 397 546 442 q 430 353 465 374 q 354 321 394 333 q 271 303 314 308 q 226 300 249 300 q 181 303 204 300 l 179 275 q 181 240 179 261 q 191 195 182 219 q 217 153 200 171 q 260 128 233 136 q 335 115 299 115 q 410 132 375 115 q 458 164 438 144 q 492 201 478 183 q 513 232 506 218 l 518 244 q 568 279 535 279 q 592 274 579 279 q 626 224 626 260 q 621 201 626 213 q 611 180 621 199 q 581 135 601 161 q 531 80 561 108 q 457 32 500 51 q 333 4 397 4 m 336 711 l 329 711 q 267 735 296 711 q 218 786 238 760 q 190 828 201 810 q 178 849 178 847 q 171 874 171 861 q 175 897 171 882 q 199 924 179 913 q 225 932 211 932 q 253 924 240 932 q 274 903 267 917 l 281 890 q 288 878 283 885 q 299 864 293 871 q 329 828 318 836 l 360 861 q 372 876 367 868 q 381 889 376 883 q 389 901 386 894 q 435 928 406 928 q 465 918 451 928 q 492 872 492 901 q 482 842 492 857 q 469 824 481 840 q 440 786 458 807 q 386 732 411 750 q 336 711 361 714 m 229 413 q 332 431 281 413 q 422 482 383 449 q 469 551 469 522 l 469 556 q 456 567 468 560 q 414 581 444 575 l 408 581 q 327 558 363 581 q 268 508 292 535 q 208 413 232 468 l 229 413 z "},"Ĝ":{"ha":771,"x_min":35,"x_max":749,"o":"m 404 3 q 244 50 321 3 q 157 124 196 79 q 90 225 118 168 q 35 479 35 338 l 35 504 q 138 838 43 711 q 236 927 181 894 q 356 967 292 960 l 379 968 q 457 956 417 968 q 536 917 497 944 q 643 747 618 856 l 644 735 q 634 703 644 719 q 600 682 624 686 l 586 681 q 556 690 572 681 q 535 724 539 700 q 508 788 526 761 q 467 830 490 814 q 418 853 444 846 q 382 857 400 857 q 226 771 290 857 q 146 476 146 664 q 158 367 146 419 q 192 270 169 315 q 243 194 214 225 q 303 144 272 163 q 406 114 353 114 q 543 211 496 114 q 563 266 556 236 q 575 331 571 296 q 550 329 563 329 q 524 329 538 329 q 454 331 490 329 q 379 336 418 332 q 343 355 356 339 q 331 389 331 371 q 351 436 331 418 q 383 447 365 447 l 392 447 q 517 440 457 440 q 578 442 533 440 q 689 447 624 443 l 693 447 q 730 433 714 447 q 749 396 746 419 l 749 392 q 734 355 749 371 q 696 336 719 339 l 688 336 q 663 210 681 263 q 620 122 644 158 q 570 65 596 86 q 524 32 544 43 q 404 3 469 3 m 279 988 q 253 996 265 988 q 225 1046 225 1011 q 232 1071 225 1058 q 244 1091 232 1072 q 272 1133 256 1110 q 383 1208 328 1208 l 390 1208 q 440 1188 415 1206 q 494 1133 465 1169 q 524 1096 513 1113 q 536 1078 535 1079 q 546 1047 546 1064 q 542 1028 546 1042 q 519 1001 539 1014 q 492 993 506 993 q 470 996 485 993 q 443 1018 456 999 q 435 1031 440 1025 q 426 1043 431 1036 q 414 1058 421 1050 l 383 1092 q 353 1056 372 1083 q 342 1042 347 1049 q 335 1029 338 1035 l 328 1017 q 308 995 321 1003 q 279 988 294 988 z "},"ĝ":{"ha":636,"x_min":36,"x_max":586,"o":"m 319 -347 q 306 -347 313 -347 q 292 -346 299 -347 q 140 -276 201 -337 q 90 -197 107 -243 q 69 -93 72 -150 q 85 -53 69 -69 q 124 -37 100 -37 l 128 -37 q 164 -52 149 -37 q 181 -90 179 -67 q 194 -162 182 -135 q 226 -205 207 -189 q 265 -228 244 -221 q 303 -236 286 -235 l 321 -237 q 361 -233 339 -237 q 405 -217 383 -228 q 442 -189 426 -206 q 461 -153 457 -172 q 476 14 476 -93 l 475 78 q 293 -1 403 -1 q 111 78 181 -1 q 36 303 36 163 l 38 343 q 63 456 43 403 q 114 551 82 510 q 197 625 150 600 q 310 656 251 656 q 447 610 389 656 l 449 643 q 467 681 451 667 q 501 694 482 694 l 508 694 q 546 676 532 692 q 560 642 560 661 l 558 574 q 561 480 558 540 q 571 329 564 419 q 581 191 576 260 q 586 57 585 122 l 586 14 q 583 -78 586 -28 q 569 -176 581 -128 q 463 -311 550 -262 q 319 -347 397 -347 m 293 110 q 401 164 360 110 q 434 226 421 190 q 450 304 447 263 l 451 332 q 438 427 451 378 q 394 508 425 476 q 313 544 361 544 q 203 485 247 544 q 165 416 179 456 q 147 333 151 376 l 146 300 q 156 223 146 264 q 193 151 167 182 q 293 110 232 110 m 213 710 q 186 718 199 710 q 158 768 158 733 q 165 793 158 781 q 177 813 165 794 q 206 856 189 832 q 317 931 261 931 l 324 931 q 374 910 349 928 q 428 856 399 892 q 457 818 446 835 q 469 800 468 801 q 479 769 479 786 q 476 750 479 764 q 453 724 472 736 q 425 715 439 715 q 403 718 418 715 q 376 740 389 721 q 369 753 374 747 q 359 765 364 758 q 347 781 354 772 l 317 814 q 286 778 306 806 q 276 764 281 771 q 268 751 271 757 l 261 739 q 241 717 254 725 q 213 710 228 710 z "},"Ğ":{"ha":771,"x_min":35,"x_max":749,"o":"m 404 3 q 244 50 321 3 q 157 124 196 79 q 90 225 118 168 q 35 479 35 338 l 35 504 q 138 838 43 711 q 236 927 181 894 q 356 967 292 960 l 379 968 q 457 956 417 968 q 536 917 497 944 q 643 747 618 856 l 644 735 q 634 703 644 719 q 600 682 624 686 l 586 681 q 556 690 572 681 q 535 724 539 700 q 508 788 526 761 q 467 830 490 814 q 418 853 444 846 q 382 857 400 857 q 226 771 290 857 q 146 476 146 664 q 158 367 146 419 q 192 270 169 315 q 243 194 214 225 q 303 144 272 163 q 406 114 353 114 q 543 211 496 114 q 563 266 556 236 q 575 331 571 296 q 550 329 563 329 q 524 329 538 329 q 454 331 490 329 q 379 336 418 332 q 343 355 356 339 q 331 389 331 371 q 351 436 331 418 q 383 447 365 447 l 392 447 q 517 440 457 440 q 578 442 533 440 q 689 447 624 443 l 693 447 q 730 433 714 447 q 749 396 746 419 l 749 392 q 734 355 749 371 q 696 336 719 339 l 688 336 q 663 210 681 263 q 620 122 644 158 q 570 65 596 86 q 524 32 544 43 q 404 3 469 3 m 378 988 l 371 988 q 317 999 343 989 q 271 1029 292 1010 q 219 1139 228 1069 l 219 1147 q 232 1181 219 1165 q 268 1200 244 1197 l 276 1200 q 311 1188 294 1200 q 331 1151 328 1175 q 379 1099 335 1099 q 414 1111 396 1099 q 439 1156 432 1124 q 463 1192 443 1179 q 490 1200 475 1200 l 504 1199 q 549 1147 549 1190 l 547 1133 q 482 1024 535 1065 q 378 988 435 988 z "},"ğ":{"ha":636,"x_min":36,"x_max":586,"o":"m 319 -347 q 306 -347 313 -347 q 292 -346 299 -347 q 140 -276 201 -337 q 90 -197 107 -243 q 69 -93 72 -150 q 85 -53 69 -69 q 124 -37 100 -37 l 128 -37 q 164 -52 149 -37 q 181 -90 179 -67 q 194 -162 182 -135 q 226 -205 207 -189 q 265 -228 244 -221 q 303 -236 286 -235 l 321 -237 q 361 -233 339 -237 q 405 -217 383 -228 q 442 -189 426 -206 q 461 -153 457 -172 q 476 14 476 -93 l 475 78 q 293 -1 403 -1 q 111 78 181 -1 q 36 303 36 163 l 38 343 q 63 456 43 403 q 114 551 82 510 q 197 625 150 600 q 310 656 251 656 q 447 610 389 656 l 449 643 q 467 681 451 667 q 501 694 482 694 l 508 694 q 546 676 532 692 q 560 642 560 661 l 558 574 q 561 480 558 540 q 571 329 564 419 q 581 191 576 260 q 586 57 585 122 l 586 14 q 583 -78 586 -28 q 569 -176 581 -128 q 463 -311 550 -262 q 319 -347 397 -347 m 293 110 q 401 164 360 110 q 434 226 421 190 q 450 304 447 263 l 451 332 q 438 427 451 378 q 394 508 425 476 q 313 544 361 544 q 203 485 247 544 q 165 416 179 456 q 147 333 151 376 l 146 300 q 156 223 146 264 q 193 151 167 182 q 293 110 232 110 m 310 710 l 303 710 q 249 722 275 711 q 203 751 224 732 q 151 861 160 792 l 151 869 q 164 903 151 888 q 200 922 176 919 l 208 922 q 243 910 226 922 q 263 874 260 897 q 311 821 267 821 q 346 833 328 821 q 371 878 364 846 q 394 914 375 901 q 422 922 407 922 l 436 921 q 481 869 481 913 l 479 856 q 414 746 467 788 q 310 710 367 710 z "},"Ġ":{"ha":771,"x_min":35,"x_max":749,"o":"m 404 3 q 244 50 321 3 q 157 124 196 79 q 90 225 118 168 q 35 479 35 338 l 35 504 q 138 838 43 711 q 236 927 181 894 q 356 967 292 960 l 379 968 q 457 956 417 968 q 536 917 497 944 q 643 747 618 856 l 644 735 q 634 703 644 719 q 600 682 624 686 l 586 681 q 556 690 572 681 q 535 724 539 700 q 508 788 526 761 q 467 830 490 814 q 418 853 444 846 q 382 857 400 857 q 226 771 290 857 q 146 476 146 664 q 158 367 146 419 q 192 270 169 315 q 243 194 214 225 q 303 144 272 163 q 406 114 353 114 q 543 211 496 114 q 563 266 556 236 q 575 331 571 296 q 550 329 563 329 q 524 329 538 329 q 454 331 490 329 q 379 336 418 332 q 343 355 356 339 q 331 389 331 371 q 351 436 331 418 q 383 447 365 447 l 392 447 q 517 440 457 440 q 578 442 533 440 q 689 447 624 443 l 693 447 q 730 433 714 447 q 749 396 746 419 l 749 392 q 734 355 749 371 q 696 336 719 339 l 688 336 q 663 210 681 263 q 620 122 644 158 q 570 65 596 86 q 524 32 544 43 q 404 3 469 3 m 388 1047 l 385 1047 q 351 1061 365 1047 q 336 1096 336 1075 l 336 1099 q 350 1133 336 1118 q 385 1147 364 1147 l 389 1147 q 421 1133 407 1147 q 435 1099 435 1119 l 435 1094 q 422 1063 435 1076 q 388 1047 408 1049 z "},"ġ":{"ha":636,"x_min":36,"x_max":586,"o":"m 319 -347 q 306 -347 313 -347 q 292 -346 299 -347 q 140 -276 201 -337 q 90 -197 107 -243 q 69 -93 72 -150 q 85 -53 69 -69 q 124 -37 100 -37 l 128 -37 q 164 -52 149 -37 q 181 -90 179 -67 q 194 -162 182 -135 q 226 -205 207 -189 q 265 -228 244 -221 q 303 -236 286 -235 l 321 -237 q 361 -233 339 -237 q 405 -217 383 -228 q 442 -189 426 -206 q 461 -153 457 -172 q 476 14 476 -93 l 475 78 q 293 -1 403 -1 q 111 78 181 -1 q 36 303 36 163 l 38 343 q 63 456 43 403 q 114 551 82 510 q 197 625 150 600 q 310 656 251 656 q 447 610 389 656 l 449 643 q 467 681 451 667 q 501 694 482 694 l 508 694 q 546 676 532 692 q 560 642 560 661 l 558 574 q 561 480 558 540 q 571 329 564 419 q 581 191 576 260 q 586 57 585 122 l 586 14 q 583 -78 586 -28 q 569 -176 581 -128 q 463 -311 550 -262 q 319 -347 397 -347 m 293 110 q 401 164 360 110 q 434 226 421 190 q 450 304 447 263 l 451 332 q 438 427 451 378 q 394 508 425 476 q 313 544 361 544 q 203 485 247 544 q 165 416 179 456 q 147 333 151 376 l 146 300 q 156 223 146 264 q 193 151 167 182 q 293 110 232 110 m 319 769 l 317 769 q 283 783 297 769 q 268 818 268 797 l 268 821 q 282 855 268 840 q 317 869 296 869 l 321 869 q 353 856 339 869 q 367 821 367 842 l 367 817 q 353 785 367 799 q 319 769 340 771 z "},"Ĥ":{"ha":771,"x_min":36,"x_max":738,"o":"m 169 -1 q 129 15 144 -1 q 114 53 114 32 l 114 57 q 119 169 117 100 q 121 344 121 238 q 36 404 36 350 l 38 418 q 90 461 47 461 l 104 460 l 121 456 q 119 648 121 543 q 114 883 117 753 l 114 908 q 130 948 114 932 q 169 964 146 964 q 209 948 193 964 q 225 908 225 932 l 225 886 q 230 642 228 751 q 232 446 232 533 l 286 444 q 390 448 328 444 q 525 463 451 451 q 524 558 524 508 q 525 688 524 608 q 533 903 526 767 q 551 941 536 926 q 588 956 567 956 q 629 939 614 956 q 644 901 644 922 l 644 897 q 635 546 635 713 l 635 489 l 663 497 q 683 501 674 501 q 710 494 694 501 q 733 465 726 488 q 738 443 738 454 q 731 417 738 433 q 701 393 724 401 q 639 374 671 382 q 645 261 642 315 q 653 153 649 207 l 658 75 q 644 38 658 54 q 607 19 631 22 l 603 19 q 565 34 581 19 q 547 71 549 49 l 542 144 l 529 351 q 436 341 481 344 q 361 335 392 338 l 294 333 q 232 335 263 333 q 229 163 231 231 q 225 51 228 94 q 208 13 224 28 q 169 -1 192 -1 m 279 988 q 253 996 265 988 q 225 1046 225 1011 q 232 1071 225 1058 q 244 1091 232 1072 q 272 1133 256 1110 q 383 1208 328 1208 l 390 1208 q 440 1188 415 1206 q 494 1133 465 1169 q 524 1096 513 1113 q 536 1078 535 1079 q 546 1047 546 1064 q 542 1028 546 1042 q 519 1001 539 1014 q 492 993 506 993 q 470 996 485 993 q 443 1018 456 999 q 435 1031 440 1025 q 426 1043 431 1036 q 414 1058 421 1050 l 383 1092 q 353 1056 372 1083 q 342 1042 347 1049 q 335 1029 338 1035 l 328 1017 q 308 995 321 1003 q 279 988 294 988 z "},"ĥ":{"ha":554,"x_min":44,"x_max":540,"o":"m 486 1 l 485 1 q 447 17 463 1 q 429 56 431 32 l 428 79 q 424 140 426 103 q 416 226 421 178 q 404 325 411 274 q 363 513 388 442 q 335 573 347 558 q 319 590 322 588 q 305 578 317 589 q 275 529 293 568 q 217 344 244 465 q 196 243 204 293 q 181 154 188 193 q 172 92 175 115 l 169 67 q 151 31 167 44 q 117 17 136 17 l 113 17 q 75 33 90 18 q 60 71 60 49 l 44 988 q 60 1027 44 1011 q 99 1043 75 1043 l 103 1043 q 140 1028 124 1043 q 156 989 156 1013 l 163 550 l 175 578 q 228 658 201 629 q 322 701 271 701 q 355 697 335 701 q 399 669 375 692 q 479 514 446 626 q 500 423 490 474 q 518 314 510 372 q 529 219 525 264 q 536 139 533 174 q 540 83 539 104 q 540 60 540 61 l 540 56 q 525 19 540 35 q 486 1 510 3 m 265 882 q 239 890 251 882 q 211 940 211 906 q 218 965 211 953 q 230 985 218 967 q 258 1028 242 1004 q 369 1103 314 1103 l 376 1103 q 426 1082 401 1100 q 481 1028 451 1064 q 510 990 499 1007 q 522 972 521 974 q 532 942 532 958 q 528 922 532 936 q 506 896 525 908 q 478 888 492 888 q 456 890 471 888 q 429 913 442 893 q 422 925 426 919 q 412 938 417 931 q 400 953 407 944 l 369 986 q 339 950 358 978 q 328 936 333 943 q 321 924 324 929 l 314 911 q 294 890 307 897 q 265 882 281 882 z "},"Ĩ":{"ha":689,"x_min":36,"x_max":658,"o":"m 328 1 l 326 1 q 293 12 307 1 q 274 39 279 22 q 215 30 243 35 q 158 19 186 25 q 135 17 147 18 q 113 13 124 15 q 104 11 110 11 q 69 24 85 11 q 49 57 53 38 l 49 65 q 60 101 49 85 q 94 122 71 118 q 117 125 106 124 q 139 129 128 126 q 202 140 171 135 q 268 150 233 146 q 264 272 265 208 q 260 400 263 336 q 252 618 256 511 q 247 808 249 725 q 156 811 196 808 q 83 818 115 814 q 48 838 60 821 q 36 872 36 854 l 36 881 q 56 916 39 904 q 90 928 72 928 l 99 928 q 153 922 118 925 q 247 919 189 919 q 266 953 250 939 q 303 967 282 967 q 339 953 324 967 q 357 919 354 939 q 586 928 450 919 l 603 929 q 642 913 626 929 q 658 874 658 897 q 643 834 658 850 q 604 818 628 818 l 593 817 q 358 808 461 810 q 363 620 360 726 q 371 403 367 514 q 375 278 374 340 q 379 157 376 215 l 413 157 q 492 154 446 157 q 606 142 539 151 q 641 122 629 139 q 653 88 653 106 l 653 79 q 633 44 650 56 q 599 32 617 32 l 590 32 q 411 46 483 46 l 381 46 q 362 14 376 26 q 328 1 347 1 m 169 1010 q 121 1040 135 1010 q 114 1065 114 1053 q 117 1082 114 1074 q 133 1124 122 1103 q 160 1163 144 1144 q 197 1194 176 1181 q 240 1210 217 1207 q 263 1210 250 1211 q 292 1203 276 1210 q 322 1184 307 1197 q 353 1147 338 1171 q 372 1131 361 1135 q 389 1126 383 1126 l 388 1150 q 399 1183 388 1167 q 435 1201 411 1199 l 446 1203 q 478 1191 463 1203 q 499 1156 494 1179 q 501 1126 501 1140 q 481 1063 501 1090 q 431 1024 461 1035 q 386 1015 408 1015 q 336 1025 361 1015 q 260 1088 288 1044 l 253 1097 q 238 1081 246 1093 q 222 1049 229 1068 q 202 1020 217 1031 q 169 1010 188 1010 z "},"Ĭ":{"ha":689,"x_min":36,"x_max":658,"o":"m 328 1 l 326 1 q 293 12 307 1 q 274 39 279 22 q 215 30 243 35 q 158 19 186 25 q 135 17 147 18 q 113 13 124 15 q 104 11 110 11 q 69 24 85 11 q 49 57 53 38 l 49 65 q 60 101 49 85 q 94 122 71 118 q 117 125 106 124 q 139 129 128 126 q 202 140 171 135 q 268 150 233 146 q 264 272 265 208 q 260 400 263 336 q 252 618 256 511 q 247 808 249 725 q 156 811 196 808 q 83 818 115 814 q 48 838 60 821 q 36 872 36 854 l 36 881 q 56 916 39 904 q 90 928 72 928 l 99 928 q 153 922 118 925 q 247 919 189 919 q 266 953 250 939 q 303 967 282 967 q 339 953 324 967 q 357 919 354 939 q 586 928 450 919 l 603 929 q 642 913 626 929 q 658 874 658 897 q 643 834 658 850 q 604 818 628 818 l 603 818 q 593 817 600 817 q 358 808 461 810 q 363 620 360 726 q 371 403 367 514 q 375 278 374 340 q 379 157 376 215 l 413 157 q 492 154 446 157 q 606 142 539 151 q 641 122 629 139 q 653 88 653 106 l 653 79 q 633 44 650 56 q 599 32 617 32 l 590 32 q 411 46 483 46 l 381 46 q 362 14 376 26 q 328 1 347 1 m 304 988 l 297 988 q 244 999 269 989 q 197 1029 218 1010 q 146 1139 154 1069 l 146 1147 q 158 1181 146 1165 q 194 1200 171 1197 l 203 1200 q 238 1188 221 1200 q 257 1151 254 1175 q 306 1099 261 1099 q 340 1111 322 1099 q 365 1156 358 1124 q 389 1192 369 1179 q 417 1200 401 1200 l 431 1199 q 475 1147 475 1190 l 474 1133 q 408 1024 461 1065 q 304 988 361 988 z "},"İ":{"ha":689,"x_min":36,"x_max":658,"o":"m 328 1 l 326 1 q 293 12 307 1 q 274 39 279 22 q 215 30 243 35 q 158 19 186 25 q 135 17 147 18 q 113 13 124 15 q 104 11 110 11 q 69 24 85 11 q 49 57 53 38 l 49 65 q 60 101 49 85 q 94 122 71 118 q 117 125 106 124 q 139 129 128 126 q 202 140 171 135 q 268 150 233 146 q 264 272 265 208 q 260 400 263 336 q 252 618 256 511 q 247 808 249 725 q 156 811 196 808 q 83 818 115 814 q 48 838 60 821 q 36 872 36 854 l 36 881 q 56 916 39 904 q 90 928 72 928 l 99 928 q 153 922 118 925 q 247 919 189 919 q 266 953 250 939 q 303 967 282 967 q 339 953 324 967 q 357 919 354 939 q 586 928 450 919 l 603 929 q 642 913 626 929 q 658 874 658 897 q 643 834 658 850 q 604 818 628 818 l 593 817 q 358 808 461 810 q 363 620 360 726 q 371 403 367 514 q 375 278 374 340 q 379 157 376 215 l 413 157 q 492 154 446 157 q 606 142 539 151 q 641 122 629 139 q 653 88 653 106 l 653 79 q 633 44 650 56 q 599 32 617 32 l 590 32 q 411 46 483 46 l 381 46 q 362 14 376 26 q 328 1 347 1 m 304 1047 l 301 1047 q 267 1061 282 1047 q 253 1096 253 1075 l 253 1099 q 267 1133 253 1118 q 301 1147 281 1147 l 306 1147 q 338 1133 324 1147 q 351 1099 351 1119 l 351 1094 q 338 1063 351 1076 q 304 1047 325 1049 z "},"Ĳ":{"ha":1454,"x_min":36,"x_max":1439,"o":"m 976 1 q 962 1 969 1 q 946 4 954 1 q 856 46 897 13 q 783 135 814 79 q 736 260 751 189 q 719 414 721 331 q 735 453 719 438 q 775 469 751 469 q 815 454 799 469 q 831 415 831 439 q 843 292 831 346 q 874 200 856 239 q 917 139 893 161 q 965 113 940 117 l 976 111 q 1037 140 1007 111 q 1089 228 1067 168 q 1111 399 1111 288 q 1109 478 1111 426 q 1097 617 1107 529 q 1068 803 1086 706 q 930 796 997 800 q 804 789 863 792 l 801 789 q 763 803 779 789 q 746 840 747 818 l 746 844 q 760 881 746 865 q 797 900 774 897 l 1047 913 q 1060 947 1049 932 q 1092 965 1072 961 l 1104 967 q 1135 956 1119 967 q 1157 922 1151 946 l 1158 918 l 1383 931 q 1420 916 1404 931 q 1439 878 1436 901 l 1439 874 q 1424 837 1439 853 q 1386 819 1410 821 l 1181 808 q 1205 655 1193 739 q 1221 488 1217 571 l 1222 417 q 1218 308 1222 369 q 1193 189 1214 247 q 1093 42 1158 94 q 976 1 1038 1 m 328 1 l 326 1 q 293 12 307 1 q 274 39 279 22 q 215 30 243 35 q 158 19 186 25 q 135 17 147 18 q 113 13 124 15 q 104 11 110 11 q 69 24 85 11 q 49 57 53 38 l 49 65 q 60 101 49 85 q 94 122 71 118 q 117 125 106 124 q 139 129 128 126 q 202 140 171 135 q 268 150 233 146 q 264 272 265 208 q 260 400 263 336 q 252 618 256 511 q 247 808 249 725 q 156 811 196 808 q 83 818 115 814 q 48 838 60 821 q 36 872 36 854 l 36 881 q 56 916 39 904 q 90 928 72 928 l 99 928 q 153 922 118 925 q 247 919 189 919 q 266 953 250 939 q 303 967 282 967 q 339 953 324 967 q 357 919 354 939 q 586 928 450 919 l 603 929 q 642 913 626 929 q 658 874 658 897 q 643 834 658 850 q 604 818 628 818 l 603 818 q 593 817 600 817 q 358 808 461 810 q 363 620 360 726 q 371 403 367 514 q 375 278 374 340 q 379 157 376 215 l 413 157 q 492 154 446 157 q 606 142 539 151 q 641 122 629 139 q 653 88 653 106 l 653 79 q 633 44 650 56 q 599 32 617 32 l 590 32 q 411 46 483 46 l 381 46 q 362 14 376 26 q 328 1 347 1 z "},"ĳ":{"ha":526,"x_min":35,"x_max":496,"o":"m 144 1 q 94 34 110 1 q 66 109 78 67 q 48 197 54 151 q 38 288 42 243 q 35 374 35 333 l 35 418 q 35 473 35 440 q 39 543 36 506 q 46 610 42 581 q 57 658 50 640 q 108 697 69 697 q 126 694 117 697 q 165 642 165 682 q 163 624 165 633 q 149 538 156 604 q 143 428 143 490 l 144 376 q 160 200 147 276 q 194 81 172 124 q 200 57 200 69 q 194 33 200 49 q 168 7 189 18 q 144 1 158 1 m 124 804 l 119 804 q 63 827 88 804 q 38 885 39 850 l 38 889 q 60 945 38 921 q 118 971 83 969 l 122 971 q 178 948 154 971 q 203 890 201 925 l 203 886 q 181 830 203 854 q 124 804 158 806 m 322 -349 q 310 -349 315 -349 q 297 -347 304 -349 q 262 -328 274 -344 q 250 -293 250 -311 q 271 -247 250 -264 q 303 -237 285 -237 l 321 -237 q 334 -236 329 -237 q 340 -233 339 -235 q 353 -208 346 -228 q 365 -135 361 -187 q 367 -65 367 -103 l 361 108 q 354 414 354 311 q 382 690 354 664 q 415 703 396 703 l 422 703 q 460 686 446 701 q 474 651 474 671 l 474 644 q 465 413 465 522 q 467 304 465 385 q 472 113 468 224 l 478 -26 l 478 -57 q 475 -142 478 -103 q 461 -234 472 -186 q 415 -314 450 -282 q 322 -349 379 -349 m 411 790 q 350 817 375 790 q 325 881 325 843 q 350 944 325 918 q 411 971 375 971 q 472 944 447 971 q 496 881 496 918 q 472 817 496 843 q 411 790 447 790 z "},"Ĵ":{"ha":765,"x_min":31,"x_max":750,"o":"m 288 1 q 273 1 281 1 q 257 4 265 1 q 167 46 208 13 q 94 135 125 79 q 47 260 63 189 q 31 414 32 331 q 47 453 31 438 q 86 469 63 469 q 126 454 110 469 q 142 415 142 439 q 154 292 142 346 q 185 200 167 239 q 228 139 204 161 q 276 113 251 117 l 288 111 q 348 140 318 111 q 400 228 378 168 q 422 399 422 288 q 420 478 422 426 q 408 617 418 529 q 379 803 397 706 q 241 796 308 800 q 115 789 174 792 l 113 789 q 74 803 90 789 q 57 840 58 818 l 57 844 q 71 881 57 865 q 108 900 85 897 l 358 913 q 372 947 360 932 q 403 965 383 961 l 415 967 q 447 956 431 967 q 468 922 463 946 l 469 918 l 694 931 q 731 916 715 931 q 750 878 747 901 l 750 874 q 735 837 750 853 q 697 819 721 821 l 492 808 q 516 655 504 739 q 532 488 528 571 l 533 417 q 529 308 533 369 q 504 189 525 247 q 404 42 469 94 q 288 1 349 1 m 303 988 q 276 996 289 988 q 249 1046 249 1011 q 256 1071 249 1058 q 267 1091 256 1072 q 296 1133 279 1110 q 407 1208 351 1208 l 414 1208 q 464 1188 439 1206 q 518 1133 489 1169 q 547 1096 536 1113 q 560 1078 558 1079 q 569 1047 569 1064 q 566 1028 569 1042 q 543 1001 563 1014 q 515 993 529 993 q 494 996 508 993 q 467 1018 479 999 q 459 1031 464 1025 q 449 1043 454 1036 q 438 1058 444 1050 l 407 1092 q 376 1056 396 1083 q 366 1042 371 1049 q 358 1029 361 1035 l 351 1017 q 331 995 344 1003 q 303 988 318 988 z "},"Ĺ":{"ha":638,"x_min":43,"x_max":632,"o":"m 353 -1 q 78 94 133 -1 q 54 169 63 122 q 43 292 46 215 l 43 350 q 44 431 43 381 q 50 563 44 481 q 60 694 54 631 q 69 806 65 757 q 78 886 74 856 l 81 915 q 99 951 83 939 q 133 964 115 964 l 142 964 q 178 945 165 961 q 190 911 190 929 l 190 903 l 188 874 q 179 795 183 843 q 170 684 175 747 q 161 554 165 621 q 154 353 154 431 q 158 231 154 275 q 166 171 161 188 q 174 151 171 154 q 188 138 176 147 q 236 121 200 128 q 298 112 264 114 q 374 110 332 110 q 445 115 411 111 q 507 121 479 118 l 567 129 l 575 129 q 611 118 594 129 q 632 83 628 107 l 632 75 q 621 40 632 57 q 586 19 610 24 q 567 16 585 19 q 520 10 549 13 q 455 3 492 7 q 378 0 418 0 q 365 -1 371 -1 q 353 -1 360 -1 m 269 1008 l 257 1010 q 250 1012 254 1011 q 243 1015 246 1013 q 214 1065 214 1032 q 221 1090 214 1078 q 275 1170 253 1144 q 317 1214 297 1196 q 323 1221 319 1218 q 331 1228 326 1224 q 369 1244 346 1243 q 408 1226 392 1244 q 424 1188 424 1211 q 407 1149 425 1165 q 400 1141 404 1144 q 392 1133 396 1138 q 358 1098 375 1117 q 318 1036 340 1079 q 269 1008 300 1008 z "},"ĺ":{"ha":281,"x_min":38,"x_max":268,"o":"m 158 3 q 133 8 146 3 q 114 25 121 14 q 92 69 103 40 q 70 158 81 99 q 52 315 60 218 q 40 564 44 413 q 38 722 38 646 q 38 858 38 799 q 40 953 39 917 q 40 990 40 989 q 56 1029 40 1014 q 93 1044 72 1044 l 97 1044 q 136 1028 121 1044 q 151 988 151 1011 l 151 951 q 149 857 150 915 q 149 724 149 799 q 151 567 149 647 q 158 395 154 472 q 169 257 163 318 q 181 174 175 206 q 191 124 186 142 q 199 100 196 107 q 203 92 203 93 q 214 57 214 75 q 212 41 214 54 q 190 14 210 28 q 158 3 175 3 m 113 1076 l 100 1078 q 93 1080 97 1079 q 86 1083 89 1081 q 57 1133 57 1100 q 64 1158 57 1146 q 118 1238 96 1213 q 160 1282 140 1264 q 166 1289 163 1286 q 174 1296 169 1292 q 212 1312 189 1311 q 251 1294 235 1313 q 267 1256 267 1279 q 250 1217 268 1233 q 243 1209 247 1213 q 235 1201 239 1206 q 201 1166 218 1185 q 161 1104 183 1147 q 113 1076 143 1076 z "},"Ľ":{"ha":638,"x_min":43,"x_max":632,"o":"m 353 -1 q 78 94 133 -1 q 54 169 63 122 q 43 292 46 215 l 43 350 q 44 431 43 381 q 50 563 44 481 q 60 694 54 631 q 69 806 65 757 q 78 886 74 856 l 81 915 q 99 951 83 939 q 133 964 115 964 l 142 964 q 178 945 165 961 q 190 911 190 929 l 190 903 l 188 874 q 179 795 183 843 q 170 684 175 747 q 161 554 165 621 q 154 353 154 431 q 158 231 154 275 q 166 171 161 188 q 174 151 171 154 q 188 138 176 147 q 236 121 200 128 q 298 112 264 114 q 374 110 332 110 q 445 115 411 111 q 507 121 479 118 l 567 129 l 575 129 q 611 118 594 129 q 632 83 628 107 l 632 75 q 621 40 632 57 q 586 19 610 24 q 567 16 585 19 q 520 10 549 13 q 455 3 492 7 q 378 0 418 0 q 365 -1 371 -1 q 353 -1 360 -1 m 317 819 q 276 837 292 819 q 261 875 261 854 q 262 890 261 878 q 281 917 263 901 q 306 968 306 938 l 304 979 q 288 1018 301 1000 q 251 1046 274 1036 q 219 1097 219 1063 q 225 1119 219 1108 q 276 1153 240 1153 q 299 1147 288 1153 q 376 1083 347 1122 q 417 967 417 1033 q 403 901 417 936 q 354 833 390 865 q 317 819 339 819 z "},"ľ":{"ha":489,"x_min":38,"x_max":460,"o":"m 158 3 q 133 8 146 3 q 114 25 121 14 q 92 69 103 40 q 70 158 81 99 q 52 315 60 218 q 40 564 44 413 q 38 722 38 646 q 38 858 38 799 q 40 953 39 917 q 40 990 40 989 q 56 1029 40 1014 q 93 1044 72 1044 l 97 1044 q 136 1028 121 1044 q 151 988 151 1011 l 151 951 q 149 857 150 915 q 149 724 149 799 q 151 567 149 647 q 158 395 154 472 q 169 257 163 318 q 181 174 175 206 q 191 124 186 142 q 199 100 196 107 q 203 92 203 93 q 214 57 214 75 q 212 41 214 54 q 190 14 210 28 q 158 3 175 3 m 360 542 q 319 559 335 542 q 304 597 304 576 q 305 612 304 600 q 324 639 306 624 q 349 690 349 660 l 347 701 q 331 740 344 722 q 294 768 317 758 q 263 819 263 785 q 268 842 263 831 q 319 875 283 875 q 342 869 331 875 q 419 806 390 844 q 460 689 460 756 q 447 623 460 658 q 397 556 433 588 q 360 542 382 542 z "},"Ŀ":{"ha":638,"x_min":43,"x_max":632,"o":"m 353 -1 q 78 94 133 -1 q 54 169 63 122 q 43 292 46 215 l 43 350 q 44 431 43 381 q 50 563 44 481 q 60 694 54 631 q 69 806 65 757 q 78 886 74 856 l 81 915 q 99 951 83 939 q 133 964 115 964 l 142 964 q 178 945 165 961 q 190 911 190 929 l 190 903 l 188 874 q 179 795 183 843 q 170 684 175 747 q 161 554 165 621 q 154 353 154 431 q 158 231 154 275 q 166 171 161 188 q 174 151 171 154 q 188 138 176 147 q 236 121 200 128 q 298 112 264 114 q 374 110 332 110 q 445 115 411 111 q 507 121 479 118 l 567 129 l 575 129 q 611 118 594 129 q 632 83 628 107 l 632 75 q 621 40 632 57 q 586 19 610 24 q 567 16 585 19 q 520 10 549 13 q 455 3 492 7 q 378 0 418 0 q 365 -1 371 -1 q 353 -1 360 -1 m 550 349 q 502 369 522 349 q 482 419 482 390 q 502 471 482 450 q 550 492 522 492 q 598 471 578 492 q 618 419 618 450 q 598 369 618 390 q 550 349 578 349 z "},"ŀ":{"ha":383,"x_min":38,"x_max":363,"o":"m 158 3 q 133 8 146 3 q 114 25 121 14 q 92 69 103 40 q 70 158 81 99 q 52 315 60 218 q 40 564 44 413 q 38 722 38 646 q 38 858 38 799 q 40 953 39 917 q 40 990 40 989 q 56 1029 40 1014 q 93 1044 72 1044 l 97 1044 q 136 1028 121 1044 q 151 988 151 1011 l 151 951 q 149 857 150 915 q 149 724 149 799 q 151 567 149 647 q 158 395 154 472 q 169 257 163 318 q 181 174 175 206 q 191 124 186 142 q 199 100 196 107 q 203 92 203 93 q 214 57 214 75 q 212 41 214 54 q 190 14 210 28 q 158 3 175 3 m 294 354 q 247 375 267 354 q 226 425 226 396 q 247 476 226 456 q 294 497 267 497 q 342 476 322 497 q 363 425 363 456 q 342 375 363 396 q 294 354 322 354 z "},"Ń":{"ha":689,"x_min":46,"x_max":643,"o":"m 563 3 l 554 3 q 530 8 543 3 q 501 29 517 14 q 490 44 494 36 q 478 63 485 51 q 454 104 467 79 q 426 161 442 129 q 366 295 399 219 q 300 450 333 371 q 238 594 268 522 q 181 724 208 665 q 169 747 174 736 q 160 768 164 758 q 158 748 158 758 q 158 725 158 738 q 157 646 157 689 q 157 578 157 625 q 160 446 157 531 q 164 306 161 374 q 169 185 167 238 q 172 100 171 132 l 174 68 l 174 61 q 160 26 174 42 q 122 10 146 11 l 115 10 q 81 24 96 10 q 64 61 65 38 q 62 97 64 63 q 58 188 60 132 q 52 317 56 244 q 47 465 49 389 l 46 628 q 47 756 46 700 q 52 838 49 806 q 60 892 56 871 q 72 926 65 914 q 86 947 78 939 q 132 968 107 968 q 181 947 163 968 q 214 903 200 926 q 269 797 235 868 q 333 655 299 735 q 401 493 367 575 q 460 358 431 425 q 514 235 489 290 l 526 208 q 528 225 528 217 q 528 243 528 233 q 531 367 531 297 q 531 524 532 438 q 528 664 529 596 q 525 785 526 732 q 522 871 524 838 l 521 903 l 521 907 q 535 944 521 928 q 574 961 550 960 l 578 961 q 615 946 599 961 q 631 907 631 931 l 633 871 q 636 774 635 833 q 640 639 638 714 q 642 485 642 564 l 643 397 q 642 299 643 356 q 638 190 640 243 q 632 131 635 157 q 626 86 629 106 q 621 64 624 74 q 615 47 618 54 q 589 13 604 21 q 563 3 574 4 m 296 1008 l 283 1010 q 276 1012 281 1011 q 269 1015 272 1013 q 240 1065 240 1032 q 247 1090 240 1078 q 301 1170 279 1144 q 343 1214 324 1196 q 349 1221 346 1218 q 357 1228 353 1224 q 395 1244 372 1243 q 435 1226 418 1244 q 451 1188 450 1211 q 433 1149 451 1165 q 426 1141 431 1144 q 418 1133 422 1138 q 384 1098 401 1117 q 344 1036 367 1079 q 296 1008 326 1008 z "},"ń":{"ha":615,"x_min":43,"x_max":576,"o":"m 140 0 q 102 15 118 0 q 85 51 86 31 l 43 635 q 57 670 43 654 q 94 688 71 686 l 101 688 q 136 674 121 688 q 153 636 151 660 l 164 490 q 178 523 171 508 q 193 553 186 538 q 360 667 260 667 q 476 614 428 667 q 574 279 561 522 q 576 198 575 236 q 575 130 576 160 q 573 82 574 100 q 572 63 572 64 q 554 26 569 40 q 517 11 539 11 q 476 28 492 11 q 461 67 461 46 l 461 71 l 463 88 q 464 133 463 104 q 465 198 465 161 q 463 275 464 235 q 451 388 458 342 q 433 465 443 435 q 413 513 422 496 q 394 539 403 531 q 375 553 383 550 q 360 556 367 556 q 229 322 281 556 q 211 224 218 272 q 201 139 204 176 q 196 78 197 101 l 194 54 q 178 17 194 32 q 140 0 163 1 m 258 731 l 246 732 q 239 734 243 733 q 232 738 235 735 q 203 788 203 754 q 210 813 203 800 q 264 892 242 867 q 306 936 286 918 q 312 943 308 940 q 319 950 315 946 q 358 966 335 965 q 397 949 381 967 q 413 910 413 933 q 396 871 414 888 q 389 863 393 867 q 381 856 385 860 q 347 820 364 839 q 307 758 329 801 q 258 731 289 731 z "},"Ň":{"ha":689,"x_min":46,"x_max":643,"o":"m 563 3 l 554 3 q 530 8 543 3 q 501 29 517 14 q 490 44 494 36 q 478 63 485 51 q 454 104 467 79 q 426 161 442 129 q 366 295 399 219 q 300 450 333 371 q 238 594 268 522 q 181 724 208 665 q 169 747 174 736 q 160 768 164 758 q 158 748 158 758 q 158 725 158 738 q 157 646 157 689 q 157 578 157 625 q 160 446 157 531 q 164 306 161 374 q 169 185 167 238 q 172 100 171 132 l 174 68 l 174 61 q 160 26 174 42 q 122 10 146 11 l 115 10 q 81 24 96 10 q 64 61 65 38 q 62 97 64 63 q 58 188 60 132 q 52 317 56 244 q 47 465 49 389 l 46 628 q 47 756 46 700 q 52 838 49 806 q 60 892 56 871 q 72 926 65 914 q 86 947 78 939 q 132 968 107 968 q 181 947 163 968 q 214 903 200 926 q 269 797 235 868 q 333 655 299 735 q 401 493 367 575 q 460 358 431 425 q 514 235 489 290 l 526 208 q 528 225 528 217 q 528 243 528 233 q 531 367 531 297 q 531 524 532 438 q 528 664 529 596 q 525 785 526 732 q 522 871 524 838 l 521 903 l 521 907 q 535 944 521 928 q 574 961 550 960 l 578 961 q 615 946 599 961 q 631 907 631 931 l 633 871 q 636 774 635 833 q 640 639 638 714 q 642 485 642 564 l 643 397 q 642 299 643 356 q 638 190 640 243 q 632 131 635 157 q 626 86 629 106 q 621 64 624 74 q 615 47 618 54 q 589 13 604 21 q 563 3 574 4 m 350 989 l 343 989 q 281 1013 310 989 q 232 1064 251 1038 q 203 1106 215 1088 q 192 1126 192 1125 q 185 1151 185 1139 q 189 1175 185 1160 q 213 1201 193 1190 q 239 1210 225 1210 q 267 1202 254 1210 q 288 1181 281 1194 l 294 1168 q 302 1156 297 1163 q 313 1142 307 1149 q 343 1106 332 1114 l 374 1139 q 385 1153 381 1146 q 394 1167 390 1161 q 403 1179 400 1172 q 449 1206 419 1206 q 479 1196 465 1206 q 506 1150 506 1179 q 496 1119 506 1135 q 483 1101 494 1118 q 454 1064 472 1085 q 400 1010 425 1028 q 350 989 375 992 z "},"ň":{"ha":615,"x_min":43,"x_max":576,"o":"m 140 0 q 102 15 118 0 q 85 51 86 31 l 43 635 q 57 670 43 654 q 94 688 71 686 l 101 688 q 136 674 121 688 q 153 636 151 660 l 164 490 q 178 523 171 508 q 193 553 186 538 q 360 667 260 667 q 476 614 428 667 q 574 279 561 522 q 576 198 575 236 q 575 130 576 160 q 573 82 574 100 q 572 63 572 64 q 554 26 569 40 q 517 11 539 11 q 476 28 492 11 q 461 67 461 46 l 461 71 l 463 88 q 464 133 463 104 q 465 198 465 161 q 463 275 464 235 q 451 388 458 342 q 433 465 443 435 q 413 513 422 496 q 394 539 403 531 q 375 553 383 550 q 360 556 367 556 q 229 322 281 556 q 211 224 218 272 q 201 139 204 176 q 196 78 197 101 l 194 54 q 178 17 194 32 q 140 0 163 1 m 313 711 l 306 711 q 243 735 272 711 q 194 786 214 760 q 166 828 178 810 q 154 849 154 847 q 147 874 147 861 q 151 897 147 882 q 175 924 156 913 q 201 932 188 932 q 230 924 217 932 q 250 903 243 917 l 257 890 q 265 878 260 885 q 275 864 269 871 q 306 828 294 836 l 336 861 q 348 876 343 868 q 357 889 353 883 q 365 901 363 894 q 411 928 382 928 q 442 918 428 928 q 468 872 468 901 q 458 842 468 857 q 446 824 457 840 q 417 786 435 807 q 363 732 388 750 q 313 711 338 714 z "},"Ŏ":{"ha":824,"x_min":40,"x_max":785,"o":"m 404 1 q 153 108 251 1 q 64 275 92 175 q 40 446 40 354 l 42 490 q 76 663 49 581 q 150 810 104 744 q 268 921 200 881 q 431 965 344 965 q 653 872 563 965 q 754 696 719 803 q 785 493 785 600 l 785 467 q 756 295 781 375 q 689 153 732 215 q 404 1 581 1 m 404 111 q 520 142 471 111 q 603 224 569 174 q 653 338 636 274 q 674 469 671 403 l 674 489 q 648 660 674 578 q 574 794 622 743 q 432 856 515 856 q 319 822 369 854 q 234 737 269 789 q 178 618 199 685 q 153 482 157 551 l 151 439 q 171 301 151 371 q 235 183 190 232 q 397 113 297 114 l 404 111 m 404 988 l 397 988 q 344 999 369 989 q 297 1029 318 1010 q 246 1139 254 1069 l 246 1147 q 258 1181 246 1165 q 294 1200 271 1197 l 303 1200 q 338 1188 321 1200 q 357 1151 354 1175 q 406 1099 361 1099 q 440 1111 422 1099 q 465 1156 458 1124 q 489 1192 469 1179 q 517 1200 501 1200 l 531 1199 q 575 1147 575 1190 l 574 1133 q 508 1024 561 1065 q 404 988 461 988 z "},"ŏ":{"ha":646,"x_min":35,"x_max":608,"o":"m 315 6 q 118 86 194 6 q 53 203 74 132 q 35 319 35 257 l 35 336 q 58 463 38 401 q 113 574 78 525 q 211 661 154 631 q 335 692 268 692 q 515 617 443 692 q 608 357 608 521 q 533 111 608 211 q 315 6 449 6 m 315 115 q 397 135 363 115 q 452 188 431 156 q 485 259 474 219 q 497 338 496 299 l 497 354 q 482 457 497 407 q 435 540 467 507 q 336 582 393 582 q 257 560 292 582 q 198 502 222 538 q 160 422 174 467 q 146 332 147 378 l 146 315 q 159 231 146 272 q 200 163 172 190 q 315 115 242 115 m 315 710 l 308 710 q 255 722 281 711 q 208 751 229 732 q 157 861 165 792 l 157 869 q 169 903 157 888 q 206 922 182 919 l 214 922 q 249 910 232 922 q 268 874 265 897 q 317 821 272 821 q 351 833 333 821 q 376 878 369 846 q 400 914 381 901 q 428 922 413 922 l 442 921 q 486 869 486 913 l 485 856 q 419 746 472 788 q 315 710 372 710 z "},"Ő":{"ha":824,"x_min":40,"x_max":785,"o":"m 404 1 q 153 108 251 1 q 64 275 92 175 q 40 446 40 354 l 42 490 q 76 663 49 581 q 150 810 104 744 q 268 921 200 881 q 431 965 344 965 q 653 872 563 965 q 754 696 719 803 q 785 493 785 600 l 785 467 q 756 295 781 375 q 689 153 732 215 q 404 1 581 1 m 404 111 q 520 142 471 111 q 603 224 569 174 q 653 338 636 274 q 674 469 671 403 l 674 489 q 648 660 674 578 q 574 794 622 743 q 432 856 515 856 q 319 822 369 854 q 234 737 269 789 q 178 618 199 685 q 153 482 157 551 l 151 439 q 171 301 151 371 q 235 183 190 232 q 397 113 297 114 l 404 111 m 251 1008 l 239 1010 q 232 1012 236 1011 q 225 1015 228 1013 q 196 1065 196 1032 q 203 1090 196 1078 q 257 1170 235 1144 q 299 1214 279 1196 q 305 1221 301 1218 q 313 1228 308 1224 q 351 1244 328 1243 q 390 1226 374 1244 q 406 1188 406 1211 q 389 1149 407 1165 q 382 1141 386 1144 q 374 1133 378 1138 q 340 1098 357 1117 q 300 1036 322 1079 q 251 1008 282 1008 m 474 1008 l 461 1010 q 454 1012 458 1011 q 447 1015 450 1013 q 418 1065 418 1032 q 425 1090 418 1078 q 479 1170 457 1144 q 521 1214 501 1196 q 527 1221 524 1218 q 535 1228 531 1224 q 573 1244 550 1243 q 613 1226 596 1244 q 628 1188 628 1211 q 611 1149 629 1165 q 604 1141 608 1144 q 596 1133 600 1138 q 562 1098 579 1117 q 522 1036 544 1079 q 474 1008 504 1008 z "},"ő":{"ha":646,"x_min":35,"x_max":608,"o":"m 315 6 q 118 86 194 6 q 53 203 74 132 q 35 319 35 257 l 35 336 q 58 463 38 401 q 113 574 78 525 q 211 661 154 631 q 335 692 268 692 q 515 617 443 692 q 608 357 608 521 q 533 111 608 211 q 315 6 449 6 m 315 115 q 397 135 363 115 q 452 188 431 156 q 485 259 474 219 q 497 338 496 299 l 497 354 q 482 457 497 407 q 435 540 467 507 q 336 582 393 582 q 257 560 292 582 q 198 502 222 538 q 160 422 174 467 q 146 332 147 378 l 146 315 q 159 231 146 272 q 200 163 172 190 q 315 115 242 115 m 163 731 l 150 732 q 143 734 147 733 q 136 738 139 735 q 107 788 107 754 q 114 813 107 800 q 168 892 146 867 q 210 936 190 918 q 216 943 213 940 q 224 950 219 946 q 262 966 239 965 q 301 949 285 967 q 317 910 317 933 q 300 871 318 888 q 293 863 297 867 q 285 856 289 860 q 251 820 268 839 q 211 758 233 801 q 163 731 193 731 m 385 731 l 372 732 q 365 734 369 733 q 358 738 361 735 q 329 788 329 754 q 336 813 329 800 q 390 892 368 867 q 432 936 413 918 q 438 943 435 940 q 446 950 442 946 q 484 966 461 965 q 524 949 507 967 q 540 910 539 933 q 522 871 540 888 q 515 863 519 867 q 507 856 511 860 q 473 820 490 839 q 433 758 456 801 q 385 731 415 731 z "}}}
